/* XPM */
static char *_9579_8188916be7694d404ce0f121c82b5ad0c6b635ea78f72f2c61fc8adbc8e98c70[] = {
/* columns rows colors chars-per-pixel */
"64 64 187 2 ",
"   c #2A0604",
".  c #3B0C09",
"X  c #390A07",
"o  c #3B1E0D",
"O  c #3E100D",
"+  c #3D200F",
"@  c #3E2110",
"#  c #480605",
"$  c #4D0D0A",
"%  c #560C0B",
"&  c #5B0D0B",
"*  c #59120E",
"=  c #4E1714",
"-  c #581913",
";  c #551612",
":  c #650A0A",
">  c #6C0B0B",
",  c #740D0B",
"<  c #63110D",
"1  c #79120E",
"2  c #7D1310",
"3  c #771813",
"4  c #6E1D1A",
"5  c #412514",
"6  c #462C1B",
"7  c #45281C",
"8  c #5A2F17",
"9  c #55211D",
"0  c #5C321A",
"q  c #5A3017",
"w  c #4D3423",
"e  c #533A2A",
"r  c #583825",
"t  c #5D3430",
"y  c #532A27",
"u  c #6E2621",
"i  c #623D27",
"p  c #613734",
"a  c #594232",
"s  c #5E4738",
"d  c #64412B",
"f  c #694936",
"g  c #624C3D",
"h  c #6A4F47",
"j  c #6C5242",
"k  c #6E5A4C",
"l  c #6E544C",
"z  c #735C4D",
"x  c #70544A",
"c  c #735E51",
"v  c #785B57",
"b  c #754E4B",
"n  c #79665A",
"m  c #7A665A",
"M  c #7F6D61",
"N  c #800D0A",
"B  c #89120E",
"V  c #99120F",
"C  c #860F12",
"Z  c #950F10",
"A  c #861313",
"S  c #8B1213",
"D  c #8B1E19",
"F  c #881C17",
"G  c #941413",
"H  c #9C1614",
"J  c #931A16",
"K  c #9A1A15",
"L  c #A21612",
"P  c #A91613",
"I  c #AA1914",
"U  c #A71B19",
"Y  c #B11713",
"T  c #B31915",
"R  c #B91914",
"E  c #B11E1B",
"W  c #88231C",
"Q  c #93241E",
"!  c #98251F",
"~  c #A2261E",
"^  c #AA271F",
"/  c #B9231B",
"(  c #B91D21",
")  c #9D2620",
"_  c #A52720",
"`  c #AE2321",
"'  c #AE2820",
"]  c #B72026",
"[  c #BB2226",
"{  c #B42821",
"}  c #BB2922",
"|  c #AE3735",
" . c #BC3230",
".. c #C42525",
"X. c #CB2525",
"o. c #C52A22",
"O. c #CB2B24",
"+. c #D22624",
"@. c #D32A23",
"#. c #DC2B24",
"$. c #E42B24",
"%. c #E92E25",
"&. c #816E6E",
"*. c #906E6B",
"=. c #84766D",
"-. c #857469",
";. c #957C6E",
":. c #8B7A73",
">. c #B57573",
",. c #93857B",
"<. c #747E8E",
"1. c #7A8485",
"2. c #7C838E",
"3. c #7B8889",
"4. c #768385",
"5. c #84838E",
"6. c #8A858E",
"7. c #868B8A",
"8. c #958886",
"9. c #9C8F85",
"0. c #9D868F",
"q. c #928985",
"w. c #9E9087",
"e. c #939393",
"r. c #939999",
"t. c #9A9B9B",
"y. c #9E9693",
"u. c #A28A8D",
"i. c #AC8A8E",
"p. c #B48A8E",
"a. c #A0938B",
"s. c #A69B92",
"d. c #A89C9B",
"f. c #ADA29C",
"g. c #9D9FA0",
"h. c #949EA0",
"j. c #9BA1A2",
"k. c #A4ABAC",
"l. c #AAADAD",
"z. c #A0A5A6",
"x. c #B9B0AB",
"c. c #ADAEB0",
"v. c #BDB6B3",
"b. c #B2BDBE",
"n. c #B8B8B8",
"m. c #B1AAA9",
"M. c #C38888",
"N. c #CC8F90",
"B. c #CD9494",
"V. c #CE9C9C",
"C. c #D09494",
"Z. c #DBAEAE",
"A. c #C4BAB6",
"S. c #ECB3B3",
"D. c #E5B2B3",
"F. c #E1A7A9",
"G. c #BEBFC0",
"H. c #B6C1C3",
"J. c #BFCACD",
"K. c #BDC3C5",
"L. c #9FD2E3",
"P. c #A6E6FF",
"I. c #B4E9FF",
"U. c #C2C3C4",
"Y. c #C2CACC",
"T. c #CACCCC",
"R. c #D8D1CD",
"E. c #C8CED1",
"W. c #CCD4D6",
"Q. c #D4DCDE",
"!. c #DBDCDC",
"~. c #E2DDDB",
"^. c #D8DEE0",
"/. c #CEE5ED",
"(. c #CCEFFF",
"). c #D8F3FF",
"_. c #DEE4E4",
"`. c #E3E5E5",
"'. c #E5EAEA",
"]. c #E9EBEC",
"[. c #E5E4E4",
"{. c #F5E8E9",
"}. c #F1F0EF",
"|. c #ECF4F8",
" X c #F4F5F5",
".X c #FEFFFF",
"XX c None",
/* pixels */
"XXXXXXXXXXXXXXXXXXXXXXXXXXXXXXXXXXXXXXXXXXXXXXXXXXXXXXXXXXXXXXXXXXXXXXXXXXXXXXXXXXXXXXXXXXXXXXXXXXXXXXXXXXXXXXXXXXXXXXXXXXXXXXXX",
"XXXXXXXXXXXXXXXXXXXXXXXXXXXXXXXXXXXXXXXXXXXXXXXXXXXXXXXXXXXXXXXXXXXXXXXXXXXXXXXXXXXXXXXXXXXXXXXXXXXXXXXXXXXXXXXXXXXXXXXXXXXXXXXX",
"XXXXXXXXXXXXXXXXXXXXXXXXXXXXXXXXXXXXXXXXXXXXXXXXXXXXXXXXXXXXXXXXXXXXXXXXXXXXXXXXXXXXXXXXXXXXXXXXXXXXXXXXXXXXXXXXXXXXXXXXXXXXXXXX",
"XXXXXXXXXXXXXXXXXXXXXXXXXXXXXXXXXXXXXXXXXXXXXXXXXXXXXXXXXXXXXXXXXXXXXXXXXXXXXXXXXXXXXXXXXXXXXXXXXXXXXXXXXXXXXXXXXXXXXXXXXXXXXXXX",
"XXXXXXXXXXXXXXXXXXXXXXXXXXXXXXXXXXXXXXXXXXXXXXXXXXXXXXXXXXXXXXXXXXXXXXXXXXXXXXXXXXXXXXXXXXXXXXXXXXXXXXXXXXXXXXXXXXXXXXXXXXXXXXXX",
"XXXXXXXXXXXXXXXXXXXXXXXXXXXXXXXXXXXXXXXXXXXXXXXXXXXXXXXXXXXX.X.X.XXXXXXXXXXXXXXXXXXXXXXXXXXXXXXXXXXXXXXXXXXXXXXXXXXXXXXXXXXXXXXX",
"XXXXXXXXXXXXXXXXXXXXXXXXXXXXXXXXXXXXXXXXXXXXXXXXXXXXXXXX.X.X.Xb.J.`..X.XXXXXXXXXXXXXXXXXXXXXXXXXXXXXXXXXXXXXXXXXXXXXXXXXXXXXXXXX",
"XXXXXXXXXXXXXXXXXXXXXXXXXXXXXXXXXXXXXXXXXXXXXXXXXX.X.X.XT.J.E..X.X`.Y.z..X.XXXXXXXXXXXXXXXXXXXXXXXXXXXXXXXXXXXXXXXXXXXXXXXXXXXXX",
"XXXXXXXXXXXXXXXXXXXXXXXXXXXXXXXXXXXXXXXXXXXXXX.X.X.Xj.Y. X.Xx.0 0 f .X.XY.b..X.XXXXXXXXXXXXXXXXXXXXXXXXXXXXXXXXXXXXXXXXXXXXXXXXX",
"XXXXXXXXXXXXXXXXXXXXXXXXXXXXXXXXXXXXXXXXXX.X.X.XJ.Y..X.Xd 0 l..X.X X0 0 ]..XY.Y.K..XXXXXXXXXXXXXXXXXXXXXXXXXXXXXXXXXXXXXXXXXXXXX",
"XXXXXXXXXXXXXXXXXXXXXXXXXXXXXXXXXXXXXXXX.Xl.J.Q..X}.8 q  X.Xb : > # .X.Xj 0 U..X}.J.k..X.XXXXXXXXXXXXXXXXXXXXXXXXXXXXXXXXXXXXXXX",
"XXXXXXXXXXXXXXXXXXXXXXXXXXXXXXXXXX.X.Xk.Y.'..X`.q 8 .X.X4 L L L L L L X .X.Xn 0 b..X.XJ.l..X.XXXXXXXXXXXXXXXXXXXXXXXXXXXXXXXXXXX",
"XXXXXXXXXXXXXXXXXXXXXXXXXXXXXXXX.XH.J..X.X,.q ,..X.X< < < < < < < < < < < < u..XW.0 m .X.XY.Y._..XXXXXXXXXXXXXXXXXXXXXXXXXXXXXXX",
"XXXXXXXXXXXXXXXXXXXXXXXXXX.X.XJ.Y..X.Xy.0 v..X~.G G G V C.p.u.p.N.i.0.M.B.G G H >..X].8 -..X.XY.Y.!..XXXXXXXXXXXXXXXXXXXXXXXXXXX",
"XXXXXXXXXXXXXXXXXXXXXXXXk.Y.W..X.Xi 0  X.X7 L L L L L H N.6.0.2.N.6.0.<.B.L L L L L H .X.X=.i .X.X'.Y.j.XXXXXXXXXXXXXXXXXXXXXXXX",
"XXXXXXXXXXXXXXXXXXXXXXXX^..X!.0 ;..Xb , , , , , , , , , N.7.5.2.N.2.<.5.B., , , , , , , , $ .XU.8 `..X.XU.XXXXXXXXXXXXXXXXXXXXXX",
"XXXXXXXXXXXXXXXXXXXXXXh..X0  X.Xu H H H H H H L H H H H N.N.N.N.N.N.N.B.B.L H H H H L H L H H A .X Xd .XE.XXXXXXXXXXXXXXXXXXXXXX",
"XXXXXXXXXXXXXXXXXXXX.XJ..Xe.  , , , , , , , , , , , , , N.3.2.<.B.5.i.0.B., , , , , , , , , , 1 , # .X.X]. XXXXXXXXXXXXXXXXXXXXX",
"XXXXXXXXXXXXXXXXXXXXU..Xi .XH H H H K K V K H K H H H G N.L.P.P..X(./.p.B.H H H K K K G H H G G G H .X=..Xb.XXXXXXXXXXXXXXXXXXXX",
"XXXXXXXXXXXXXXXXXXXXXX.Xi .X& & & & & & & & & & & & & 2 .XP.P.I..X(.).|..X& * * & & & & & * & * * &   g..XQ.XXXXXXXXXXXXXXXXXXXX",
"XXXXXXXXXXXXXXXXXXXXXXc..XG G G S G S G J G G S G X...o..X.X.X.X.X.X.X.X.X....K G S G G S G G G G G G .XK..Xl.XXXXXXXXXXXXXXXXXX",
"XXXXXXXXXXXXXXXXXXXX.X8 .XG S G G G G G S G G o.........X.X.X.X.X.X...X.X.X...O...U G S G S G G S G G  X8 .XY.XXXXXXXXXXXXXXXXXX",
"XXXXXXXXXXXXXXXXXXXX.Xe.# > > > > > > > J L H H U K L K K H H H K K H H H H U K H H H H , , > > > > > : K..X.X.XXXXXXXXXXXXXXXXX",
"XXXXXXXXXXXXXXXXXX.Xq..XS S S S S S ..[ ..[ [ ..[ ..[ [ ..[ ..[ ....[ ....[ [ [ ....[ ..[ [ G S S S S S .Xf .X1.XXXXXXXXXXXXXXXX",
"XXXXXXXXXXXXXXXXXX.X8  X: : : A G G G G H G G J G G G G G K G K G G J G G G G H G G G G K G J J S : : : $ j..X.XXXXXXXXXXXXXXXXX",
"XXXXXXXXXXXXXXXX.Xj.!.S C C ( ] [ [ [ [ [ [ [ [ [ [ [ [ ] ] ] [ [ [ [ [ [ [ [ [ [ [ [ [ [ ( [ [ [ ] A C A .Xj..Xr.XXXXXXXXXXXXXX",
"XXXXXXXX.XXXXXXX.X0 .X% % % A A A A A A A A A A A A S A A A A A A A A A A A A A A A A A A A A A A A % % % *.f .X.X.XXXXXXXXXXXXX",
"XXXXXXXXXXXXXXXX.Xg.t C A J ] ( ] ] ] [ ] ] ] ] ] ] ] ] ] ] ] ( ( ] ] ] ] ] ] ] ] ] ] ] [ ] ] ] ] ( ( A C 2 [..X.X.XXXXXXXXXXXXX",
"XXXXXXXXXXXXXX.Xz .XA C A ( ( [ [ [ [ [ [ [ ] ] [ ] ] ] ] [ [ [ [ [ [ ( ] [ ] [ [ ( [ [ [ ] [ [ [ [ ] A A C .Xj .Xr..XXXXXXXXXXX",
"XXXXXXXXXXXX X.X0 A.C A M.{.{.{.{.{.{.{.{.] [ ] ] ] ] ( {.{.{.{.{.{.{.{.}.] ] ] [ [ ] F.{.{.{.{.{.{.{.V.C C   t..X.X.XXXXXXXXXXX",
"XXXXXXXXXXXX.XT.!.S C C .X-.5 9..Xm e !..X[ ( ( [ ] [ ] .X7 g A..Xc &.,..X] [ [ [ [ [ D.+ + l `.j o =.w.C C C .Xt..X XXXXXXXXXXX",
"XX.XXXXXXXXX.X8 .X: : : .Xe :.5 .Xk n @ .XG H H H H H Z .Xt M e .Xk 6 O .XH H H G G H Z.5 a h v.e x.o 8.: : : .Xf .X X.XXXXXXXXX",
"XX.XXXXXXX.X.Xq.. S S U .Xe e + .X5 o + .X[ ..[ ......( .X7 e o .X@ a o .X..[ ....[ ..D.w 5 a f.s.@ n s...C S % .XY..X.X.XXXXXXX",
"XX.XXXXXXX.X8..X: > > H .X.X.X.X.X.X.X.X.XH H H H H H Z .X.X.X.X.X.X.X.X.XH H H K H H Z..X.X.X.X.X.X.X.XZ : > : .X8 .XG..XXXXXXX",
"XXXXXXXXXX.X8 .XG G Z X..Xo 6 + .Xa k + .XX.X.X...X.X.X..X+ 5 o .Xs k @ .XX.X.X.X...X.S.= @ @ f.e q.k :.X.( G Z X g..X.X.XXXXXXX",
"XXXXXXXX.X Xl.% 2 C ` { .Xo 5 + .Xe + n .X{ ` ] ` ` ` E .X5 + o .Xe + @ .X` ` ` ` ] ` D.@ @ @ f.n 6 + :.` ` 2 C 2 .Xt..X!.XXXXXX",
"XXXXXXXX.X0 .XH H V +.+..X9.9.9..X9.9.9..X+.+.+.+.+.+.+..X9.9.9..X9.w.0..X+.+.+.+.+.+.S.w.9.9.R.s.w.9.A.+.+.H H H ~.q .X.X.XXXXX",
"XXXXXX.X.Xi v L H X.#.+.| | | | | | | | | +.+.+.+.+.+.+.| | | | | | | | | +.@.+.#.+.+. .| | | | | | | | @.@.+.L H L .Xg..X.X.XXX",
"XXXXXX.Xc n.N B H +.+.+.+.+.+.@.+.+.+.+.+.+.+.+.+.+.+.+.+.+.+.+.+.+.+.+.+.+.+.+.+.+.+.+.+.+.+.+.@.+.+.+.+.+.+.H H L .X0 .Xt..XXX",
"XXXXXX.X0 [.C P P #.#.#.#.#.#.#.#.#.#.#.#.#.#.#.$.#.#.$.#.#.#.#.#.#.#.#.#.#.$.#.#.#.#.#.#.#.$.#.#.#.#.#.$.#.#.P P P .X0  X.X.XXX",
"XX.X.XT.0 !.V N / Y Y Y T T T T T T T T T T T T T T T T T T T T T T T T T T T T T T T T T T T T T Y T Y T T T T N N .X0 z .XU.XX",
"XXt..Xq ;.T.Y Y $.$.$.$.$.%.$.$.$.$.$.$.$.$.%.$.$.$.$.$.$.$.$.$.$.%.$.$.$.$.$.$.$.$.$.%.$.$.$.$.$.$.%.%.$.$.%.%.Y Y .XR.8 .X[.XX",
"XXXXXXXXXXU.X > B 2 3 A 2 2 7.J.Y.Y.Y.J.J.Y.Y.J.J.Y.Y.Y.Y.Y.Y.J.J.Y.Y.Y.J.Y.J.Y.J.J.Y.Y.J.J.J.J.J.H.2 2 2 2 2 2 2 % XXXXXXXXXXXX",
"XXXXXXXXXXT.R %.%.%.%.%.%.%.3..X.X.X.X.X.X.X.X.X.X.X.X.X.X.X.X.XQ..X.X.X.X.X.X.X.X.X.X.X.X.X.X.X.XH.%.%.%.%.%.%.%.Y XXXXXXXXXXXX",
"XXXXXXXXXXU.H %.%.%.%.%.%.%.3..X.X.X.X.X.X.X.X.X.X.X.X.X.X.X.X.X_..X.X.X.X.X.X.X.X.X.X.X.X.X.X.X.XH.%.%.%.%.%.%.%.T XXXXXXXXXXXX",
"XXXXXXXXXXT.$.#.#.#.#.#.#.$.3..X.Xa.#.#.#.#.#.#.#.#.#.#.#..X.X.X'..X.X#.#.#.#.#.#.#.#.#.#.#.T .X.XH.#.$.$.#.#.#.$.$.XXXXXXXXXXXX",
"XXXXXXXXXXT.o.#.#.#.#.@.#.#.3..X.X.Xj #.#.#.#.#.#.#.#.#..X.X.X.X X.X.X.X#.#.#.#.#.#.#.#.#.@..X.X.XH.#.#.#.#.#.#.#.@.XXXXXXXXXXXX",
"XXXXXXXXXXT.#.I I I I I I I 1..X.X.X.Xf.@.@.@.@.@.@.@..X.Xd..X.X.X.X.X.X.X#.@.@.@.@.@.@./ .X.X.X.XH.I I I I I I I E XXXXXXXXXXXX",
"XXXXXXXXXXT.@.O.@.O.@.@.O.@.4..X.X/ .X.X3 @.O.@.@.@..X.Xs.6..X.X.X.X.X9 .X.XO.@.O.@.@.@..X.XG .X.XK.O.@.@.@.@.@.O.@.XXXXXXXXXXXX",
"XXXXXXXXXXU.K H K H L K K K 1..X.XO.E .X.X~ O.O.O. X.Xv.O.8..X.X.X.X.XO.1 .X.XO.O.O.O..X.XB O..X.XW.K H K L K K V ~ XXXXXXXXXXXX",
"XXXXXXXXXXT.O.o.o.o.o.O.o.o.7..X.Xo.o.o..X.X3 o..X.X!.o.o.8..X.X.X.X.Xo.o.< .X.Xo.O..X.XV o.o..X.X'.o.o.o.o.o.o.o.o.XXXXXXXXXXXX",
"XXXXXXXXXXT._ o.o.o.o.o.o.o.r..X.Xo.} ..H .X.Xx..X.Xo.o.o.8..X.X.X.X.Xo.} o.&..X.X.X.X< } o.o..X.X Xo.o.o.o.o.o.o.o.XXXXXXXXXXXX",
"XXXXXXXXXXT.o./ } } } } / } j..X.X} } } } V .X.X.X} } } } 8..X.X.X.X.X} } } } = .X.X* } } } } .X.X X} } } o.} } } o.XXXXXXXXXXXX",
"XXXXXXXXXXU.^ } } } } } } } j..X.X{ } } } U..X.X.X} } { } 8..X.X.X.X.X} } } } .X.X.X.X} } } } .X.X X} } { } } } } } XXXXXXXXXXXX",
"XXXXXXXXXXY.} S J ! K J J K j..X.X{ { { f..X.X$ .X.X{ { { 8..X.X.X.X.X{ { { .X.X X.X.X.X{ { { .X.X XK K K ! K K K ~ XXXXXXXXXXXX",
"XXXXXXXXXXT.^ ^ ^ { ' ' ' ^ j..X.X' ' :..X.XQ ' y .X.X{ { 8..X.X.X.X.X' ' .X.X.X{ ' .X.X.X' ^ .X.X X^ ^ ' ' ^ ^ ^ ^ XXXXXXXXXXXX",
"XXXXXXXXXXU.J S S A F B A F j..X.X' l .X.XA ^ ' _ v .X.X' 8..X.X.X.X.X^ .X.X.X' _ ^ ' .X.X.X^ .X.X XS F A S A A S A XXXXXXXXXXXX",
"XXXXXXXXXXT.~ _ _ ~ _ _ ~ ~ g..X.Xt .X.XA _ _ _ _ _ m..X.X8..X.X.X.X.X.X.X.X_ _ _ _ _ _ .X.X.X.X.X X~ ~ ~ _ ~ _ _ ~ XXXXXXXXXXXX",
"XXXXXXXXXXT.= - - - - - - - j..X.X.X.X3 ! ~ _ ~ _ _ ~ [..X.X.X.X.X.X.X.X.X_ ~ _ ~ ~ _ ~ ! .X.X.X.X X- - - - - - - 9 XXXXXXXXXXXX",
"XXXXXXXXXXY.) ) ) ) ) ) ! ! g..X.X.X: ) ! ~ ) ) ) ) ) ) .X.X.X.X.X.X.X.XF ) ) ) ) ) ) ) ! J .X.X.X X) ) ) ) ) ) ) ) XXXXXXXXXXXX",
"XXXXXXXXXXT.W ! ! ! ! ! ! ! j..X.X# ) Q ) Q ) Q ) ! ! ! ! .X.X.X.X.X.XW ! ! ! ! ! ! ! ! ! ! 3 .X.X X! ! ! ! ! ! ! ! XXXXXXXXXXXX",
"XXXXXXXXXXU.! F Q Q Q Q ! ! g..X.X.X.X.X.X.X.X.X.X.X.X.X.X.X.X.X.X.X.X.X.X.X.X.X.X.X.X.X.X.X.X.X.X XQ ! Q Q Q Q ! ! XXXXXXXXXXXX",
"XXXXXXXXXXT.W Q Q Q Q Q Q Q j..X.X.X.X.X.X.X.X.X.X.X.X.X.X.X.X.X.X.X.X.X.X.X.X.X.X.X.X.X.X.X.X.X.X.XQ Q Q Q Q Q Q Q XXXXXXXXXXXX",
"XXXXXXXXXXQ..X.X.X.X.X.X.X.X.X.X.X.X.X.X.X.X.X.X.X.X.X.X.X.X.X.X.X.X.X.X.X.X.X.X.X.X.X.X.X.X.X.X.X.X.X.X.X.X.X.X.X.XXXXXXXXXXXXX"
};
