/* XPM */
static char *_1223_b2ae1656042c887d6172179b8468458ab6f2db431f6f808d310b666c3be80579[] = {
/* columns rows colors chars-per-pixel */
"64 64 225 2 ",
"   c #080503",
".  c #041B04",
"X  c #0C1E03",
"o  c #0B1F0A",
"O  c #141D03",
"+  c #1C1C04",
"@  c #171A0C",
"#  c #0B1A14",
"$  c #151B15",
"%  c #281809",
"&  c #36160B",
"*  c #381708",
"=  c #341C0B",
"-  c #3C1D0C",
";  c #2B1D17",
":  c #052202",
">  c #0B2204",
",  c #042C05",
"<  c #0A2A05",
"1  c #0C230A",
"2  c #06280B",
"3  c #0A2D0A",
"4  c #112006",
"5  c #12220C",
"6  c #19270E",
"7  c #043505",
"8  c #0B3307",
"9  c #043B04",
"0  c #04330A",
"q  c #0A320A",
"w  c #063B0A",
"e  c #0B3C0C",
"r  c #12360E",
"t  c #0E2512",
"y  c #0D2C12",
"u  c #152618",
"i  c #043311",
"p  c #0D3512",
"a  c #043D10",
"s  c #0B3B13",
"d  c #133414",
"f  c #133A13",
"g  c #1A3815",
"h  c #29260C",
"j  c #3B230C",
"k  c #273F0E",
"l  c #392718",
"z  c #3E291D",
"x  c #2D3114",
"c  c #10292C",
"v  c #173C20",
"b  c #252B2B",
"n  c #471E09",
"m  c #561D09",
"M  c #481E16",
"N  c #482106",
"B  c #41230E",
"V  c #4A220B",
"C  c #572409",
"Z  c #54280D",
"A  c #56370A",
"S  c #482814",
"D  c #542512",
"F  c #512911",
"G  c #5D2916",
"H  c #57311B",
"J  c #6D2F0A",
"K  c #732C0E",
"L  c #753014",
"P  c #513A34",
"I  c #044206",
"U  c #074708",
"Y  c #06440C",
"T  c #0A430D",
"R  c #0B4A0B",
"E  c #12480B",
"W  c #0C530C",
"Q  c #0C5A0D",
"!  c #14560E",
"~  c #064312",
"^  c #0A4411",
"/  c #0B4913",
"(  c #0A471A",
")  c #114215",
"_  c #154618",
"`  c #0D5716",
"'  c #185A16",
"]  c #26481D",
"[  c #205A19",
"{  c #0F660D",
"}  c #19760C",
"|  c #1C6415",
" . c #186917",
".. c #1A7316",
"X. c #1B7519",
"o. c #22671A",
"O. c #22751B",
"+. c #277B1C",
"@. c #1A4922",
"#. c #244B24",
"$. c #235B24",
"%. c #2E5F2D",
"&. c #2A473B",
"*. c #235B34",
"=. c #2A6D22",
"-. c #2B7727",
";. c #337529",
":. c #2C6431",
">. c #327734",
",. c #494418",
"<. c #6B521F",
"1. c #774520",
"2. c #795A23",
"3. c #3B5B49",
"4. c #396954",
"5. c #446059",
"6. c #5B6F73",
"7. c #89521F",
"8. c #9A4F24",
"9. c #A35729",
"0. c #BB5C2E",
"q. c #A9682B",
"w. c #B36C2B",
"e. c #B96F2E",
"r. c #BB722D",
"t. c #B3683C",
"y. c #BE7330",
"u. c #BA7C34",
"i. c #C8621E",
"p. c #CC6825",
"a. c #C17631",
"s. c #C57932",
"d. c #CB7E34",
"f. c #CE7A3E",
"g. c #C37845",
"h. c #DA7740",
"j. c #28871C",
"k. c #33961B",
"l. c #288425",
"z. c #2D8C23",
"x. c #2D8128",
"c. c #328B23",
"v. c #2F9323",
"b. c #349322",
"n. c #379727",
"m. c #399623",
"M. c #3B9C23",
"N. c #3C9C2A",
"B. c #3C8534",
"V. c #3B9831",
"C. c #3EA225",
"Z. c #3AA32A",
"A. c #3CA031",
"S. c #4A8E3D",
"D. c #459936",
"F. c #4E9B3B",
"G. c #46AA2C",
"H. c #49B72D",
"J. c #46A536",
"K. c #4CB736",
"L. c #4DBB35",
"P. c #53BA3A",
"I. c #53C334",
"U. c #59C43C",
"Y. c #59C93B",
"T. c #64CD3D",
"R. c #518C4A",
"E. c #519441",
"W. c #599652",
"Q. c #5AB547",
"!. c #67B056",
"~. c #67B66B",
"^. c #5CC744",
"/. c #5DC452",
"(. c #64CD43",
"). c #64CA48",
"_. c #68D444",
"`. c #6AD546",
"'. c #65D349",
"]. c #6EDC4A",
"[. c #6DD356",
"{. c #75D959",
"}. c #75E54F",
"|. c #7CF14E",
" X c #74E353",
".X c #77E755",
"XX c #7CEE55",
"oX c #7EEE59",
"OX c #76F051",
"+X c #7DF154",
"@X c #7EF159",
"#X c #7BC965",
"$X c #75D965",
"%X c #7DE764",
"&X c #CE8034",
"*X c #D38436",
"=X c #D58639",
"-X c #D78839",
";X c #DC8B3B",
":X c #E08D3A",
">X c #E8923F",
",X c #BB8D70",
"<X c #D8875A",
"1X c #E7935F",
"2X c #E49D65",
"3X c #E99E6A",
"4X c #E9A770",
"5X c #FBAF7C",
"6X c #F4B67F",
"7X c #82EE56",
"8X c #81ED5C",
"9X c #81F154",
"0X c #82F25B",
"qX c #87D875",
"wX c #82EB62",
"eX c #86EB67",
"rX c #85F262",
"tX c #8CF566",
"yX c #8DE378",
"uX c #8EF173",
"iX c #73998B",
"pX c #7ABE91",
"aX c #E3BC8B",
"sX c #8FDA92",
"dX c #92E58A",
/* pixels */
";X-X-X;X;X;X;X-X;X-X-X;X-X;X-X;X;X-X;X-X;X;X;X;X-X-X;X-X-X-X;X-X;X-X;X;X-X;X-X-X-X;X-X-X;X;X-X;X;X-X-X-X<X-X-X;X;X-X-X-X-X=Xu.u.",
";X;X<X;X;X-X;X;X;X-X;X;X;X;X;X-X;X;X<X-X;X-X;X<X;X;X;X;X;X;X;X$X;X<X;X;XS.;X;X;X<X-X;X;X-X;X;X;X;X;X;X;X;X;X;X-X;X;X;X;X;X;X-X<X",
";X-X-X;X<X-X;X-X;X;X<X;X;X-X;X;X-X;X;X;X;X;X;X-X;X<X-X;X;X;XsX.X{.[.F.F.F.#X;X;X;X;X-X;X;X;X;X;X-X;X;X;X-X;X;X;X;X<X-X;X;X;X-X;X",
";X;X;X;X;X;X;X-X;X;X-X-X-X;X;X;X;X-X;X;X;X-X;X;X-X;X-X;X;X<XsX.X{.{.D.J.F.#X<X-X;X;X;X;X-X;X<X-X-X<X-X;X;X;X;X-X;X;X-X;X;X-X;X;X",
"-X;X<X;X;X;X;X;X;X;X;X;X;X<X;X;X;X-X;X-X;X;X;X;X;X;X;X+.8X8X9X+X9X9X+X+XXXqX&.&.;X<X-X;X;X;X;X;X;X;X;X;X-X;X-X;X;X;X;X;X;X;X;X;X",
"-X<X-X;X;X;X;X;X,X-X;X;X;X;X-X;X;X;X;X<X;X;X;X<X;X;X;X+X+X+X9X9X+X|.+X9X+XOXG.G.P.;X;X;X;X<X-X-X;X;X;X;X;X;X<X;X;X-X;X;X-X;X<X;X",
"-X;X;X-X-X-X;X;X;X;X;X;X;X;X;X;X;X;X<X;X-Xd d ).'.}.OX9X+XOX].T.G.C.M.C.G.'.9X9X@XE.` i w w ;X;X-X;X;X;X-X;X;X;X;X-X;X,X;X;X-X-X",
":X;X;X;X;X;X-X<X;X;X-X-X<X-X;X;X:X-X-X-X;Xd d ).'.].+X+X+X+X].(.C.C.M.G.G._.|.9X@XE.` i i i ;X;X;X<X-X;X;X-X;X;X;X;X;X;X;X;X;X-X",
";X-X-X;X;X;X;X;X;X;X;X;X-X,X;X;X;X;X-X-X;Xf d ).(. X|.7X+X|.].T.C.G.M.C.G.`.+X+X9XE.` a i i <X;X;X-X-X<X-X-X;X;X;X;X;X;X;X;X;X;X",
",X;X;X;X-X;X;X,X-X;X;X;X;X;X;X;X-X<X;X;X<X=.O.8 < G.I._.M.M.j.k.j.j.j.+.Q P.`.`._.Y ~ c c c -X:X;X;X-X;X;X;X<X;X-X;X;X;X;X-X;X;X",
";X;X;X;X;X;X;X;X;X-X;X-X;X;X;X;X;Xo.f %X0XrXrXB.B.E I I I I E 8 { { Q ` 9 9 7 7 R ^ i ;X;X;X3.s.;X;X;X;X;X-X;X;X;X;X;X,X;X-X-X;X",
";X;X;X;X-X;X;X-X;X;X;X;X;X;X;X-XdX7XrX@X9X+X+X+X9XrXyXw ~ R ^ : ^ / T T w e 8 8 o ^ ' dXdXdX%X. 2.u.=X-X;X;X-X;X-X;X;X;X;X;X;X-X",
";X-X;X;X;X;X-X;X;X-X;X-X-X;X;XA.oX7X+X@X0XY.Y.+XXX+X9X..Y ~ U : T T > . 8 > 4 < , >.`.@XXXoX@X@Xl.*.*.<.>X:X;X;X;X;X;X;X;X-X;X;X",
";X;X;X;X-X;X;X;X;X-X<X;X;X;XpXJ.@X7X@X@X0XY.Y.+XXX+X0X..~ ~ T > T T : . 3 X < > 7 -.`.+XoX@XXX0Xl.*.*.,.<.7.;X;X;X-X;X;X;X;X;X;X",
"-X;X-X;X;X;X;X;X;X;X;X;X;X;X4.%X|.XX9X].M.Z.Z.9X@X+XoXn.O.O.: > : > 1 1 1 > . . b.OX+X+X+X+X9X+X9X%.%.] 8 ,.;X;X;X-X-X;X,X;X-X;X",
"7X;X;X;X;X;X-X;X;X-X;X;X;X;X4.%X+X.XZ.v.X.X.X.z.j.'.7X` ` ` / 5 q 8 r r 7 _ 7 7 n.+X^..X.X.XI.|.0XeXeX] ! C.;X;X;X;X;X;X;X;X;X;X",
":X:X;X;X;X;X-X;X<X-X-X:X;X;X4.` / v.v.X.X.0 0 T T T T p : : r 7Xr r f f oXb.D.m.D.^.T ......L.eXP.rX0X/ g ,.;X;X;X;X-X;X;X;X;X;X",
"-X:X;X-X;X-X-X;X-X;X:X-X;X;X-X/ a .. ...^ w w X o U T _ ].].0X7X.X}..X.XXX1 . > W 9 9 O.O.X.l.' b.[.[._ A.S ;X;X;X-X;X;X;X;X-X;X",
":X:X-X:X;X-X;X;X;X;X-X;X;X;X;X-X;XT s Y > f f : : : p F.]. X7X7XU.^.P.L.+X' g f XX9 f : : > T a / / / ] g 5 u.u.;X;X-X;X;X-X;X-X",
":X-X:X-X;X;X;X;X;X;X;X;X;X;X-X-X:.s s ) X X X | | R U.|.9X9X0XtXD.J.z.z.wX7X7X8X0Xw 4 X X X > ^ T : : g :.d =X=X;X;X;X;X;X;X;X;X",
";X-X;X;X;X;X;X;X;X;X;X-X;X6.6.;X:.) f ) X X X | | R U.|.+X+XtXtXJ.J.z.z.%X9X7X8X0Xw 4 > X > > ~ T : : g %.g &X=X;X;X;X;X;X;X;X;X",
";X;X;X;X;X;X;X;X;X:X;X;X;Xv ! /._ S.o X X X X V.V.Z.^.%X X{.Z.v. ...-.-. .%X{..X$XT r > X X X 2 9 .X.XXX@X7X#X[.4.;X;X;X;X;X;X-X",
";X;X;X;X;X;X;X;X:XW.eXwXoXXX7X7X0X|.S.8 : X X U Y { ` =.Q Q W U W W Y ~ Y W W / e w q > X X f F.{.@X+X`.].+XXX+X+X*.<X;X;X;X;X;X",
";X;X-X;X;X;X;X;XiX{.|.|.XX7X(.'.XX7XOX!.>.> > T ^ Y R 7 ^ e Y Y w Y Y w w Y 9 7 R.W.< > > > B.+X9X8X8Xc...7X+X+XOXyX` ;X-X;X;X;X",
";X;X-X;X;X;X;X-XiX$X+X|.7X7X_.'.XXoXOX!.;.X > T T Y / 7 T T Y Y Y w w I w Y 9 7 R.R.1 > > > S.+X9X@X7Xc.} oX+X|.OXyX@.;X;X;X;X;X",
";X;X;X;X;X;X;XeXoX0X9X|.7X.X| Q '.].(.rXj.w w 1 2 , ^ : < < < < : , < < > T x.;.oX7X#X#X#X#X' |.@Xv.j.U R k.}.|.+XoXb.~.;X;X;X;X",
";X;X;X;X;X;X .OX+X_.].]. XG.e ~ c.D.' =.I U U f f E -.q 8 3 3 X X X X X 4 ;.+X+X+X+XoX'._._.T E o. . .U R z.} } ].Y.`.' ;X;X;X-X",
";X-X;X;X;X-X( } j.} } j.j.. X w I 9 U 1 e f f oX8XtXuXW R R T r X X X X r @X+X+XY.G.M.I I I T T T : : T T U W W z.-.' ^ -X;X;X;X",
";X;X;X;X;X;X~ Y I I U I I e 1 : > : ;.;.;.S.F.oX@XXX0XuXV.S./ E ] #.] #.S.@XoX@XH.n.v.I Y I ^ > q g _ > : U Y Y Y Y ^ ~ ;X;X;X;X",
";X;X;X;X;X;XY I I I U U I s . : : : ;.;.;.F.F.0X@X7X8XuXB.V./ T ] _ #.] >.7XoX@XH.M.v.I I I ^ < q g g > . T U Y Y Y e ~ ;X;X;X;X",
";X;X;X>X>X;X-Xw Y Y / ~ w > X =.! 7 qX0XtX0X0XrXeXb.k.oX0X0XQ.T M.M.N.N.C.X.{ { X.=.q ^ ^ ^ ^ | n.D.D.I X X q q T y y ;X;X:X;X:X",
";X;X-Xu.u.u.u.u.r.2 1 1 > X L.OX^.M.: , -.....R R { X. ._ ) I Y M.M.U.^.@XY Y R Y p > > > > 3 {.+XY.Y.M.b.o.t 5 t u ;X;X;X:X<X:X",
";X;X-Xs.a.a.r.r.y.b 6 t 1 +. X+X@X{. .l.U ^ ~ o o Y ^ Y 3 3 1 w Y Y Y T e ~ ~ Y , Y T U T I v.+X+XU.U.m.( ) ;X;X;X<X;X;X;X;X;X;X",
"-X-Xe.e.w.e.w.w.w.b y 6 1 +. X+X@X X .l.R ~ R o o Y R Y 3 3 1 ^ I Y T T e Y Y ~ , T T T I T v.9X+XU.U.m.( _ ;X;X:X:X;X:X;X:X;X;X",
";X-Xa.a.a.r.y.s.s.b t 5 5 +. X+X+X.X| l.Y / T o o Y T Y 3 3 > T w T Y e e Y ~ Y , T T Y T U v.+X+XY.U.m.^ _ ;X:X:X;X;X;X:X<X;X;X",
";X;X:Xa.r.a.r.s.s.d.*X;X:X( ~ rXoX{.b.A.U T T > > 4 T 0 X X X w T w X X O o > X X Y ) X > . U 7Xl.+.+.X.e d ;X;X:X;X;X;X:X;X;X;X",
":X;X:X:X;X;X;X-X<X:X;X*Xa.^ ^ p ^ T > > > > > 4 X h T > O X O O O O h h O e Y Y Y 8 1 > X 1 Y ~ > w e s t ;X;X;X;X;X;X;X:X:X;X;X",
"<X:X;X;X;X:X;X:X:X;X:X-Xd.e p i s q X ^ T e T O 4 h O O O O O O O + O O O X : : Y O X X X X ^ Y 1 1 o u u ;X;X;X;X;X:X;X:X:X;X;X",
";X;X;X;X;X;X;X;X;X;X;X:X;X;X;X;X5 4 5 X O 4 4 5 @ + x h O + 4 4 = = O O 4 O O O O 1 e X X X O 5 5 t t ;X<X;X;X;X:X:X;X;X;X;X:X;X",
";X:X:X:X;X:X:X;X:X;X:X;X-X:X:X:X# c 5 O 5 5 5 :X;X:Xx h     :X% = = O O + @ O O O 4 p 5 o 5 5 ;X;X:X:X:X:X:X;X:X;X:X:X;X;X;X;X;X",
":X:X-X:X:X-X:X:X:X;X;X:X:X:X-X:X:Xu 5 5 O 5 5 ;X:X:Xh h     ;XO = = O O O @ @ O O O d 1 1 O 5 ;X:X-X:X:X:X-X:X:X;X;X:X;X;X:X:X:X",
"-X:X:X:X:X:X:X:X;X:X:X;X:X:X:X:X:X:X:Xu u :X:X:X:X-X:X4 % h ; + % % O % + @ @ @ $ # $ u u 6 ;X;X:X:X:X:X:X:X:X-X:X;X;X:X:X;X:X:X",
";X:X:X:X:X:X-X:X:X;X;X:X-X:X:X:X:X;X;X:X:X:X;X:X:X:X:X:Xz S S h + O B B V ; :X;X;X:X;X;X;X:X:X:X:X:X-X:X:X:X:X:X;X;X:X:X;X-X-X:X",
":X:X-X:X:X-X:X:X;X:X;X;X:X:X-X:X:X:X:X:X:X;X;X:X;X:X:X;Xz z S x % % Z Z n $ ;X;X;X;X;X:X:X:X:X:X:X:X:X:X:X-X:X-X;X:X:X:X;X:X:X:X",
":X:X-X:X:X-X:X:X;X;X:X:X:X;X;X;X:X:X;X:X:X:X>X:X;X;X;X;X<Xz S V * j F F % b ;X;X;X;X;X:X:X:X:X:X:X:X:X:X:X:X:X:X-X:X-X:X:X;X:X;X",
":X:X:X:X:X:X:X:X;X;X:X;X;X;X;X;X=X=X=X*Xd.d.s.a.&Xu.r.r.r.S S F n * Z Z % b e.w.r.r.a.r.s.s.&X&X&X*X-X-X-X:X:X:X:X:X:X:X;X:X:X;X",
"-X:X:X:X:Xw.w.w.w.w.w.w.w.w.w.w.w.w.w.w.w.w.w.w.w.w.w.w.w.w.j S - - % % & w.w.w.w.w.r.r.r.a.s.s.&X&X*X*X-X-X-X:X:X:X:X:X:X:X:X:X",
":X:X:Xw.w.w.w.w.w.w.w.w.w.w.w.w.w.w.w.w.w.w.w.w.r.w.w.w.w.w.w.S j - - * ; w.w.w.w.w.r.r.r.r.s.s.&X*X*X*X-X-X:X-X-X:X-X:X:X:X:X-X",
":X:Xw.w.q.w.w.w.w.w.w.w.w.w.w.w.w.w.w.w.w.w.w.w.w.w.w.w.w.w.r.G n n - - l s.d.*Xd.*X:X-X:X:X:X:X-X:X:X:X:X:X-X:X;X:X:X:X:X:X:X:X",
"-X:Xw.w.w.w.w.w.w.w.q.q.w.q.w.w.w.w.w.r.w.r.r.r.r.a.s.&Xd.d.*XD J J j j S :X:X:X:X:X:X:X:X-X:X:X:X:X:X-X:X:X:X:X:X;X:X-X-X:X:X-X",
":X-X-X:Xr.&Xr.&X&X&Xs.&X&X&X&X*X*X*X*X*X:X*X:X:X:X:X:X:X:X;X:XD J J - j z ;X:X;X:X:X:X-X-X:X-X:X:X:X:X:X-X:X-X:X:X:X:X:X;X:X:X:X",
":X:X:X:X:X;X:X:X*X:X:X:X-X:X:X:X:X:X:X:X:X:X:X:X:X-X:X:X:X;X;XM K K B - H ;X;X;X:X:X;X:X:X:X:X:X:X:X-X:X:X:X:X:X-X:X:X:X;X;X-X:X",
":X:X-X:X:X:X-X:X:X:X:X:X:X:X:X:X:X;X;X:X;X:X:X;X:X-X:X:X:X-X;XJ K K N j H :X:X:X:X;X:X;X:X:X:X:X-X:X:X:X:X-X:X:X:X:X-X:X:X;X:X:X",
":X-X:X:X:X-X:X:X:X:X-X:X:X-X:X:X:X*X:X:X:X;X;X:X:X:X:X-X:X:X;Xm K K * n H :X:X;X;X:X:X;X-X:X:X-X:X:X-X:X:X:X-X:X:X:X:X:X;X:X-X:X",
":X:X-X:X:X:X-X:X:X:X-X:X:X:X:X-X:X:X:X;X;X:X;X;X:X-X:X:X:X:X<X1Xf.f.Z Z F ;X:X;X;X:X:X:X:X:X:X:X:X:X:X:X:X-X:X:X-X:X-X:X:X:X:X:X",
":X:X:X:X:X:X:X:X:X-X:X:X:X-X:X:X:X:X:X:X;X:X:X:X:X:X:X:XP P 2XK 5X5XZ Z D - :X:X:X:X:XE.W.W.Q.:X-X:X} :X:X:X:X:X:X:X:X:X:X:X-X:X",
":X:X:X:X:X:X:X:X:X:X:X:X:X:X:X:X:X:X:X:X:X:X:X:X:X:X:X:XP P 3XK 5X5XZ Z Z S ;X;X:X:X:XW.W.W.Q.:X:X;X$.;X;X;X:X:X:X:X-X:X:X:X:X:X",
":X-X:X-X:X:X-X:X:X-X:X*X:X:X:X*X:X:X:X:X:Xh.:X:X:X:X:Xg.M M - 6X4X4X3X3XB = ; ; :X[ : k.m.m.C.L.~.;X$.L.L.-.:X;X-X:X:X:X:X:X:X-X",
":X:X:X:Xh.:X:X;X:X:X:X:X*X:X:X:X:Xf.:X:X:X:X:X:X:X:Xh.g.M M - 6X4X4X3X3Xn * ; ; :X[ < m.m.D.M.H.~.:.$.P.K.$.;X;X:X:X:X-X:X:X:X-X",
"h.:X:X:X:X:X$.:X:X:X:X:X:X:X:X:X:X:X;X;X:X:X:Xb b 5.:X* * & * D 5X6X2X2X* 1X1.L 9.o.Q.G.G.K.j.H.L.$.@.N.b.$.d f :X:X:X:X[ :X:X:X",
":X:X:X:X:X;X:X;X:X:X:X:X:X:X:Xd.:X:X;X:X:XQ.Q.g.g.g.9.,X0.0.V D G G V V V M p.p.p.9.w.k k k | !  .O.O.j.$.=.a s :X:X:X:X[ :X:X[ ",
":X+.+.:X;X;X:X:X:X:X$.:X:X:X:X:X:X:X:X:X:XQ.Q.a.g.h.9.,X0.0.n D G G m C S S p.p.p.9.w.k k ] | !  .+...j.$.X.s s :X:X:X$.:X:Xx.$.",
"x.x.x.:Xx.;X=.:XF.P.[ :X:X%.:X:X:XO.' :X7.t.t.C C C p.m V n n O i.i.* * F N C n n C N aXaXaX1.9 T ~ Y ^ / _ _ ( ^ :X:X$.x.$.$.$.",
"$.$.$.x.x.x.l.!.;.x.:XQ.!.[ ;.+.=.$._ d 0.n V j j V A n = = 5 @ i.i.8.8.V Z Z C C h h j j - = I y _ _ Z.A.s s d _ -.x.x.$.$.$.$."
};
