/* XPM */
static char *_7946_ae5030b1cc8702a8f1c925aaee8cca24975fca0c1217621340100385188f20c8[] = {
/* columns rows colors chars-per-pixel */
"64 64 104 2 ",
"   c #020301",
".  c #040200",
"X  c #040300",
"o  c #060302",
"O  c #030400",
"+  c #050401",
"@  c #060401",
"#  c #050402",
"$  c #050503",
"%  c #060402",
"&  c #060502",
"*  c #030405",
"=  c #040406",
"-  c #090705",
";  c #000800",
":  c #070806",
">  c #0B0906",
",  c #03030E",
"<  c #06060E",
"1  c #08030B",
"2  c #130E07",
"3  c #210F04",
"4  c #2E2A0E",
"5  c #2F2D0D",
"6  c #2C2C10",
"7  c #232321",
"8  c #2F2F2F",
"9  c #252B38",
"0  c #252B3A",
"q  c #272C3C",
"w  c #272D3C",
"e  c #272D3D",
"r  c #262E3D",
"t  c #292D3A",
"y  c #282D3B",
"u  c #6A290C",
"i  c #54534F",
"p  c #555553",
"a  c #B2451A",
"s  c #B74619",
"d  c #B64719",
"f  c #B6471A",
"g  c #B6461C",
"h  c #B7461C",
"j  c #B6471C",
"k  c #B6471E",
"l  c #B4481E",
"z  c #EE631E",
"x  c #F2631F",
"c  c #F2641D",
"v  c #F2641F",
"b  c #EC6420",
"n  c #ED6420",
"m  c #EF6420",
"M  c #E2972D",
"N  c #E38B32",
"B  c #E58B31",
"V  c #E78B32",
"C  c #E88B33",
"Z  c #E88A37",
"A  c #E38838",
"S  c #DCAE34",
"D  c #D5B433",
"F  c #F6C437",
"G  c #F9C538",
"H  c #F8C43A",
"J  c #FAC140",
"K  c #808686",
"L  c #828787",
"P  c #858684",
"I  c #828788",
"U  c #A8A8A6",
"Y  c #A6B3BA",
"T  c #B5B8B8",
"R  c #D1D4D3",
"E  c #D0D4D5",
"W  c #DFDFDD",
"Q  c #DEEBEB",
"!  c #DBEAEC",
"~  c #DBEAED",
"^  c #DCEAEC",
"/  c #DDEAED",
"(  c #DDE8EF",
")  c #DCE9EF",
"_  c #DDEAEE",
"`  c #DCEAF0",
"'  c #F1F2EE",
"]  c #E4F2F1",
"[  c #F1F1F1",
"{  c #F0F5F3",
"}  c #FDFDF0",
"|  c #F9F9F9",
" . c #FEFEFA",
".. c #F9FFFF",
"X. c #FBFFFF",
"o. c gray99",
"O. c #FDFDFD",
"+. c #FFFFFD",
"@. c #FCFDFF",
"#. c #FDFEFF",
"$. c #FEFEFE",
"%. c #FEFFFF",
"&. c white",
"*. c None",
/* pixels */
"*.*.*.*.*.*.*.*.*.*.*.*.*.*.*.*.*.*.*.*.*.*.*.*.*.*.*.*.*.*.*.*.*.*.*.*.*.*.*.*.*.*.*.*.*.*.*.*.*.*.*.*.*.*.*.*.*.*.*.*.*.*.*.*.",
"*.*.*.*.*.*.*.*.*.*.*.*.*.*.*.*.*.*.*.*.*.*.*.*.*.*.*.*.*.*.*.*.*.*.*.*.*.*.*.*.*.*.*.*.*.*.*.*.*.*.*.*.*.*.*.*.*.*.*.*.*.*.*.*.",
"*.*.*.*.*.*.*.*.*.*.*.*.*.*.*.*.*.*.*.*.*.*.*.*.*.*.*.*.*.*.*.*.*.*.*.*.*.*.*.*.*.*.*.*.*.*.*.*.*.*.*.*.*.*.*.*.*.*.*.*.*.*.*.*.",
"*.*.*.*.*.*.*.*.*.*.*.*.*.*.*.*.*.*.*.*.*.*.*.*.*.*.*.*.*.*.*.*.*.*.*.*.*.*.*.*.*.*.*.*.*.*.*.*.*.*.*.*.*.*.*.*.*.*.*.*.*.*.*.*.",
"*.*.*.*.*.*.*.*.*.*.*.*.*.*.*.*.*.*.*.*.*.*.*.*.*.*.*.*.*.*.*.*.*.*.*.*.*.*.*.*.*.*.*.*.*.*.*.*.*.*.*.*.*.*.*.*.*.*.*.*.*.*.*.*.",
"*.*.*.*.*.*.*.*.*.*.E *.*.*.*.*.*.*.*.*.*.*.*.*.*.*.*.*.*.*.*.*.*.*.*.*.*.*.*.*.*.*.*.*.*.*.*.*.*.*.*.*.*.*.*.*.*.*.*.*.*.*.*.*.",
"*.*.*.*.*.*.*.*.*.*.u u u u P P *.*.*.*.*.*.*.*.*.*.*.*.*.*.*.*.*.*.*.*.*.*.*.*.*.*.*.*.*.*.*.*.*.*.*.*.*.*.*.*.*.*.*.*.*.*.*.*.",
"*.*.*.*.*.*.*.*.: + x x x x + + *.*.*.*.*.*.*.*.*.*.*.*.*.*.*.*.*.*.*.*.*.*.*.*.*.*.*.*.*.*.*.*.*.*.*.*.*.*.*.*.*.*.*.*.*.*.*.*.",
"*.*.*.*.*.*.*.*.: + x x x x + + *.*.*.*.*.*.*.*.*.*.*.*.*.*.*.*.*.*.*.*.*.*.*.*.*.*.*.*.*.*.*.*.*.*.*.*.*.*.*.*.*.*.*.*.*.*.*.*.",
"*.*.*.*.*.*.*.O & + h c m f + X + *.*.*.*.*.*.*.*.*.*.*.*.*.*.*.*.*.*.*.*.*.*.*.*.*.*.*.*.*.*.*.*.*.*.*.*.*.*.*.*.*.*.*.*.*.*.*.",
"*.*.*.*.*.*.+ a j g g d s v x m x + *.*.*.*.*.*.*.*.*.*.*.*.*.*.*.*.*.*.*.*.*.*.*.*.*.*.*.*.*.*.*.*.*.*.*.*.*.*.*.*.*.*.*.*.*.*.",
"*.*.*.*.*.*.+ a j g &.+ + v x m x + *.*.*.*.*.*.*.*.*.*.*.*.*.*.*.*.*.*.*.*.*.*.*.*.*.*.*.*.*.*.*.*.*.*.*.*.*.*.*.*.*.*.*.*.*.*.",
"*.*.*.*.*.*.+ l k k &.- - b n z b *.*.*.*.*.*.*.*.*.*.*.*.*.*.*.*.*.*.*.*.*.*.*.*.*.*.*.*.*.*.*.*.*.*.*.*.*.*.*.*.*.*.*.*.*.*.*.",
"*.*.*.$ 1 D D S } &.&.7 7 W 2 3 T *.*.*.*.*.*.*.*.*.*.*.*.*.*.*.*.*.*.*.*.*.*.*.*.*.*.*.*.*.*.*.*.*.*.*.*.*.*.*.*.*.*.*.*.*.*.*.",
"*.*.*.$ ; H H G  .&.&.+ # &.+ + *.*.*.*.*.*.*.*.*.*.*.*.*.*.*.*.*.*.*.*.*.*.*.*.*.*.*.*.*.*.*.*.*.*.*.*.*.*.*.*.*.*.*.*.*.*.*.*.",
"*.*.*.*.*.. H G  .&.&.&.&.&.&.o.+ *.*.*.*.*.*.*.*.*.*.*.*.*.*.*.*.*.*.*.*.*.*.*.*.*.*.*.*.*.*.*.*.*.*.*.*.*.*.*.*.*.*.*.*.*.*.*.",
"*.*.*.*.*.*.+ # | &.&.&.&.&.&.&.&.+ *.*.*.*.*.*.*.*.*.*.*.*.*.*.*.*.*.*.*.*.*.*.*.*.*.*.*.*.*.*.*.*.*.*.*.*.*.*.*.*.*.*.*.*.*.*.",
"*.*.*.*.*.*.+ ` #.&.&.&.&.e &.&.&.&.+ U *.*.*.o + + + + + + + + + *.*.*.*.*.*.*.*.*.*.*.*.*.*.*.*.*.*.*.*.*.*.*.*.*.*.*.*.*.*.*.",
"*.*.*.*.*.*.+ ` #.&.&.&.&.e &.&.&.&.+ U *.*.*.o + + + + + + + + + *.*.*.*.*.*.*.*.*.*.*.*.*.*.*.*.*.*.*.*.*.*.*.*.*.*.*.*.*.*.*.",
"*.*.*.*.*.*.+ ` #.&.&.e e &.&.&.&.&.&.8 % R * X.............%.&.+ *.*.*.*.*.*.*.*.*.*.*.*.*.*.*.*.*.*.*.*.*.*.*.*.*.*.*.*.*.*.*.",
"*.*.*.*.*.*.X ` @.$.$.0 0 $.$.O.$.$.$.o.$.O.q ^ ) ) ) ) ) ) Q $.X *.*.*.*.*.*.*.*.*.*.*.*.*.*.*.*.*.*.*.*.*.*.*.*.*.*.*.*.*.*.*.",
"*.*.*.*.*.*.+ ` #.&.&.e e &.&.&.&.&.&.O.&.&.e / ) ) ) ) ) ) Q &.+ *.*.*.*.*.*.*.*.*.*.*.*.*.*.*.*.*.*.*.*.*.*.*.*.*.*.*.*.*.*.*.",
"*.*.*.*.*.*.+ ` #.&.&.w w &.&.&.&.&.&.O.&.&.&.9 w ) ) ) ) ) Q &.+ *.*.*.*.*.*.*.*.*.*.*.*.*.*.*.*.*.*.*.*.*.*.*.*.*.*.*.*.*.*.*.",
"*.*.*.*.*.*.+ ` #.&.&.) ) e &.&.&.&.&.O.&.&.&.&.&.e ) ) ) ) Q &.+ *.*.*.*.*.*.*.*.*.*.*.*.*.*.*.*.*.*.*.*.*.*.*.*.*.*.*.*.*.*.*.",
"*.*.*.*.*.*.+ ` ) ) &.&.&.) e t &.&.&.O.&.&.e e e ) ) ) ) &.' + *.*.*.*.*.*.*.*.*.*.*.*.*.*.*.*.*.*.*.*.*.*.*.*.*.*.*.*.*.*.*.*.",
"*.*.*.*.*.*.+ _ ~ ! &.&.&.! r y &.&.&.o.+.&.r r r ) ) ) ! &.[ @ *.*.*.*.*.*.*.*.*.*.*.*.*.*.*.*.*.*.*.*.*.*.*.*.*.*.*.*.*.*.*.*.",
"*.*.*.*.*.*.*.L p i { ] ] ] ) ( Y Y Y Y Y Y ) ) ) ) { { i K I *.*.*.*.*.*.*.*.*.*.*.*.*.*.*.*.*.*.*.*.*.*.*.*.*.*.*.*.*.*.*.*.*.",
"*.*.*.*.*.*.*.*.: + &.) ) ) ) ) ) ) ) ) ) ) ) ) ) ) &.&.+ *.*.*.*.*.*.*.*.*.*.*.*.*.*.*.*.*.*.*.*.*.*.*.*.*.*.*.*.*.*.*.*.*.*.*.",
"*.*.*.*.*.*.*.*.*.*.+ &.&.&.) ) ) ) ) ) ) ) ) o.&.&.+ + *.*.*.*.*.*.E *.*.*.*.*.*.*.*.*.*.*.*.*.*.*.*.*.*.*.*.*.*.*.*.*.*.*.*.*.",
"*.*.*.*.*.*.*.*.*.*.*.+ + + &.&.&.&.&.O.&.&.&.  + + *.*.*.*.*.*.*.*.u u u u P P *.*.*.*.*.*.*.*.*.*.*.*.*.*.*.*.*.*.*.*.*.*.*.*.",
"*.*.*.*.*.*.*.*.*.*.*.*.*.*.+ X + + + > + + # *.*.*.*.*.*.*.*.*.: + x x x x + + *.*.*.*.*.*.*.*.*.*.*.*.*.*.*.*.*.*.*.*.*.*.*.*.",
"*.*.*.*.*.*.*.*.*.*.*.*.*.*.+ , Z + H 4 . *.*.*.*.*.*.*.*.*.*.*.: + x x x x + + *.*.*.*.*.*.*.*.*.*.*.*.*.*.*.*.*.*.*.*.*.*.*.*.",
"*.*.*.*.*.*.*.*.*.*.*.*.*.*.& < A & J 5 % *.*.*.*.*.*.*.*.*.*.O & + h c m f + X + *.*.*.*.*.*.*.*.*.*.*.*.*.*.*.*.*.*.*.*.*.*.*.",
"*.*.*.*.*.*.*.*.*.*.*.*.*.*.+ = B + F 6 . *.*.*.*.*.*.*.*.*.+ a j g g d s v x m x + *.*.*.*.*.*.*.*.*.*.*.*.*.*.*.*.*.*.*.*.*.*.",
"*.*.*.*.*.*.*.*.*.*.*.*.*.*.+ , Z + H 4 . *.*.*.*.*.*.*.*.*.+ a j g &.+ + v x m x + *.*.*.*.*.*.*.*.*.*.*.*.*.*.*.*.*.*.*.*.*.*.",
"*.*.*.*.*.*.*.*.*.*.*.*.*.+ C N + H H M V + *.*.*.*.*.*.*.*.+ l k k &.- - b n z b *.*.*.*.*.*.*.*.*.*.*.*.*.*.*.*.*.*.*.*.*.*.*.",
"*.*.*.*.*.*.*.*.*.*.*.*.*.*.*.*.*.*.*.*.*.*.*.*.*.*.*.$ 1 D D S } &.&.7 7 W 2 3 T *.*.*.*.*.*.*.*.*.*.*.*.*.*.*.*.*.*.*.*.*.*.*.",
"*.*.*.*.*.*.*.*.*.*.*.*.*.*.*.*.*.*.*.*.*.*.*.*.*.*.*.$ ; H H G  .&.&.+ # &.+ + *.*.*.*.*.*.*.*.*.*.*.*.*.*.*.*.*.*.*.*.*.*.*.*.",
"*.*.*.*.*.*.*.*.*.*.*.*.*.*.*.*.*.*.*.*.*.*.*.*.*.*.*.*.*.. H G  .&.&.&.&.&.&.o.+ *.*.*.*.*.*.*.*.*.*.*.*.*.*.*.*.*.*.*.*.*.*.*.",
"*.*.*.*.*.*.*.*.*.*.*.*.*.*.*.*.*.*.*.*.*.*.*.*.*.*.*.*.*.*.+ # | &.&.&.&.&.&.&.&.+ *.*.*.*.*.*.*.*.*.*.*.*.*.*.*.*.*.*.*.*.*.*.",
"*.*.*.*.*.*.*.*.*.*.*.*.*.*.*.*.*.*.*.*.*.*.*.*.*.*.*.*.*.*.+ ` #.&.&.&.&.e &.&.&.&.+ U *.*.*.o + + + + + + + + + *.*.*.*.*.*.*.",
"*.*.*.*.*.*.*.*.*.*.*.*.*.*.*.*.*.*.*.*.*.*.*.*.*.*.*.*.*.*.+ ` #.&.&.&.&.e &.&.&.&.+ U *.*.*.o + + + + + + + + + *.*.*.*.*.*.*.",
"*.*.*.*.*.*.*.*.*.*.*.*.*.*.*.*.*.*.*.*.*.*.*.*.*.*.*.*.*.*.+ ` #.&.&.e e &.&.&.&.&.&.8 % R * X.............%.&.+ *.*.*.*.*.*.*.",
"*.*.*.*.*.*.*.*.*.*.*.*.*.*.*.*.*.*.*.*.*.*.*.*.*.*.*.*.*.*.X ` @.$.$.0 0 $.$.O.$.$.$.o.$.O.q ^ ) ) ) ) ) ) Q $.X *.*.*.*.*.*.*.",
"*.*.*.*.*.*.*.*.*.*.*.*.*.*.*.*.*.*.*.*.*.*.*.*.*.*.*.*.*.*.+ ` #.&.&.e e &.&.&.&.&.&.O.&.&.e / ) ) ) ) ) ) Q &.+ *.*.*.*.*.*.*.",
"*.*.*.*.*.*.*.*.*.*.*.*.*.*.*.*.*.*.*.*.*.*.*.*.*.*.*.*.*.*.+ ` #.&.&.w w &.&.&.&.&.&.O.&.&.&.9 w ) ) ) ) ) Q &.+ *.*.*.*.*.*.*.",
"*.*.*.*.*.*.*.*.*.*.*.*.*.*.*.*.*.*.*.*.*.*.*.*.*.*.*.*.*.*.+ ` #.&.&.) ) e &.&.&.&.&.O.&.&.&.&.&.e ) ) ) ) Q &.+ *.*.*.*.*.*.*.",
"*.*.*.*.*.*.*.*.*.*.*.*.*.*.*.*.*.*.*.*.*.*.*.*.*.*.*.*.*.*.+ ` ) ) &.&.&.) e t &.&.&.O.&.&.e e e ) ) ) ) &.' + *.*.*.*.*.*.*.*.",
"*.*.*.*.*.*.*.*.*.*.*.*.*.*.*.*.*.*.*.*.*.*.*.*.*.*.*.*.*.*.+ _ ~ ! &.&.&.! r y &.&.&.o.+.&.r r r ) ) ) ! &.[ @ *.*.*.*.*.*.*.*.",
"*.*.*.*.*.*.*.*.*.*.*.*.*.*.*.*.*.*.*.*.*.*.*.*.*.*.*.*.*.*.*.L p i { ] ] ] ) ( Y Y Y Y Y Y ) ) ) ) { { i K I *.*.*.*.*.*.*.*.*.",
"*.*.*.*.*.*.*.*.*.*.*.*.*.*.*.*.*.*.*.*.*.*.*.*.*.*.*.*.*.*.*.*.: + &.) ) ) ) ) ) ) ) ) ) ) ) ) ) ) &.&.+ *.*.*.*.*.*.*.*.*.*.*.",
"*.*.*.*.*.*.*.*.*.*.*.*.*.*.*.*.*.*.*.*.*.*.*.*.*.*.*.*.*.*.*.*.*.*.+ &.&.&.) ) ) ) ) ) ) ) ) o.&.&.+ + *.*.*.*.*.*.*.*.*.*.*.*.",
"*.*.*.*.*.*.*.*.*.*.*.*.*.*.*.*.*.*.*.*.*.*.*.*.*.*.*.*.*.*.*.*.*.*.*.+ + + &.&.&.&.&.O.&.&.&.  + + *.*.*.*.*.*.*.*.*.*.*.*.*.*.",
"*.*.*.*.*.*.*.*.*.*.*.*.*.*.*.*.*.*.*.*.*.*.*.*.*.*.*.*.*.*.*.*.*.*.*.*.*.*.+ X + + + > + + # *.*.*.*.*.*.*.*.*.*.*.*.*.*.*.*.*.",
"*.*.*.*.*.*.*.*.*.*.*.*.*.*.*.*.*.*.*.*.*.*.*.*.*.*.*.*.*.*.*.*.*.*.*.*.*.*.+ , Z + H 4 . *.*.*.*.*.*.*.*.*.*.*.*.*.*.*.*.*.*.*.",
"*.*.*.*.*.*.*.*.*.*.*.*.*.*.*.*.*.*.*.*.*.*.*.*.*.*.*.*.*.*.*.*.*.*.*.*.*.*.& < A & J 5 % *.*.*.*.*.*.*.*.*.*.*.*.*.*.*.*.*.*.*.",
"*.*.*.*.*.*.*.*.*.*.*.*.*.*.*.*.*.*.*.*.*.*.*.*.*.*.*.*.*.*.*.*.*.*.*.*.*.*.+ = B + F 6 . *.*.*.*.*.*.*.*.*.*.*.*.*.*.*.*.*.*.*.",
"*.*.*.*.*.*.*.*.*.*.*.*.*.*.*.*.*.*.*.*.*.*.*.*.*.*.*.*.*.*.*.*.*.*.*.*.*.*.+ , Z + H 4 . *.*.*.*.*.*.*.*.*.*.*.*.*.*.*.*.*.*.*.",
"*.*.*.*.*.*.*.*.*.*.*.*.*.*.*.*.*.*.*.*.*.*.*.*.*.*.*.*.*.*.*.*.*.*.*.*.*.+ C N + H H M V + *.*.*.*.*.*.*.*.*.*.*.*.*.*.*.*.*.*.",
"*.*.*.*.*.*.*.*.*.*.*.*.*.*.*.*.*.*.*.*.*.*.*.*.*.*.*.*.*.*.*.*.*.*.*.*.*.*.*.*.*.*.*.*.*.*.*.*.*.*.*.*.*.*.*.*.*.*.*.*.*.*.*.*.",
"*.*.*.*.*.*.*.*.*.*.*.*.*.*.*.*.*.*.*.*.*.*.*.*.*.*.*.*.*.*.*.*.*.*.*.*.*.*.*.*.*.*.*.*.*.*.*.*.*.*.*.*.*.*.*.*.*.*.*.*.*.*.*.*.",
"*.*.*.*.*.*.*.*.*.*.*.*.*.*.*.*.*.*.*.*.*.*.*.*.*.*.*.*.*.*.*.*.*.*.*.*.*.*.*.*.*.*.*.*.*.*.*.*.*.*.*.*.*.*.*.*.*.*.*.*.*.*.*.*.",
"*.*.*.*.*.*.*.*.*.*.*.*.*.*.*.*.*.*.*.*.*.*.*.*.*.*.*.*.*.*.*.*.*.*.*.*.*.*.*.*.*.*.*.*.*.*.*.*.*.*.*.*.*.*.*.*.*.*.*.*.*.*.*.*.",
"*.*.*.*.*.*.*.*.*.*.*.*.*.*.*.*.*.*.*.*.*.*.*.*.*.*.*.*.*.*.*.*.*.*.*.*.*.*.*.*.*.*.*.*.*.*.*.*.*.*.*.*.*.*.*.*.*.*.*.*.*.*.*.*."
};
