/* XPM */
static char *_062_5e527c3fb8a61312c34d6c6d98d803b5e23b4b5e79082ceb1614973f3ded6e22[] = {
/* columns rows colors chars-per-pixel */
"60 60 229 2 ",
"   c #150B15",
".  c #1B1519",
"X  c #0E011F",
"o  c #380E13",
"O  c #36231D",
"+  c #120C2A",
"@  c #171B2C",
"#  c #050E35",
"$  c #091739",
"%  c #161836",
"&  c #160F35",
"*  c #281B2B",
"=  c #261A33",
"-  c #291332",
";  c #15223C",
":  c #1D2439",
">  c #1F232F",
",  c #292126",
"<  c #25283A",
"1  c #352634",
"2  c #2B333E",
"3  c #3A3637",
"4  c #312B2D",
"5  c #451515",
"6  c #4C1C16",
"7  c #552A1B",
"8  c #561B3E",
"9  c #451628",
"0  c #741E35",
"q  c #6D1B29",
"w  c #552827",
"e  c #53342A",
"r  c #5B3E3A",
"t  c #4C3234",
"y  c #6B2925",
"u  c #78383A",
"i  c #673433",
"p  c #56453D",
"a  c #76453A",
"s  c #744126",
"d  c #131646",
"f  c #0B1B59",
"g  c #1B1758",
"h  c #1C0644",
"j  c #2A1B57",
"k  c #371654",
"l  c #291741",
"z  c #172543",
"x  c #0A2E59",
"c  c #1B255B",
"v  c #092145",
"b  c #272948",
"n  c #38224D",
"m  c #2C354A",
"M  c #2A3552",
"N  c #373456",
"B  c #32354A",
"V  c #151962",
"C  c #2B1D6A",
"Z  c #163A78",
"A  c #1A2970",
"S  c #392A68",
"D  c #263766",
"F  c #212D73",
"G  c #37277D",
"H  c #343A75",
"J  c #27346F",
"K  c #58164A",
"L  c #561856",
"P  c #6A1243",
"I  c #791544",
"U  c #68174C",
"Y  c #572D50",
"T  c #743B49",
"R  c #642457",
"E  c #6D3848",
"W  c #401D71",
"Q  c #671C61",
"!  c #442765",
"~  c #423469",
"^  c #6B3664",
"/  c #3B465B",
"(  c #184174",
")  c #1C486F",
"_  c #224179",
"`  c #374874",
"'  c #4A4558",
"]  c #514356",
"[  c #4B4046",
"{  c #7F474C",
"}  c #685859",
"|  c #6F4A4F",
" . c #4B665D",
".. c #464964",
"X. c #444B75",
"o. c #4E5670",
"O. c #7C4D64",
"+. c #685A6C",
"@. c #785569",
"#. c #645B72",
"$. c #654073",
"%. c #56657A",
"&. c #556471",
"*. c #786769",
"=. c #67687B",
"-. c #7B757B",
";. c #871529",
":. c #8C1C38",
">. c #971B3D",
",. c #8F1435",
"<. c #A21F34",
"1. c #A51D2B",
"2. c #9B2538",
"3. c #93373D",
"4. c #853439",
"5. c #B22535",
"6. c #84453E",
"7. c #871C4C",
"8. c #9A1947",
"9. c #971E53",
"0. c #952349",
"q. c #963A4E",
"w. c #862F4E",
"e. c #A73748",
"r. c #B83355",
"t. c #AB2F4E",
"y. c #8E3263",
"u. c #A73966",
"i. c #C6354E",
"p. c #905F4E",
"a. c #964B55",
"s. c #8B514D",
"d. c #BA474C",
"f. c #9D705D",
"g. c #A86A58",
"h. c #925A6B",
"j. c #82686C",
"k. c #936877",
"l. c #897878",
"z. c #957775",
"x. c #986E62",
"c. c #B77B68",
"v. c #A76372",
"b. c #BA6674",
"n. c #A77B78",
"m. c #C44055",
"M. c #9E8378",
"N. c #BC836F",
"B. c #B6836D",
"V. c #BD8371",
"C. c #BA8F7E",
"Z. c #C0826B",
"A. c #C68D75",
"S. c #CB957C",
"D. c #D1957D",
"F. c #1B3487",
"G. c #163895",
"H. c #282C8B",
"J. c #213284",
"K. c #1C4C98",
"L. c #1C4D85",
"P. c #2C5296",
"I. c #3A6A88",
"U. c #3F708E",
"Y. c #1D58B7",
"T. c #1E50A5",
"R. c #255FAB",
"E. c #3F56A2",
"W. c #2665AC",
"Q. c #396CA8",
"!. c #2765B5",
"~. c #3866B1",
"^. c #5D5E8C",
"/. c #645081",
"(. c #536C88",
"). c #676E8C",
"_. c #477EB7",
"`. c #1F5FC0",
"'. c #8D758D",
"]. c #887CA0",
"[. c #AD788A",
"{. c #68949C",
"}. c #7B8C90",
"|. c #77A09A",
" X c #5993A9",
".X c #4F8DA6",
"XX c #799AAD",
"oX c #768CAA",
"OX c #5BA3B1",
"+X c #69B1C9",
"@X c #978296",
"#X c #949A9A",
"$X c #8A8E93",
"%X c #AD9391",
"&X c #8A8BA9",
"*X c #8796A4",
"=X c #9198B4",
"-X c #A596AA",
";X c #8EA5AD",
":X c #8EB1AB",
">X c #BBA9B5",
",X c #C59684",
"<X c #C29D8D",
"1X c #C29882",
"2X c #D69A82",
"3X c #C1A9B9",
"4X c #8DC1BD",
"5X c #949ACB",
"6X c #9CA5C6",
"7X c #A5ADD1",
"8X c #BEBFED",
"9X c #99D3E1",
"0X c #BDC5EC",
"qX c #FFF2DE",
"wX c #D3D8FA",
"eX c #FFF4E3",
"rX c #FFF5EB",
"tX c #FFF9EE",
"yX c #FFF8E6",
"uX c #FFECF8",
"iX c #E3FFFF",
"pX c #EEFEFF",
"aX c #FEF5F3",
"sX c #F6FDF6",
"dX c #FEFBF4",
"fX c #FEF5FD",
"gX c #F4FEFD",
"hX c #FEFEFE",
"jX c #F6F5F8",
/* pixels */
"hXhXhXhXhXhXhXhXhXhXhXhXhXhXhXhXhXhXhXhXhXhXhXhXhXhXhXhXhXhXhXhXhXhXhXhXhXhXhXhXhXhXhXhXhXhXhXhXhXhXhXhXhXhXhXhXhXhXhXhX",
"hXhXhXhXhXhXhXhXhXhXhXhXhXhXhXhXhXhXhXhXhXhXhXhXhXhXhXhXhXhXhXhXhXhXhXhXhXhXhXhXhXhXhXhXhXhXhXhXhXhXhXhXhXhXhXhXhXhXhXhX",
"hXhXhXhXhXhXhXhXhXhXhXhXhXhXhXhXhXhXhXhXhXhXhXhXhXhXhXhXhXhXhXhXhXhXhXhXhXhXhXhXhXhXhXhXhXhXhXhXhXhXhXhXhXhXhXhXhXhXhXhX",
"hXhXhXhXhXhXhXhXhXhXhXhXhXhXhXhXhXhXhXhXhXhXhXhXhXhXhXhXhXhXhXhXhXhXhXhXhXhXhXhXhXhXhXhXhXhXhXhXhXhXhXhXhXhXhXhXhXhXhXhX",
"hXhXhXhXhXhXhXhXhXhXhXhXhXhXhXhXhXhXhXhXhXhXhXhXhXhXhXhXhXhXhXhXhXhXhXhXhXhXhXhXhXhXhXhXhXhXhXhXhXhXhXhXhXhXhXhXhXhXhXhX",
"hXhXhXhXhXhXhXhXhXhXhXhXhXhXhXhXhXhXhXhXhXhXhXhXhXhXhXhXhXhXhXhXhXhXhXhXhXhXhXhXhXhXhXhXhXhXhXhXhXhXhXhXhXhXhXhXhXhXhXhX",
"hXhXhXhXhXhXhXhXhXhXhXhXhXhXhXhXhXhXhXhXhXhXhXhXhXhXhXhXhXhXhXhXhXhXhXhXhXhXhXhXhXhXhXhXhXhXhXhXhXhXhXhXhXhXhXhXhXhXhXhX",
"hXhXhXhXhXhXhXhXhXhXhXhXhXhXhXhXhXhXhXhXhXhXhXhXhXhXhXhXhXhXhXhXhXhXhXhXhXhXhXhXhXhXhXhXhXhXhXhXhXhXhXhXhXhXhXhXhXhXhXhX",
"hXhXhXhXhXhXhXhXhXhXhXhXhXhXhXhXhXhXhXhXhXhXhXhXhXhXhXhXhXhXhXhXhXhXhXhXhXhXhXhXhXhXhXhXhXhXhXhXhXhXhXhXhXhXhXhXhXhXhXhX",
"hXhXhXhXhXhXhXhXhXhXhXhXhXhXhXhXhXhXhXhXhXhXhXhXhXhXhXhXhXhXhXhXhXhXhXhXhXhXhXhXhXhXhXhXhXhXhXhXhXhXhXhXhXhXhXhXhXhXhXhX",
"hXhXhXhXhXhXhXhXhXhXhXhXhXhXhXhXhXhXhXhXhXhXhXhXhXhXhXhXhXhXhXhXhXhXhXhXhXhXhXhXhXhXhXhXhXhXhXhXhXhXhXhXhXhXhXhXhXhXhXhX",
"hXhXhXhXhXhXhXhXhXhXhXhXhXhXhXhXhXhXhXhXhXhXhXhXhXhXhXhXhXhXhXhXhXhXhXhXhXhXhXhXhXhXhXhXhXhXhXhXhXhXhXhXhXhXhXhXhXhXhXhX",
"hXhXhXhXhXhXhXhXhXhXhXhXhXhXhXhXhXhXhXhXhXhXhXhXhXhXhXhXhXhXhXhXhXhXhXhXhXhXhXhXhXhXhXhXhXhXhXhXhXhXhXhXhXhXhXhXhXhXhXhX",
"hXhXhXhXhXhXhXhXhXhXhXhXhXhXhXhXhXhXhXhXhXhXhXhXhXhXhXhXhXhXhXhXhXhXhXhXhXhXhXhXhXhXhXhXhXhXhXhXhXhXhXhXhXhXhXhXhXhXhXhX",
"hXhXhXhXhXhXhXhXhXhXhXhXhXhXhXhXhXhXhXhXhXhXhXhXhXhXhXhXhXhXhXhXhXhXhXhXhXhXhXhXhXhXhXhXhXhXhXhXhXhXhXhXhXhXhXhXhXhXhXhX",
"hXhXhXhXhXhXhXhXhXhXhXhXhXhXhXhXhXhXhXhXhXhXhXhXhXhXhXhXhXhXhXhXhXhXhXhXhXhXhXhXhXhXhXhXhXhXhXhXhXhXhXhXhXhXhXhXhXhXhXhX",
"dXhXhXsXhXsXhXhXhXhXfXhXdXhXaXhXhXfXhXhXhXdXdXhXhXhXhXgXhXhXhXhXhXhXhXhXhXhXhXhXhXhXhXhXhXhXhXhXhXhXhXhXhXhXhXhXhXhXhXhX",
"hXhXhXhXsXsXhXhXhXhXgXhX#X#XhXhXhXhXhXsXdXhXhXsXhXdXhXhXhXhXhXhXhXhXhXhXhXhXhXhXhXhXhXhXhXhXhXhXhXhXhXhXhXhXhXhXhXhXhXhX",
"fXhXhXsXsXhXhXhXhXpXpX|.:X .sXdXfXhXhXhXhXdXhXhXhXhXhXhXhXhXhXhXhXhXhXhXhXhXhXhXhXhXhXhXhXhXhXhXhXhXhXhXhXhXhXhXhXhXhXhX",
"fXhXhXsXsXhXhXhXgXpX{.{.4X|.}.sXhXhXgXgXhXdXdXhXhXhXsXhXhXhXhXhXhXhXhXhXhXhXhXhXhXhXhXhXhXhXhXhXhXhXhXhXhXhXhXhXhXhXhXhX",
"fXfXhXgXsXhXhXhXhXXX XOX9XXX%.hXfXhXgXgXsXhXsXhXhXhXhXgXhXhXhXhXhXhXhXhXhXhXhXhXhXhXhXhXhXhXhXsXhXhXhXhXhXhXhXhXhXhXhXhX",
"hXhXhXhXsXhXhXfX=X(..X+X XXX%.%.hXaXsXgXgXhXhXhXhXhXgXhXhXfXhXhXhXhXhXhXhXhXhXhXhXhXhXhXhXhXhXhXhXhXhXhXhXhXhXhXhXhXhXhX",
"hXhXhXhXhXhXfXhX(.(.U.I.I.I.o.' fXhXsXgXhXgXhXfXhXhXgXhXhXhXhXhXhXhXhXhXhXhXhXhXhXhXhXhXhXhXhXhXhXhXhXhXhXhXhXhXhXhXhXhX",
"hXhXhXhXhXfXhXhXiXiXiXiXiXiXpX=.%XaXhXsXgXhXhXfXhXhXhXhXhXhXhXhXhXhXhXhXhXhXhXhXhXhXhXhXhXhXhXhXhXhXhXhXhXhXhXhXhXhXhXhX",
"gXhXhXhXdXfXhXgXgXpXpXpXpXgXgXhX} hXhXhXhXhXfXhXhXhXhXhXsXhXsXhXhXgXhXhXhXhXhXdXhXhXhXhXhXhXhXhXhXhXhXhXhXhXhXhXhXhXhXhX",
"sXhXhXhXhXhXgXhXhXsXgXhXgXhXsXhXl.z.dXaXhXhXhXhXjXhXhXhXhXhXhXhXhXhXjXhXhXhXhXfXhXhXhXhXhXhXhXhXhXhXhXhXhXhXhXhXhXhXhXhX",
"hXhXhXhXhXhXhXhXdXhXhXdXhXdXhXhXtX| dXfXhXhXdXfXhXdXdXaXsXsXgXhXhXhXhXhXjXjXhXdXhXhXhXhXhXhXhXhXhXhXhXhXhXhXhXhXhXhXhXhX",
"sXhXhXhXgXhXhXhXhXhXdXhXhXhXhXhXsXM.l.aXfXhXhXhXdXhXdXaXhXhXhXhXhXhXhXhXhXhXhXhXhXhXhXhXhXhXhXhXhXhXhXhXhXhXhXhXhXhXhXhX",
"hXsXhXhXhXhXhXhXhXhXfXhXhXhXfXhXhXtXj.dXhXfXhXhXdXdXr z.dXhXhXhXhXhXhXfXhXhXdXhXhXhXhXhXhXhXhXhXhXhXhXhXhXhXhXhXhXhXhXhX",
"hXhXhXhXhXhXhXhXhXfXhXhXhXhXhXhXsXdX*.j.dXhXhXdXdXp { p aXaXhXhXhXhXhXhXhX3 *.hXdXhXhXfXhXhXhXhXhXhXhXhXhXhXhXhXhXhXhXhX",
"hXhXhXhXhXhXhXhXhXhXhXhXhXhXhXdXsXsXfXj.fXhXsXdXdXe { w aXhXfXhXjXhXhXhX4 . l.hXfXhXhXhXhXhXhXhXhXhXhXhXhXhXhXhXhXhXhXhX",
"hXfXhXhXsXdXhXhXhXhXhXhXhXhXhXdXsXdXfX*.hXdXhXdXtXe { 6 dXhXhXfXhXjXhX3   < %.*XhXhXhXhXhXhXhXhXhXhXhXhXhXhXhXhXhXhXhXhX",
"hXhXhXgXhXhXhXhXhXhXhXhXfXhXhXhXsXhXfXhX} aXsXdXtXe a 6 aXhXfXhXhXfX*.  pXx Q.I.pXhXgXhXhXhXhXhXhXhXhXhXhXhXhXhXhXhXhXhX",
"fXhXhXgXsXdXdXfXfXhXgXhXfXhXhXsXhXfXhXfX[ hXgXhXdXe a 7 dXaXhXfXhXhXdXhXpXx W.Q.` fXhXsXhXhXhXhXhXhXhXhXhXhXhXhXhXhXhXhX",
"hXhXhXhXhXhXhXhXhXfXhXgXhXdXdXfXj.#.#.#.o.=.$XfXfXw s.y x.tXhXhXgXsXdXhXhXf T.~.7X+.fXhXhXhXfXhXhXhXhXhXhXhXhXhXhXhXhXhX",
"fXfXhXhXdXhXhXhXhXhXhXhXhXfXaXn.| O.O.s.k.[.].'.'.w u u 5 aXdXhXhXhXdXhXhXX.F.E.wX).Y hXaXhXfXhXhXhXhXhXhXhXhXhXhXhXhXhX",
"hXhXhXhXsXhXhXhXgXhXgXgXfXaXq.0 ,.,.>.,.5.e.[.3X@XE T q 5 fXdXhXhXhXdXhXhXhXj C 5XwX#.] hXhXhXjXhXhXhXhXhXhXhXhXhXhXhXhX",
"hXhXhXhXgXhXhXfXhXgXgXhXuXw.>.>.8.8.t.t.m.i.a.h.>X%XE { 5 aXdXhXhXhXhXsXhXfXR R S 5XwX8X%.pXgXhXhXhXhXhXhXhXhXhXhXhXhXhX",
"hXhXhXhXgXhXhXhXgXgXsXfXw.8.,.9.P L L L I t.d.s.@.=X'.| p.7 tXhXhXhXgXhXaXuX0.u.L S P.P._.) gXhXhXhXhXhXhXhXhXhXhXhXhXhX",
"sXhXhXhXhXhXhXhXhXsXhXfX9.8.7.P L k k k K 0 2.0.@.].).] a s tXhXdXdXhXfXfXv.1.r.y.k F.T.W.L.pXhXhXhXhXhXhXhXhXhXhXhXhXhX",
"hXsXhXhXhXhXhXfXdXdXaXh.7.I K n - X + + & L 0 7.R ^ ^.N e 6.u s.s.z.hXfXrXq 5.i.u.R C F.F.Z X.fXfXhXhXhXhXsXhXhXhXhXhXhX",
"sXhXfXhXhXhXfXdXdXtXtXv.I U b $ % : @ ; $ j L Q L ! J c n R i w i u fXfXb.;.1.r.e.8 h V f A c ).hXhXhXhXhXhXhXhXhXhXhXhX",
"hXhXhXhXhXhXhXhXdXdXtXk.8 fX# v z % ; % ; $ j W H.G A A C g j ^ s.T a.b.>.1.>.:.9 . % d d g F J sXhXhXhXhXhXsXhXhXhXhXhX",
"hXdXhXgXhXhXhXhXtXtXdXfXfXfX# v M &X7X(.; $ f H.H.H.F.G.G.F.A g l Y h.0 :.:.0 o * % b B d d g ` o.hXhXhXhXfXhXhXhXhXhXhX",
"hXhXsXhXgXhXhXhXhXdXhXhXhXhX+ % b ).7X^.; $ d F H.G.Y.`.`.!.W.K.F.A S R L ^ @.1 % M *X;X/ $ z ).$XhXhXhXsXjXhXhXhXhXhXhX",
"hXhXhXhXhXhXhXhXhXsXhXgXhXhX  = < ..o.M : $ M ` A K.~.Y.!.!.R.W.W.P.` S ! /.&X' % M }.;XM @ 3 &.-.hXhXhXhXhXhXhXhXhXhXhX",
"hXgXhXhXhXhXhXhXhXhXjXhXhXhXt . > % % b % : gXgX^.D J _ Z ( ( Z Z Z D D N o.=.b % m /  .: @ 3 hXhXfXhXhXhXhXhXhXhXhXhXhX",
"gXhXhXhXhXhXhXhXfXhXhXjXhXtXtX[ . = = -   hXdXdXhXfXfXhXgXhXgXgXhXgXhXhXfXfXdXfX1 . , @ < < hXhXhXsXhXhXhXfXhXhXhXhXhXhX",
"hXgXhXhXhXdXhXhXhXhXfXhXaXtXyXeXi 6 5 5 rXeXeXeXyXrXrXaXaXaXdXtXaXrXrXrXeXrXeXeXeXw o O , dXfXhXhXhXhXhXhXhXhXhXhXhXhXhX",
"hXhXhXhXhXhXhXhXhXhXhXfXtX%XC.B.c.g.g.g.c.N.V.V.N.N.V.V.N.N.V.V.V.c.V.Z.c.c.Z.c.N.x.M.M.tXdXfXhXhXhXhXhXhXhXhXhXhXhXhXhX",
"hXhXhXhXhXhXhXhXhXhXhXhXtXtX<X1XA.S.2XA.S.A.S.S.S.S.S.S.S.S.S.S.,X,X,X,X,X,X,X,X,X<XtXtXdXdXhXhXhXhXhXhXhXhXhXhXhXhXhXhX",
"hXgXfXhXdXhXhXhXhXgXhXhXdXdXyXyXeXqXqXqXeXqXeXeXqXeXeXyXeXeXqXeXdXtXtXrXyXyXyXrXeXtXaXdXhXhXhXhXhXhXhXhXhXhXhXhXhXhXhXhX",
"hXhXhXdXhXhXhXhXgXgXhXhXdXdXtXtXdXhXdXdXaXdXdXdXdXdXdXdXdXdXdXdXdXtXdXtXtXtXtXaXdXdXdXhXhXfXhXhXhXhXhXhXhXhXhXhXhXhXhXhX",
"fXhXhXhXhXdXhXhXhXgXgXhXsXdXdXdXhXhXfXgXhXhXhXhXhXhXhXhXfXhXhXhXdXhXdXsXdXhXdXdXdXhXfXhXhXhXhXgXhXhXhXhXhXhXhXhXhXhXhXhX",
"hXhXhXhXhXhXdXhXhXhXgXhXhXhXsXhXhXhXhXhXsXhXhXhXhXhXhXhXhXhXhXhXhXhXhXhXhXhXhXhXhXhXhXjXhXhXhXhXhXhXhXhXhXhXhXhXhXhXhXhX",
"hXhXhXhXhXdXhXhXhXgXhXgXhXjXhXhXhXhXhXhXhXhXfXhXhXhXhXhXhXhXhXhXhXhXhXhXhXhXhXhXhXgXhXhXgXhXhXhXhXhXhXhXhXhXhXhXhXhXhXhX",
"hXhXhXhXhXhXhXhXhXhXhXhXhXhXhXhXhXsXhXhXhXhXhXhXhXhXhXhXhXhXhXhXhXhXhXhXhXhXhXhXhXhXhXhXhXhXhXhXhXhXhXhXhXhXhXhXhXhXhXhX",
"hXhXhXhXhXhXhXhXhXhXhXhXhXhXhXhXhXhXhXhXhXhXhXhXhXhXhXhXhXhXfXhXhXhXhXhXhXhXhXhXhXgXhXhXhXdXhXdXhXhXhXhXhXhXhXhXhXhXhXhX",
"hXhXhXhXhXhXhXhXhXhXhXhXhXhXhXhXhXhXhXhXhXhXhXhXhXhXhXhXhXhXhXhXhXhXhXhXhXhXhXhXhXhXhXhXhXhXhXhXhXhXhXhXhXhXhXhXhXhXhXhX",
"gXhXgXhXhXhXhXhXhXhXhXhXhXfXhXhXhXhXhXhXhXhXhXhXfXdXhXhXhXhXhXhXhXfXhXhXhXhXhXhXhXhXhXhXhXdXhXsXhXhXhXhXhXhXhXhXhXhXhXhX"
};
