/* XPM */
static char *_773_109b9f6d76f902fffe234f440f64b4049cf07b14accd9d752339755cc107d100[] = {
/* columns rows colors chars-per-pixel */
"64 64 193 2 ",
"   c #010100",
".  c #020300",
"X  c #020301",
"o  c #040200",
"O  c #040300",
"+  c #040301",
"@  c #060302",
"#  c #070302",
"$  c #030400",
"%  c #020500",
"&  c #020502",
"*  c #050400",
"=  c #050500",
"-  c #040401",
";  c #050401",
":  c #060401",
">  c #040402",
",  c #050402",
"<  c #050503",
"1  c #060402",
"2  c #060502",
"3  c #060503",
"4  c #060602",
"5  c #030207",
"6  c #030405",
"7  c #020704",
"8  c #010406",
"9  c #020407",
"0  c #050404",
"q  c #040406",
"w  c #070707",
"e  c #0C0503",
"r  c #080704",
"t  c #090705",
"y  c #000800",
"u  c #070806",
"i  c #0B0906",
"p  c #03030E",
"a  c #06060E",
"s  c #08030B",
"d  c #060C0C",
"f  c #0D0C0B",
"g  c #130E07",
"h  c #210F04",
"j  c #2F1F0D",
"k  c #2E2A0E",
"l  c #2F2D0D",
"z  c #2C2C10",
"x  c #232321",
"c  c #2F2F2F",
"v  c #252B38",
"b  c #252B3A",
"n  c #272C3C",
"m  c #272D3C",
"M  c #272D3D",
"N  c #262E3D",
"B  c #292D3A",
"V  c #282D3B",
"C  c #282D3C",
"Z  c #282E3D",
"A  c #282C3E",
"S  c #58261B",
"D  c #56281B",
"F  c #6A290C",
"G  c #682C18",
"H  c #6F3514",
"J  c #3D434F",
"K  c #3E434E",
"L  c #3C444F",
"P  c #54534F",
"I  c #555553",
"U  c #505654",
"Y  c #6E564B",
"T  c #656666",
"R  c #666767",
"E  c DimGray",
"W  c #7B6A66",
"Q  c #767675",
"!  c #83511D",
"~  c #B74717",
"^  c #B2451A",
"/  c #B74718",
"(  c #B74619",
")  c #B64719",
"_  c #B5461B",
"`  c #B6471A",
"'  c #B5441D",
"]  c #B5461C",
"[  c #B6461C",
"{  c #B7461C",
"}  c #B6471C",
"|  c #B6471E",
" . c #B3481C",
".. c #B1491E",
"X. c #B3481E",
"o. c #B4481E",
"O. c #855123",
"+. c #AF4920",
"@. c #BC4121",
"#. c #AF5C28",
"$. c #EE631E",
"%. c #EF631E",
"&. c #F2631F",
"*. c #F1641D",
"=. c #F2641D",
"-. c #F2641F",
";. c #FB5D23",
":. c #EC6420",
">. c #ED6420",
",. c #EF6420",
"<. c #EC6522",
"1. c #F06521",
"2. c #E2972D",
"3. c #E38B32",
"4. c #E58B31",
"5. c #E78B32",
"6. c #E78E33",
"7. c #E28935",
"8. c #E88B33",
"9. c #E88A37",
"0. c #E98C34",
"q. c #E38838",
"w. c #E39830",
"e. c #DCAE34",
"r. c #D5B433",
"t. c #D5B434",
"y. c #F6C437",
"u. c #F9C538",
"i. c #F9C638",
"p. c #F8C43A",
"a. c #FAC140",
"s. c #7A838B",
"d. c #7A828E",
"f. c #808686",
"g. c #828787",
"h. c #858684",
"j. c #828788",
"k. c #8B8C8A",
"l. c #999DA1",
"z. c #A8A8A6",
"x. c #A6B3BA",
"c. c #B5B8B8",
"v. c #D1D4D3",
"b. c #D0D4D5",
"n. c #DFDFDD",
"m. c #D6E7E6",
"M. c #DFE3E5",
"N. c #DAE5E9",
"B. c #D9E6E8",
"V. c #DBEAE9",
"C. c #DCE9EB",
"Z. c #DEEBEB",
"A. c #DBEAEC",
"S. c #DBEAED",
"D. c #DBE9EF",
"F. c #DCE9EC",
"G. c #DCEAEC",
"H. c #DDEAED",
"J. c #DDE8EF",
"K. c #DCE9EF",
"L. c #DDEAEE",
"P. c #DFECEE",
"I. c #DCEAF0",
"U. c #F1F2EE",
"Y. c #E4F2F1",
"T. c #E9F3F2",
"R. c #ECF2F1",
"E. c #F1F1F1",
"W. c #F0F5F3",
"Q. c #F0F4F6",
"!. c #FDFDF0",
"~. c #F9F9F9",
"^. c #F9FAFA",
"/. c #FBFEFA",
"(. c #FEFEFA",
"). c #FEFFFB",
"_. c #F9FEFD",
"`. c #F9FFFF",
"'. c #FBFFFE",
"]. c #FBFFFF",
"[. c gray99",
"{. c #FCFDFD",
"}. c #FDFDFD",
"|. c #FFFFFD",
" X c #FCFDFF",
".X c #FEFDFE",
"XX c #FFFDFE",
"oX c #FDFEFF",
"OX c #FEFEFE",
"+X c #FEFEFF",
"@X c #FEFFFF",
"#X c white",
"$X c None",
/* pixels */
"$X$X$X$X$X$X$X$X$X$X$X$X$X$X$X$X$X$X$X$X$X$X$X$X$X$X$X$X$X$X$X$X$X$X$X$X$X$X$X$X$X$X$X$X$X$X$X$X$X$X$X$X$X$X$X$X$X$X$X$X$X$X$X$X",
"$X$X$X$X$X$X$X$X$X$X$X$X$X$X$X$X$X$X$X$X$X$X$X$X$X$X$X$X$X$X$X$X$X$X$X$X$X$X$X$X$X$X$X$X$X$X$X$X$X$X$X$X$X$X$X$X$X$X$X$X$X$X$X$X",
"$X$X$X$X$X$X$X$X$X$X$X$X$X$X$X$X$X$X$X$X$X$X$X$X$X$X$X$X$X$X$X$X$X$X$X$X$X$X$X$X$X$X$X$X$X$X$X$X$X$X$X$X$X$X$X$X$X$X$X$X$X$X$X$X",
"$X$X$X$X$X$X$X$X$X$X$X$X$X$X$X$X$X$X$X$X$X$X$X$X$X$X$X$X$X$X$X$X$X$X$X$X$X$X$X$X$X$X$X$X$X$X$X$X$X$X$X$X$X$X$X$X$X$X$X$X$X$X$X$X",
"$X$X$X$X$X$X$X$X$X$X$X$X$X$X$X$X$X$X$X$X$X$X$X$X$X$X$X$X$X$X$X$X$X$X$X$X$X$X$X$X$X$X$X$X$X$X$X$X$X$X$X$X$X$X$X$X$X$X$X$X$X$X$X$X",
"$X$X$X$X$X$X$X$X$X$X$X$X$X$X$X$X$X$X$X$X$X$X$X$X$X$X$X$X$X$X$X$X$X$X$X$X$X$X$X$X$X$X$X$X$X$X$X$X$X$X$X$X$X$X$X$X$X$X$X$X$X$X$X$X",
"$X$X$X$X$X$X$X$X$X$X$X$X$X$X$X$X$X$X$X$X$X$X$X$X$X$X$X$X$X$X$X$X$X$X$X$X$X$X$X$X$X$X$X$X$X$X$X$X$X$X$X$X$X$X$X$X$X$X$X$X$X$X$X$X",
"$X$X$X$X$X$X$X$X$X$X$X$X$X$X$X$X$X$X$X$X$X$X$X$X$X$X$X$X$X$X$X$X$X$X$X$X$X$X$X$X$X$X$X$X$X$X$X$X$X$X$X$X$X$X$X$X$X$X$X$X$X$X$X$X",
"$X$X$X$X$X$X$X$X$X$X$X$X$X$X$X$X$X$X$X$X$X$X$X$X$X$X$X$X$X$X$X$X$X$X$X$X$X$X$X$X$X$X$X$X$X$X$X$X$X$X$X$X$X$X$X$X$X$X$X$X$X$X$X$X",
"$X$X$X$X$X$X$X$X$X$X$X$X$X$X$X$X$X$X$X$X$X$X$X$X$X$X$X$X$X$X$X$X$X$X$X$X$X$X$X$X$X$X$X$X$X$X$X$X$X$X$X$X$X$X$X$X$X$X$X$X$X$X$X$X",
"$X$X$X$X$X$X$X$X$X$X$X$X$X$X$X$X$X$X$X$X$X$X$X$X$X$X$X$X$X$X$X$X$X$X$X$X$X$X$X$X$X$X$X$X$X$X$X$X$X$X$X$X$X$X$X$X$X$X$X$X$X$X$X$X",
"$X$X$X$X$X$X$X$X$X$X$X$X$X$X$X$X$X$X$Xb.$X$X$X$X$X$X$X$X$X$X$X$X$X$X$X$X$X$X$X$X$X$X$X$X$X$X$X$X$X$X$X$X$X$X$X$X$X$X$X$X$X$X$X$X",
"$X$X$X$X$X$X$X$X$X$X$X$X$X$X$X$X$X$X$X; ; ; ; ; ; E $X$X$X$X$X$X$X$X$X$X$X$X$X$X$X$X$X$X$X$X$X$X$X$X$X$X$X$X$X$X$X$X$X$X$X$X$X$X",
"$X$X$X$X$X$X$X$X$X$X$X$X$X$X$X$X$X$X$XF F F F F F Y h.h.$X$X$X$X$X$X$X$X$X$X$X$X$X$X$X$X$X$X$X$X$X$X$X$X$X$X$X$X$X$X$X$X$X$X$X$X",
"$X$X$X$X$X$X$X$X$X$X$X$X$X$X$X$Xu ; 7 &.&.&.&.&.&.H ; ; $X$X$X$X$X$X$X$X$X$X$X$X$X$X$X$X$X$X$X$X$X$X$X$X$X$X$X$X$X$X$X$X$X$X$X$X",
"$X$X$X$X$X$X$X$X$X$X$X$X$X$X$X$Xu ; 4 ,.&.&.&.&.&.H ; ; $X$X$X$X$X$X$X$X$X$X$X$X$X$X$X$X$X$X$X$X$X$X$X$X$X$X$X$X$X$X$X$X$X$X$X$X",
"$X$X$X$X$X$X$X$X$X$X$X$X$X$X$X$Xu ; 7 &.=.&.&.&.&.H ; ; $X$X$X$X$X$X$X$X$X$X$X$X$X$X$X$X$X$X$X$X$X$X$X$X$X$X$X$X$X$X$X$X$X$X$X$X",
"$X$X$X$X$X$X$X$X$X$X$X$X$X$X$ ; 2 ; e { / =.,.) ` S ; O ; ; $X$X$X$X$X$X$X$X$X$X$X$X$X$X$X$X$X$X$X$X$X$X$X$X$X$X$X$X$X$X$X$X$X$X",
"$X$X$X$X$X$X$X$X$X$X$X$X$X$X$ ; 2 ; e [ ) =.,.) [ D ; O ; ; $X$X$X$X$X$X$X$X$X$X$X$X$X$X$X$X$X$X$X$X$X$X$X$X$X$X$X$X$X$X$X$X$X$X",
"$X$X$X$X$X$X$X$X$X$X$X$X; ; ^ [ } [ _ [ [ ) ( <.-.1.&.,.&.&.; ; $X$X$X$X$X$X$X$X$X$X$X$X$X$X$X$X$X$X$X$X$X$X$X$X$X$X$X$X$X$X$X$X",
"$X$X$X$X$X$X$X$X$X$X$X$X; ; ^ [ } [ @. .X.~ ~ ;.,.1.,.,.,.,.; ; $X$X$X$X$X$X$X$X$X$X$X$X$X$X$X$X$X$X$X$X$X$X$X$X$X$X$X$X$X$X$X$X",
"$X$X$X$X$X$X$X$X$X$X$X$X; ; ^ [ } [ ..#X#X; ; *.-.1.&.,.&.&.; ; $X$X$X$X$X$X$X$X$X$X$X$X$X$X$X$X$X$X$X$X$X$X$X$X$X$X$X$X$X$X$X$X",
"$X$X$X$X$X$X$X$X$X$X$X$X; ; o.] | | +.#X#Xt t %.:.1.>.$.:.:.2 $X$X$X$X$X$X$X$X$X$X$X$X$X$X$X$X$X$X$X$X$X$X$X$X$X$X$X$X$X$X$X$X$X",
"$X$X$X$X$X$X$X< ; ; ; ; ; ; , ; ~.#XOX#X#X#X#X; ; G [ ' ; ; $X$X$X$X$X$X$X$X$X$X$X$X$X$X$X$X$X$X$X$X$X$X$X$X$X$X$X$X$X$X$X$X$X$X",
"$X$X$X$X$X$X$X< ; s t.r.r.t.e.r.!.#XOX#X#Xx x n.n.W g h c.c.$X$X$X$X$X$X$X$X$X$X$X$X$X$X$X$X$X$X$X$X$X$X$X$X$X$X$X$X$X$X$X$X$X$X",
"$X$X$X$X$X$X$X< ; y p.p.p.p.u.p.(.#XOX#X#X; , #X#XQ ; ; $X$X$X$X$X$X$X$X$X$X$X$X$X$X$X$X$X$X$X$X$X$X$X$X$X$X$X$X$X$X$X$X$X$X$X$X",
"$X$X$X$X$X$X$X$X$X$XO o p.p.u.p.(.#XOX#X#X#X#X#X#X}.#X[.O O $X$X$X$X$X$X$X$X$X$X$X$X$X$X$X$X$X$X$X$X$X$X$X$X$X$X$X$X$X$X$X$X$X$X",
"$X$X$X$X$X$X$X$X$X$X; o p.p.u.p.(.#XOX#X#X#X#X#X#X}.#X[.; ; $X$X$X$X$X$X$X$X$X$X$X$X$X$X$X$X$X$X$X$X$X$X$X$X$X$X$X$X$X$X$X$X$X$X",
"$X$X$X$X$X$X$X$X$X$X$X$X; ; , ; ~.#XOX#X#X#X#X#X#X}.#X#X#X#X; ; $X$X$X$X$X$X$X$X$X$X$X$X$X$X$X$X$X$X$X$X$X$X$X$X$X$X$X$X$X$X$X$X",
"$X$X$X$X$X$X$X$X$X$X$X$X; ; % # ^.#XOX#X#X#X#X#X+X}.#X#X#X#X= = $X$X$X$X$X$X$X$X$X$X$X$X$X$X$X$X$X$X$X$X$X$X$X$X$X$X$X$X$X$X$X$X",
"$X$X$X$X$X$X$X$X$X$X$X$X; ; I.K.oX#XOX#X#X#X#Xm M l.#X#X#X#X#X#X; ; z.$X$X$X$X$X$X@ ; ; ; ; ; ; ; ; ; ; ; ; ; ; ; $X$X$X$X$X$X$X",
"$X$X$X$X$X$X$X$X$X$X$X$X; ; I.K.oX#XOX#X#X#X#Xm M l.#X#X#X#X#X#X; ; z.$X$X$X$X$X$X@ ; ; ; ; ; ; ; ; ; ; ; ; ; ; ; $X$X$X$X$X$X$X",
"$X$X$X$X$X$X$X$X$X$X$X$X; ; I.K.oX#XOX#X#XM M ).#X}.#X#X#X#X#X#X#X#Xc ; o $X$X; ; #X#X#X#X#X#X#X#X#X#X#X#X#X#X; ; $X$X$X$X$X$X$X",
"$X$X$X$X$X$X$X$X$X$X$X$X; ; I.K.oX#XOX#X#XM M ).#X}.#X#X#X#X#X#X#X#Xc > 1 v.$X6 & ].`.`.`.`.`.`.`.`.`.`.@X#X#X; ; $X$X$X$X$X$X$X",
"$X$X$X$X$X$X$X$X$X$X$X$X; ; I.K.oX#XOX#X#XM M ).#X}.#X#X#X#X#X#X#X#X}.#X.X; , C.K.K.K.K.K.K.K.K.K.K.K.K.Z.#X#X; ; $X$X$X$X$X$X$X",
"$X$X$X$X$X$X$X$X$X$X$X$XO O I.K. XOXOXOX}.b b /.OX}.OX}.OXOXOXOXOXOX[.OXOX}.}.n n G.K.K.K.K.K.K.K.K.K.K.Z.OXOX+ O $X$X$X$X$X$X$X",
"$X$X$X$X$X$X$X$X$X$X$X$X; ; I.K.oX#XOX#X#XM M ).#X}.#X#X#X#X#X#X#X#X}.#X#X#X#XM M H.K.K.K.K.K.K.K.K.K.K.Z.#X#X; ; $X$X$X$X$X$X$X",
"$X$X$X$X$X$X$X$X$X$X$X$X; ; I.K.oX#XOX#X#XM M ).#X}.#X#X#X#X#X#X#X#X}.#X#X#X#X+X+Xb M K K.K.K.K.K.K.K.K.Z.#X#X; ; $X$X$X$X$X$X$X",
"$X$X$X$X$X$X$X$X$X$X$X$X; ; I.K.oX#XOX#X#Xm m ).#X}.#X#X#X#X#X#X#X#X}.#X#X#X#X#X#Xv m J K.K.K.K.K.K.K.K.Z.#X#X; ; $X$X$X$X$X$X$X",
"$X$X$X$X$X$X$X$X$X$X$X$X; ; I.K.oX#XOX#X@XK.K.C M l.#X#X#X#X#X#X#X#X}.#X#X#X#X#X#X#X#XM.M M K.K.K.K.K.K.Z.#X#X; ; $X$X$X$X$X$X$X",
"$X$X$X$X$X$X$X$X$X$X$X$X; ; I.K.oX#XOX#X@XK.K.A M l.#X#X#X#X#X#X#X#X}.#X#X#X#X#X#X#X#XM.M M K.K.K.K.K.K.Z.#X#X; ; $X$X$X$X$X$X$X",
"$X$X$X$X$X$X$X$X$X$X$X$X; ; I.K.K.K.N.#X#X#X#XS.K.s.M B #X#X#X#X#X#X}.#X#X#X#XM M M M J K.K.K.K.K.K.{.#XU.; ; $X$X$X$X$X$X$X$X$X",
"$X$X$X$X$X$X$X$X$X$X$X$X; ; L.D.S.A.m.#X#X#X#XV.A.d.N V #X#X#X#X#X#X[.#X|.#X#XN N N N L K.K.K.K.A.A.'.#XE.; : $X$X$X$X$X$X$X$X$X",
"$X$X$X$X$X$X$X$X$X$X$X$X$X$X$ ; ~.#X_.K.F.#X#X#X#XT.K.B.M M M M M M Z M M M M K.K.K.K.K.K.K.K.K.#X#Xr ; f $X$X$X$X$X$X$X$X$X$X$X",
"$X$X$X$X$X$X$X$X$X$X$X$X$X$Xg.f.I P U W.Q.Y.Y.Y.Y.P.K.J.x.x.x.x.x.x.x.x.x.x.x.K.K.K.K.K.K.K.W.W.P P f.f.j.$X$X$X$X$X$X$X$X$X$X$X",
"$X$X$X$X$X$X$X$X$X$X$X$X$X$X$X$Xu ; w #X@XK.K.K.K.K.K.K.K.K.K.K.K.K.K.K.K.K.K.K.K.K.K.K.K.K.#X#X; ; $X$X$X$X$X$X$X$X$X$X$X$X$X$X",
"$X$X$X$X$X$X$X$X$X$X$X$X$X$X$X$X$X$X$X  . #X#X#X#XR.K.K.K.K.K.K.K.K.K.K.K.K.K.K.K.XX#X#X#X#X    $X$X$X$X$X$X$X$X$X$X$X$X$X$X$X$X",
"$X$X$X$X$X$X$X$X$X$X$X$X$X$X$X$X$X$X$X; = #X#X#X#XT.K.K.K.K.K.K.K.K.K.K.K.K.K.K.K.[.#X#X#X#X; ; $X$X$X$X$X$X$X$X$X$X$X$X$X$X$X$X",
"$X$X$X$X$X$X$X$X$X$X$X$X$X$X$X$X$X$X$X$X$X; ; ; ; k.#X#X#X#X#X#X#X#X}.#X#X#X#X#X#XX ; ; ; ; $X$X$X$X$X$X$X$X$X$X$X$X$X$X$X$X$X$X",
"$X$X$X$X$X$X$X$X$X$X$X$X$X$X$X$X$X$X$X$X$X; ; ; ; k.#X#X#X#X#X#X#X#X}.#X#X#X#X#X#XX ; ; ; ; $X$X$X$X$X$X$X$X$X$X$X$X$X$X$X$X$X$X",
"$X$X$X$X$X$X$X$X$X$X$X$X$X$X$X$X$X$X$X$X$X$X$X$X$XR ; O ; ; ; ; ; ; i ; ; ; ; , ; $X$X$X$X$X$X$X$X$X$X$X$X$X$X$X$X$X$X$X$X$X$X$X",
"$X$X$X$X$X$X$X$X$X$X$X$X$X$X$X$X$X$X$X$X$X$X$X$X$XR ; 5 9 9 ; ; 0 0 d ; ; ; ; ; ; $X$X$X$X$X$X$X$X$X$X$X$X$X$X$X$X$X$X$X$X$X$X$X",
"$X$X$X$X$X$X$X$X$X$X$X$X$X$X$X$X$X$X$X$X$X$X$X$X$XR ; p 9.9.; ; p.p.k ; o $X$X$X$X$X$X$X$X$X$X$X$X$X$X$X$X$X$X$X$X$X$X$X$X$X$X$X",
"$X$X$X$X$X$X$X$X$X$X$X$X$X$X$X$X$X$X$X$X$X$X$X$X$XR 2 a q.q.3 2 a.a.l 2 1 $X$X$X$X$X$X$X$X$X$X$X$X$X$X$X$X$X$X$X$X$X$X$X$X$X$X$X",
"$X$X$X$X$X$X$X$X$X$X$X$X$X$X$X$X$X$X$X$X$X$X$X$X$XR ; 8 #.#.; ; 9.9.j ; o $X$X$X$X$X$X$X$X$X$X$X$X$X$X$X$X$X$X$X$X$X$X$X$X$X$X$X",
"$X$X$X$X$X$X$X$X$X$X$X$X$X$X$X$X$X$X$X$X$X$X$X$X$XT ; q 4.4.; ; y.y.z ; o $X$X$X$X$X$X$X$X$X$X$X$X$X$X$X$X$X$X$X$X$X$X$X$X$X$X$X",
"$X$X$X$X$X$X$X$X$X$X$X$X$X$X$X$X$X$X$X$X$X$X$X$X$XR ; p 9.9.; ; p.p.k ; o $X$X$X$X$X$X$X$X$X$X$X$X$X$X$X$X$X$X$X$X$X$X$X$X$X$X$X",
"$X$X$X$X$X$X$X$X$X$X$X$X$X$X$X$X$X$X$X$X$X$X$X- * O.0.7.O O i.i.p.p.w.0.6.* * $X$X$X$X$X$X$X$X$X$X$X$X$X$X$X$X$X$X$X$X$X$X$X$X$X",
"$X$X$X$X$X$X$X$X$X$X$X$X$X$X$X$X$X$X$X$X$X$X$X, ; ! 8.3.; ; p.p.p.p.2.8.5.; ; $X$X$X$X$X$X$X$X$X$X$X$X$X$X$X$X$X$X$X$X$X$X$X$X$X",
"$X$X$X$X$X$X$X$X$X$X$X$X$X$X$X$X$X$X$X$X$X$X$X$X$X$X$X$X$X$X$X$X$X$X$X$X$X$X$X$X$X$X$X$X$X$X$X$X$X$X$X$X$X$X$X$X$X$X$X$X$X$X$X$X",
"$X$X$X$X$X$X$X$X$X$X$X$X$X$X$X$X$X$X$X$X$X$X$X$X$X$X$X$X$X$X$X$X$X$X$X$X$X$X$X$X$X$X$X$X$X$X$X$X$X$X$X$X$X$X$X$X$X$X$X$X$X$X$X$X",
"$X$X$X$X$X$X$X$X$X$X$X$X$X$X$X$X$X$X$X$X$X$X$X$X$X$X$X$X$X$X$X$X$X$X$X$X$X$X$X$X$X$X$X$X$X$X$X$X$X$X$X$X$X$X$X$X$X$X$X$X$X$X$X$X",
"$X$X$X$X$X$X$X$X$X$X$X$X$X$X$X$X$X$X$X$X$X$X$X$X$X$X$X$X$X$X$X$X$X$X$X$X$X$X$X$X$X$X$X$X$X$X$X$X$X$X$X$X$X$X$X$X$X$X$X$X$X$X$X$X",
"$X$X$X$X$X$X$X$X$X$X$X$X$X$X$X$X$X$X$X$X$X$X$X$X$X$X$X$X$X$X$X$X$X$X$X$X$X$X$X$X$X$X$X$X$X$X$X$X$X$X$X$X$X$X$X$X$X$X$X$X$X$X$X$X"
};
