/* XPM */
static char *_412_bedb974068012c6916c002de0830479b792eb01cdbe7874f3c0ad60900404e0e[] = {
/* columns rows colors chars-per-pixel */
"64 64 167 2 ",
"   c #35251A",
".  c #3D2A1E",
"X  c #422F1F",
"o  c #462F20",
"O  c #4D3725",
"+  c #47372B",
"@  c #483628",
"#  c #49392D",
"$  c #543E2A",
"%  c #4C3B30",
"&  c #5B432D",
"*  c #564332",
"=  c #594534",
"-  c #5C4739",
";  c #5D4A3A",
":  c #684E37",
">  c #634E3B",
",  c #65513E",
"<  c #6A523D",
"1  c #765A3F",
"2  c #655141",
"3  c #6A5542",
"4  c #6E5947",
"5  c #6C5B4C",
"6  c #735B45",
"7  c #7A5E44",
"8  c #745E4B",
"9  c #795F50",
"0  c #6F604F",
"q  c #7C6146",
"w  c #75614E",
"e  c #7C644C",
"r  c #7F684F",
"t  c #766352",
"y  c #7B6552",
"u  c #7D6954",
"i  c #77695A",
"p  c #7E6C5A",
"a  c #FE722B",
"s  c #82664A",
"d  c #85684B",
"f  c #886B4D",
"g  c #816751",
"h  c #836C55",
"j  c #896F52",
"k  c #836E5A",
"l  c #896E58",
"z  c #877057",
"x  c #8C7255",
"c  c #86705B",
"v  c #8B745D",
"b  c #8F795E",
"n  c #907559",
"m  c #92795D",
"M  c #997D5F",
"N  c #806E60",
"B  c #867362",
"V  c #8B7661",
"C  c #8D7A65",
"Z  c #8C7D6C",
"A  c #937C64",
"S  c #997E63",
"D  c #947F6B",
"F  c #978066",
"G  c #9C8265",
"H  c #948A62",
"J  c #97826C",
"K  c #9C846C",
"L  c #938374",
"P  c #9B8671",
"I  c #9D8972",
"U  c #9E8E7D",
"Y  c #A38767",
"T  c #A3876D",
"R  c #A48B6D",
"E  c #A88D6F",
"W  c #A08670",
"Q  c #A38C73",
"!  c #A88E72",
"~  c #A28E7B",
"^  c #A79173",
"/  c #AC9273",
"(  c #A6927A",
")  c #AC957B",
"_  c #A09E7C",
"`  c #AE997F",
"'  c #B29775",
"]  c #B99B77",
"[  c #B1967B",
"{  c #B49B7D",
"}  c #BA9F7F",
"|  c #A7A27C",
" . c #BCA17E",
".. c #A29281",
"X. c #A99781",
"o. c #AE9A82",
"O. c #AF9B89",
"+. c #B49D83",
"@. c #B99E83",
"#. c #B19F8A",
"$. c #B4A084",
"%. c #BCA284",
"&. c #B5A28B",
"*. c #BAA58B",
"=. c #BEA98C",
"-. c #A4B489",
";. c #BCA791",
":. c #BDA991",
">. c #C1A685",
",. c #C0A688",
"<. c #C4AB8C",
"1. c #C9AE8E",
"2. c #CFB08F",
"3. c #C4AD93",
"4. c #CDAF90",
"5. c #C6B195",
"6. c #CBB294",
"7. c #CFBA97",
"8. c #C5B39A",
"9. c #CCB59A",
"0. c #CEB99C",
"q. c #D0B697",
"w. c #D3B896",
"e. c #D1B79A",
"r. c #D4BB9C",
"t. c #D8BE9D",
"y. c #CBB7A0",
"u. c #CDBBA2",
"i. c #D4BEA2",
"p. c #D9BFA1",
"a. c #D6C09F",
"s. c #DAC09F",
"d. c #D6C1A4",
"f. c #DCC4A4",
"g. c #DFC8A6",
"h. c #D5C3AB",
"j. c #DCC6AA",
"k. c #D6C8AD",
"l. c #DEC9AB",
"z. c #DECCB1",
"x. c #E0C7A6",
"c. c #E2C9A7",
"v. c #E0C7A9",
"b. c #E3CCAC",
"n. c #E8CFAE",
"m. c #E6D0AF",
"M. c #EAD0AE",
"N. c #E4CEB1",
"B. c #E8CFB1",
"V. c #E6D1B3",
"C. c #E9D3B4",
"Z. c #EFD8B7",
"A. c #E5D5BA",
"S. c #EAD6BA",
"D. c #E7D8BD",
"F. c #ECD9BC",
"G. c #F0D7B5",
"H. c #F0DAB7",
"J. c #F1DCBD",
"K. c #EDDDC2",
"L. c #E8DDC8",
"P. c #F1DEC3",
"I. c #F4E1C5",
"U. c #F3E3CA",
"Y. c #F7E8CE",
"T. c #FCE9CE",
"R. c #FAECD0",
/* pixels */
"r.6.r.b.V.V.C.V.c.K.S.C.C.N.g.w.K   R R V.Z.C.S.N.V.V.c.a.V.m.m.7.q.<.6.@.9.C.C.z.A.S.l.b.j.j.i.A.A A N.g.l.e.A.j.f.z.z.N.e.3.9.",
"6.w.t.V.g.g.S.S.F.A.S.C.C.F.C.g.G p ` o.K =.C.J.C.C.V.N.l.V.f.a.f.f.9.e.i.j.A.z.C.z.A.V.t.8.6.r.f.q A j.l.V.k.h.p.O.i.v.j.N.6.8.",
"f.t.6.c.a.t.V.F.K.S.S.J.J.F.F.2.q 8.Z.Z.d.K ^ 7.C.F.C.c.V.l.g.a.w.r.g.N.c.i.k.L.A.f.z.N.e.i.h.9.e.1 S f.g.A.z.h.N.9.y.A.A.A.8.3.",
"s.f.c.b.b.m.V.C.N.b.C.S.C.V.Z.w.q g.V.V.b.C.d.( ) I 7.C.m.m.b.g.r.0.g.z.l.j.z.d.g.r.V.c.f.g.j.9.f.c v r.V.A.V.N.i.9.i.N.A.A.j.9.",
"b.g.c.s.g.g.C.V.C.C.M.Z.Z.Z.m.' 2 V.F.Z.D.m.Z.m.f.e.v ) <.f.c.0.V.V.f.6.L.A.L.A.V.l.d.g.b.i.p.9.l.A 3 b.m.C.S.b.f.5.;.0.y.z.h.i.",
"b.b.c.f.s.g.C.V.A.Z.M.Z.C.C.c.' 2 V.Z.D.C.m.A.A.f.i.v ) <.f.c.a.S.C.f.7.A.z.L.A.C.l.s.f.b.t.i.8.b.A < b.N.C.F.g.h.3.;.0.i.l.f.d.",
"N.b.w.b.b.b.H.Z.g.| s.H.H.M.H.n p F.D.F.J.m.c.b.b.c.r.8.v u ) f.C.C.b.z.D.A.z.K.D.b.z.b.M.c.c.r.N.+.: a.F.C.F.m.C.i.7.h.h.r.e.f.",
"g.d.s.r.<.<.1.^ ( r.H Y <.a.=.0 6.C.F.F.m.m.m.A.A.V.l.V.b.0.C I C.C.D.l.g.V.D.d.V.K.F.F.C.r.r.f.s.1.& %.g.%. .] %.r.6.f.f.6.h.f.",
"K z p Z o.+.+.=.D.J.m.t.) j w r.m.D.m.V.m.m.V.V.J.D.m.D.D.C.l.J +.{ D.b.C.V.9.7.N.S.b.C.N.r.e. .6 k k g k J V u : w s m m s Y S ",
"A.i.i.S.C.C.S.C.m.V.b.x.M.x Q m.V.A.V.V.C.m.m.A.D.C.g.A.m.V.m.z.p c ) F.V.l.*.3.l.g.V.z.F.f.f.v :.d.j.h.z.b.N.r.5.3.X.3.3.+.8 4 ",
"r.1.N.b.b.b.C.C.F.C.V.b.m.8 C F.V.C.C.C.A.V.C.b.C.A.l.g.l.m.g.F.D.D.w F F.F.d.e.V.l.V.l.d.h h ~ S.9.h.V.f.f.V.V.C.b.i.i.i.p.X.> ",
"t.<.p.V.B.b.M.V.F.J.S.C.C.( v c.m.m.m.V.C.b.V.b.g.m.l.f.b.b.l.K.9.8.#.v A V.K.V.V.P.F.k.u U U j.N.7.u.N.l.z.l.b.b.C.g.j.v.K.~ $ ",
"S.t.4.d.V.V.F.F.C.F.Z.M.H.E { c.b.m.c.c.C.V.V.b.m.a.d.l.C.A.V.l.&.&.V.V.J z a.C.D.D.g.u ..N.A.v.V.d.3.V.N.V.A.d.j.v.j.9.y.i.) : ",
"c.g.e.d.V.M.V.F.C.F.C.m.g.w d.C.m.C.C.C.C.m.V.C.l.7.g.D.F.F.f.` z.V.C.m.A.$.w +.g.f.A O.n.V.B.N.V.z.*.F.A.F.F.A.N.b.e.3.3.1.g 2 ",
"c.x.e.f.V.V.C.F.F.C.C.C.g.0 i.C.V.V.C.C.C.V.V.V.l.7.g.A.A.F.j.o.A.A.V.m.S.$.w } g.g.A O.B.C.N.N.V.z.*.F.F.F.A.A.N.N.i.3.3.<.h 2 ",
"9.p.t.f.l.b.V.C.C.C.V.C.7.% d.M.C.C.C.C.V.V.m.m.V.d.F.A.5.I ( u.A.C.d.V.b.F.h.t x w L j.f.S.F.J.F.F.$.F.F.L.N.K.b.N.N.v.v.e.3 T ",
"e.j.b.f.N.N.S.S.F.C.f.c.r.# h.C.V.V.Z.F.m.g.V.b.N.i.&.P &.f.b.N.r.r.i.F.A.D.C.c.^ y b.b.N.N.z.i.C.C.*.j.V.F.V.f.d.j.V.N.b.V.o.u ",
"9.j.A.l.S.S.P.F.U.F.j.0.8.; h b.C.V.F.F.C.c.z.b.i.X.y.K.V.l.V.g.j.f.z.A.g.A.F.b.J P B.p.V.V.A.i.l.J.5.8.h.h.h.f.d.d.l.N.N.l.g.*.",
",.e.g.A.K.K.P.f.u.0.u.V.K.0.X &.7.{ ^ R *.6.g.a.Q y.K.F.V.N.l.V.r.t.i.N.D.A.F.m.v :.N.g.h.V.N.S.F.U.5.h.I.F.K.V.g.z.l.d.h.N.i.j.",
"e.+.3.l.0.e.;.h.N.F.I.F.K.Z.p z &.5.&.&.U P c ^ N.C.S.V.V.V.N.g.f.d.9.A.D.V.V.V.c l.j.h.V.b.N.S.U.U.+.d.F.K.K.K.m.l.h.S.S.f.A 0.",
"b.i.8.=.8.8.A.N.F.F.I.F.F.C.V.c i.C.V.C.M.V.f.K f.t.f.g.c.b.r.r.j.g.j.l.f.V.C.F.h i.V.4.f.F.F.F.F.C.[ g.L.F.b.K.S.c.b.c.g.u h +.",
"N.h.b.N.z.z.K.N.F.K.F.F.C.F.F.I ! c.V.N.m.C.C.5.) c.b.g.f.r.4.e.f.h.b.f.N.N.C.K.v &.S.K.j.V.V.P.K.5.:.K.P.l.S.F.V.V.b.e e p l.j.",
"F.K.z.e.K.P.K.S.V.V.F.F.C.V.m.R [ n.c.c.C.m.b.m.R d.c.f.7.1.e.v.l.l.N.N.F.S.I.J.P ( C.b.b.C.C.C.I.) z.F.F.z.F.F.A.F.} p h l.V.N.",
"F.K.N.u.P.P.F.F.C.C.F.F.V.C.V.R [ b.v.v.C.N.N.m.W f.c.f.q.1.e.v.z.z.N.z.F.S.P.P.P ( C.l.V.C.A.F.K.` z.D.A.j.A.F.V.F.{ h p c.V.N.",
"S.A.h.r.V.V.l.F.F.K.F.I.Z.C.C.w.S c.b.b.N.B.C.B.) ,.w.{ %.@.@.1.9.9.7.3.f.>.%.%.c w %.%.2.6.6.f.l.) A.K.K.A.K.K.P.i.3 i.u.C.S.v.",
"C.C.N.p.z.V.A.D.D.F.J.C.F.F.C.C.! q.N.B.N.B.S.F.J A l D @.,.! A ( ( V 4 6 h V D $.W y g A 7 q W u.d.f.F.A.A.U.R.5.8 #.z.N.N.N.S.",
"F.V.N.A.l.l.V.P.F.C.C.C.C.H.m.F.9.{ b.b.S.G.b.A N 4.p.v.e.w.v.j.b.b.b.0.l.f.b.g.V.V.g.d.b.r r ` S.V.V.D.F.U.I.$.t 3.u.A.V.F.K.F.",
"P.F.C.l.j.j.C.C.D.V.F.F.F.S.S.M.c.S t.t.G.p.h Q v.e.x.r.w.u.N.i.f.f.N.V.L.L.C.N.t.j.f.b.M.b v 3 b.F.I.K.K.k.c Q z.N.K.K.K.A.L.V.",
"N.N.x.f.z.N.C.B.C.C.F.F.C.F.F.n.b.r. .%.c.l @.C.b.f.r.p.b.p.v.j.b.c.f.V.z.f.V.b.f.p.f.t.f.3.5.- { a m.F.h.V u.U.K.F.F.A.F.A.h.V.",
"C.v.7.f.N.b.N.c.m.A.F.F.F.C.Z.F.C.c.[ { K Q n.c.b.r.f.f.p.t.N.S.C.C.9.8.9.f.g.b.N.g.g.l.f.t.f.{ , *.H.F.k h.Y.K.K.F.F.L.A.l.N.F.",
"M.x.w.2.b.b.j.C.F.F.C.F.K.M.C.H.w.R d d T C.N.x.S.N.B.N.N.b.j.j.B.C.8.z.V.f.N.K.A.V.F.S.f.c.c.b.R > G f ~ T.U.K.K.F.K.F.K.C.V.l.",
"F.C.x.7.l.b.j.h.l.F.F.C.V.F.M.m O % S A D 3.G.x.S.b.S.S.b.p.N.N.P.P.8.S.V.b.D.K.V.N.V.b.b.f.f.C.z 3 e e n ' j.K.K.K.K.S.F.i.g.b.",
"G.C.x.e.v.v.j.j.b.J.F.C.C.C.n.m @ % A A J 3.C.v.F.b.N.S.j.f.V.N.P.P.8.A.A.b.F.P.z.V.C.l.b.g.c.m.v 3 u e n ' g.K.K.K.F.F.S.p.j.b.",
"G.c.p.p.t.t.b.N.h.8.V.C.C.<.*   D p.n.b.i.5 p.S.F.N.z.N.C.t.c.b.f.f.8.F.f.m.u.k.F.A.C.f.V.F.F.[ ; g.b.6.I 6 f z.P.F.S.V.C.r.p.b.",
"w.4.q.p.b.c.c.c.C.r.*.H.H.M 4 +.b.B.b.b.C.+.9 h.P.S.f.b.V.N.i.b.=.=.) f.w.*.h.D.z.f.g.f.F.b.n.h #.F.V.Z.F.9.< Y r.C.C.N.N.v.g.N.",
"4.2.<.6.N.B.n.B.m.M.=.E / l r.n.b.B.C.C.F.H.y.D ;.S.f.N.N.N.g.g.I Q 3.<.+.u.K.D.D.V.V.C.=., , p l.V.S.C.A.C.%.w 7 %.b.V.N.V.z.N.",
"f.t.4.p.f.x.c.n.C.G.m o # T f.C.B.b.N.B.F.C.P.i.D p j.v.v.r.C.;.u.u.C.F.F.k.z.C.C.b.I.0.* ( ( V.F.D.F.V.V.V.I.N.I < Y g.c.b.b.b.",
"n.x.c.B.b.N.B.C.6.x * / 1./ p.F.C.b.b.b.V.K.L.S.P.o.V 9.b.w.f.#.F.F.C.F.D.C.D.z.b.z.7.; *.V.V.r.C.m.A.C.b.A.F.S.C.+.7 <.<.N.p.N.",
"9 @.4.p.v.c.b.! O - ) t.F.} A S.C.C.C.S.v.i.B.N.S.F.6.@.f.p.+.i.F.F.D.s.d.D.m.V.V.l., ..F.F.F.l.z.g.A.K.S.V.b.C.B.x.k 6 6 f.t.[ ",
"@.+.[ T E E 6 . k 4.x.b.C.b.5 g.C.C.b.b.f.j.N.b.g.S.c.,.q.%.N.S.V.V.V.d.C.V.g.F.m.w J K.g.A.A.D.N.l.A.F.S.C.C.V.b.C.i.> > m e A ",
"b.b.f.6.<.<.M @.b.n.n.B.C.c.) ! N.b.b.g.v.N.v.N.N.N.C.f.r.! N.N.b.b.b.A.F.b.l.J.K L C.V.V.V.V.m.b.D.D.m.S.K.F.N.N.P.J.! ! K i.F.",
"N.B.n.x.C.C.e.n.b.n.B.v.N.N.b.+.v b.V.N.f.p.g.l.N.C.b.g.i.! K.A.C.A.V.V.C.K.m.^ h F.m.l.A.A.A.b.b.A.C.F.A.K.S.V.S.P.C.l k +.P.F.",
"z.S.N.x.C.C.e.B.b.b.C.l.N.N.C.+.V v.N.N.x.p.j.N.N.V.N.g.t.! K.F.V.A.V.b.C.F.m.^ c C.l.b.A.A.D.z.V.C.F.C.A.K.S.V.F.K.C.k k +.I.F.",
"j.N.b.b.n.B.p.p.p.x.b.N.A.N.S.N.h ;.c.v.x.r.j.z.j.g.j.F.+.B F.K.F.F.S.P.Z.c.A v 9.l.k.b.V.l.l.A.D.A.D.D.F.A.S.f.N.F.I.( ~ A P.F.",
"B.b.b.N.B.B.j.i.b.f.N.S.C.z.V.b.' W q.e.c.N.N.b.g.g.j.v.*.P C.v.F.K.K.0.) K ( l.7.d.g.g.l.l.l.V.A.F.D.D.F.S.F.F.B.F.P.i.i.w b.J.",
"C.x.B.B.B.N.z.j.N.j.N.C.V.z.N.p.f.u 4.3.B.S.F.S.N.f.p.b.%.~ H.x.%.%.W ~ j.5.m.V.a.d.k.V.A.z.l.g.d.V.C.g.t.N.K.C.F.P.F.9.9.7 b.J.",
"s.x.B.b.b.b.b.i.N.v.N.V.A.j.c.t.C.Q ) o.b.B.j.N.A.V.F.V.6.k @.~ Q ~ %.g.V.8.l.m.b.j.j.b.F.V.V.h.g.l.m.r.#.z.C.N.F.N.P.i i A F.S.",
"p.t.N.F.N.N.b.i.V.b.N.j.p.g.f.f.b.,.D D B.v.u.C.N.F.N.S.) t j.A.N.N.N.F.h.j.D.m.C.A.l.C.V.V.V.a.f.V.g.r.0.f.b.p.N.S.C.2 > ,.F.J.",
"r.N.B.C.b.b.c.i.c.f.j.e.f.f.c.f.t.r.g g p.v.N.N.c.N.F.N.3 *.C.A.l.m.V.C.d.V.D.C.V.K.g.a.f.g.l.g.l.b.l.N.F.N.C.c.F.K.+.< < B.C.B.",
"x.B.b.v.N.B.v.8.4.N.j.t.i.b.b.t.t.q.[ [ l p.V.g.V.S.S.} y f.b.S.F.F.K.l.V.C.s.d.d.b.l.d.j.r.t.f.z.d.l.F.C.c.F.S.F.F.o.s u S.S.c.",
"b.N.f.b.f.p.i.z.i.h.f.p.h.N.V.f.9.i.B.B.+.v l.F.F.v.H.m J N.N.S.F.F.D.z.z.K.V.l.f.l.A.a.b.g.c.f.F.N.F.F.n.C.I.P.B.n.,.< < t.b.b.",
"b.N.g.b.p.p.u.N.i.j.f.f.f.l.V.f.6.i.G.B.} v l.F.S.N.G.n K C.N.S.F.S.F.l.A.F.N.z.f.b.A.0.b.g.f.f.F.N.F.F.b.C.I.P.C.c.,.< < s.b.C.",
"c.v.j.c.f.d.b.B.N.p.g.g.V.V.F.V.v.t.x.x.b.,.P p.b.S.t., e.b.f.x.C.D.b.g.z.D.F.l.a.f.m.5.F.V.V.g.F.N.N.j.u.W J k h h Y * * ,.C.F.",
"p.p.N.C.z.N.C.n.N.z.b.N.l.g.V.C.B.p.p.t.b.P.4.D x.B.>.8 C.f.t.b.l.l.V.V.N.A.V.g.f.l.C.0.f.M.B.C.F.N.u 4 k J [ *.,.6.i.w 9 <.f.=.",
"4.v.N.b.g.v.b.N.S.v.b.C.l.N.f.V.S.j.j.j.v.K.G.V n y 7 3 S 4 + K j.g.V.A.V.h.V.b.c.f.f.u 3 _ _ | 7.K T 6.f.S.G.C.c.F.F.- ; A 5.3.",
"( N.S.v.v.j.b.f.l.b.N.N.l.l.V.K.S.N.U.P.F.N.x.[ T X.o.{ 5.4.C @ ^ ! I.K.C.c.m.g.6.*.p u ` -.-._ H ! i.e.B.C.J.F.C.C.V.g g +.H.F.",
"9 B.b.N.C.S.b.N.b.N.C.b.f.>.{ %.+.D O.O./ 3 y S [ S.F.S.P.S.C.[ ; > Q :.&.&.m 8 g 8 g e.g.c.c.b.p.t.c.g.N.c.N.P.P.C.g.e 7 K C.C.",
"% A.B.b.N.N.N.b.N.N.v.' 7 < 3 y V ..Q Q Q o.r.4.<.S.S.F.S.b.v.p.v v C h s G S ) q.t. .^ b.b.b.f.r.V.N.N.b.V.V.V.F.F.C.@.@.> r.J.",
"2 ;.N.C.F.S.C.N.C.C.x * K i.j.B.S.v.B.B.B.K.v.e.i.C.c.B.C.t.b.n.F D d.m.b.m.b.b.C.b.f.p C.r.q.f.N.F.N.V.V.f.C.V.c.b.C.c.x.I e 9.",
"A 9 b.B.F.K.C.C.4.K = 3.B.F.b.f.B.B.S.B.B.B.B.v.N.B.b.N.f.v.S.t.c c C.F.S.S.F.C.C.C.3.! V.f.f.b.b.N.N.f.z.g.c.S.C.N.C.b.b.B.3.3 ",
"V 9 B.B.F.F.B.B.4.S * 3.B.S.b.f.b.B.S.S.b.N.N.v.z.C.N.N.f.b.S.t.k k C.F.S.C.F.V.C.C.4.! N.f.j.c.b.N.b.f.l.g.b.S.C.b.C.b.b.C.3.> ",
"%.3 v.v.B.N.n.! y 6 B x.N.N.v.b.N.S.N.b.B.x.b.b.p.S.S.v.f.f.b.,.<.=.P.F.F.F.K.b.b.b.{ W S.A.V.t.r.v.r.e.i.g.F.F.F.V.V.N.M.b.B.6 ",
"' 2 3.e.+.+.n K f.v.E 6 c.p.e.N.C.S.b.b.F.b.f.B.f.C.N.p.N.j.t.J N.N.S.S.F.S.b.A.C.F.D 9.P.t.t.1.e.v.t.f.c.f.A.F.S.C.F.N.N.t.C.h ",
"7 A v g v l =.b.v.v.x.9 k t.N.v.S.K.S.S.K.S.N.K.z.N.j.N.F.b.e.( S.F.c.A.A.F.b.S.B.j.t N.n.t.t.f.V.f.v.f.x.p.b.C.b.N.F.V.V.c.b.h "
};
