/* XPM */
static char *_1980_9e7e8113773d48e1703d0f37caa0501a1851c4f086937f6397d5bd738af89dde[] = {
/* columns rows colors chars-per-pixel */
"64 64 56 1 ",
"  c #0D2309",
". c #0D290C",
"X c #12260B",
"o c #152C0D",
"O c #1A2C0D",
"+ c #1A300F",
"@ c #1D3914",
"# c #212D0F",
"$ c #213613",
"% c #2C3411",
"& c #233B15",
"* c #333512",
"= c #3D3B15",
"- c #264017",
"; c #274319",
": c #2B451A",
"> c #2D491C",
", c #3C4017",
"< c #35491C",
"1 c #3D4F1F",
"2 c #4C4319",
"3 c #424E1E",
"4 c #624E1E",
"5 c #6E5421",
"6 c #655D25",
"7 c #7A5B24",
"8 c #7B6228",
"9 c #866027",
"0 c #8D6429",
"q c #906629",
"w c #9C6D2C",
"e c #A26F2E",
"r c #B36C2B",
"t c #B96F2E",
"y c #A6702E",
"u c #BB722D",
"i c #AE7531",
"p c #B47732",
"a c #BE7330",
"s c #BA7C34",
"d c #C17631",
"f c #C57A32",
"g c #CB7D34",
"h c #C48136",
"j c #CE8034",
"k c #CD8438",
"l c #D38336",
"z c #D88737",
"x c #D98837",
"c c #D48539",
"v c #D8873B",
"b c #D5883A",
"n c #DC8B3B",
"m c #E08C3A",
"M c #E4903D",
"N c #E8923F",
/* pixels */
"vnvnnvvvnvbNbbNbNkbNkbNkNkbNkvNkvNNkvkvNvvvvvvvNvNvvvNkvvvvvvkss",
"nnvnvnnnnnnbvvNvkNNkkNkNkNNkNkkNNkkNvNNkvNvNvvvvvvvvkNvNkNvkNkvN",
"nnnvbnnvvbvnvnbbNkNkNkNkkNkNkNkNkNkkNkkNvvvvNvNvvNNvNkNkNNkNvvvv",
"nnvnnnnnvNnnvnnvkNkNkNkNNkNkNkNkNkvNkNvkvvNvvvvvvvvvkNkNkvNkvvvN",
"nvnnnbnvvvNbvvNbNkNkNkNkkNkNkNkNkNNkNkNkNvvNvvvvvNvNvvNkNvkNNvNk",
"nvbnnbnnNvbbNbNbbNkNkNkNNkNkNkNkNvkNkNkNvvvvvvNvvvvvvvvvkkNkvvkN",
"nnnnnnvnbbvNNbbbbbNkNkNkkNkNkNkNkNkvkNNkvvvvNvNvvvvNvvvvNkvNNvvN",
"vvnnnnnvNbvbbbNvkNkNkNkNNkNkvvNkNkNkNkNvNvvNvvvvvNvvNvvNkNkNkkNk",
"NkNkbkNkbNbbNNkNNkNkNkNbNkNbMbbbkNkNNkNkvNkNvNvvNkNvvvNvNkkNkkNk",
"kNkNbNkNbbNvbbNkkNkNkNbkkNkbbbNNNkvkkNkNNkNkvvvNkNkkNvvvkNNvvNNv",
"NkNkNbNkNNkvkNkNNbbbNkbNNkbNMbbbNkNkNkNkNvkNvvpvNNvNkNvNNkNkkNkN",
"kNkNkNkNbbNkvkNkbkNNkNNkNbbNbbMbkNkNkNkNkkNkvv1168kkNkvvkNkNNkNk",
"NkbNNkNkbbbNNkNkbbNbkNbbbbbNbMbbNkkNkNNkNkvvvv16>166NNNvNkNkkNkN",
"kNNkkNkNbNbbkNkNNbbbNbNbbNbbMbbMNkNkNkNNNkNvNN11>>1668NvkkNNNkNk",
"kNkNNkNbNbNkNkNkNbkNkNbNbbbNNbbbkNkNkNN86>iisw>;>>>>>>kNNkNkNkkk",
"NkNkkNkbNbkNkNkNbkNkNkbNbNbbbbNNNkNkNk6>>>11e;>>>>>>>6NNkNkNkNkN",
"kNkNkNkNNbbbbNNbbNMbMMbMnbNNbbbbvnvnnveXXX774o++@@@.@=vNvvvvNvNv",
"NkNkNkNkbnNbbbbbbbbbbbbbbbbbNbNbnnnvnvwXXX774o+#.@@@#1vvvvvvvvvv",
"kNkNkNkNbnnbNbNNNbNNbMMbbNbnbbbbnnw55N $@@.X#*@$1;;;@XssNNvNvNvN",
"NkNkNkNknnnnbbbbbbbbbbMbnnnnbNNbvN#%*0.;;;-;OX,,e>@@X1vvvvvvvvvv",
"NbkNkNkNnnnnbnnnNbbbMbMbnnbnnnnbnM@$*0.;;:;-OX,,e>@@@=vvnvvNNvvN",
"bbNkNkNknnnvnnnnbbNNbMbMnnnnnnnnnN .XX811><<#X<<6i21*ivvvNvvvvvv",
"bNkNkNkNnnnnnnbnNbbbMbMbnnnbnnnnnne99$131<oo%&;;>@eevvvvnnvvvNvN",
"bbNbNbNknvnnnnnnNbNbbMbMnnnnnnnnnve99$331<+#$&;;>;eiNvvNnnNvvvvv",
"NkNbkNbNbbbNnnnnbbbMNbbMbMbnnnnnnnN00=hkksww6..X@@11kvnnnnvnnnnn",
"bNNbNbNkvNbbnnnnbNMbbbNbMbMbnnnnnvnvkknnnbNNs@ ..@ksnnnnnnnnnnnn",
"kNbNNbbNNbNbnnvvMbbMbNbNnbbnnnnnnnnnnnnnbNNbvi66wqNbNbbbnnnnbnnn",
"NkNkbNbbbbNbnbNNbNbbbNbbnMbMnbnbnnnvnnnnnnbnnNvvNvnbnnNbnvnnnnnv",
"bNkNbNNbNbNvvNvvMbbMbNNbnMnnnNvNnnnnnnnnvvNbvvMvvvvvNbNbbNNbNnnn",
"NkNNNbbNNbvvNvvNbMNbNbbNMbnbnnnnMnnnnnnnNnbNNMvMvNvNvbbNNvbNnnnn",
"bNbNkNkkkvvNvNvvMMbMbNbbbnnNnnnnnnnnMnnMnnvNvnMvNvNvbNNbbNnvnnnn",
"NbkssssisisskkNvbMMbNbNbNbnnnnvNnnnnnnnnnnnnnnvMvvNvNvbNbbnNvnNv",
"nnvfddttttafcbnnnnnnnnnnnnnnnMnnnnNnvMvMMnnnnnnMnnnnnnnnMnnnnnnM",
"vvttttrrtrrruunnnngfkknnMnnnnnnmnMvvMvMvnnnnnnnnnnnnnnnnnnnnMnMn",
"vvddaaadfflvnnnmbkfgbbnnnnnMnnnnMMvMnnvMMnnnMbMnnnnnnnnnnnMnnMbM",
"vnddaaafffcnnnnnkcfgbkMnnnnnnnnnvvMvnMvvnnnnnMnnnnnnnnnnnnnnnbMb",
"nnnnnnnnnnMvadxnnnnnMnnnnMnnnnnnMnnnnnnnnmnnnnnnnnnnnnnnnnnnnbMb",
"nnnnnnnnnnnvjknnnnnnnnnnnnnnnmnmnnnnMnnnmnnnnnnnnnnnnnnnnnnnnMnM",
"nnnnnnnnnnnnnnnnnnnnnnnnnnnnnnnnnnnnMnnnnmmnMnnnnnnnnnnnnnnnMnnn",
"nmnmmmnnmmnmmnmnmnnMnMnnnMnnnmnmMMnnnnnnnmnnnnxmMnnMMMnMnMnnnnnn",
"nmnmnnmnmnmmmnnmnmmnmnmnnmnmnmmnnnnnmnmnmmnmmmmmmxmnmxnmnnnnMnMn",
"mmmnnmnmmnmnnmmnmnnnnmmnmmmnmmnnnvnMnnnmnnmnmmmxmmnnmnmnMnnnnnnn",
"nnmmnmmnnmmnmmnxnnnmnnnMmmnnnnmmnnnMmmnnnmnmmmmmnmnmmnmnnMnnnmnm",
"mmnnmnmnnmnmnmmmmmmmmMmnmmnnxnxxnnbbxnxnnnmnmmmmmmmmnmnmnnnnnnmn",
"nmnmnnnmnnmnmnmnnnmmmnmmmmnnnnxnbbvvvxnnxmmmmmmmmmmnmmnnnnmnmnmn",
"mnmmmmmmnxnmnnnbxbcjjjffdduuuurraptrttrruudddhjjkbxxnxnmmmnmnmnm",
"uurrrrrrrrrrrrrrrrrrrrrrrrrrrrrrrrryrrrrrrurudffhjblxxxnnnnmmmnm",
"uuurrrrrrrrrrrrrrrrrrrrrrrrrrrrrrrrrrrrrrruuuuffjjlxxxnxnmmmnnmn",
"rrrrrrrrrrrrrrrrrrrrrrrrrrrrrrrrruddffglgzxxmmmmxmxmmmnnmnnnmnmn",
"rrrrrrrrrrrrrrrrrrurruudddffjlzxxxnmmmmmmmmmmmmmmmmmmxmnnmmnnmnm",
"fdudffffdffggggggxmgxxmmmmmmmmmnmmmmmmnnmmmxmmmmmnmmnmmnmmmmnmnn",
"mnmnmmxmxmmmmmmmmmmmmmmmmmxmxmnmmmxmnnmmmmmmmmmgnmnmmnnmxmmmnnnn",
"mmmnnmmnmnnmnnmnmmmmmmgmmmmnmnmnnnmnmnnmmxmmmmmmmnmnmnmnmmmnmmmn",
"mnnmmnnmnmnnnmnmmmmmmmNmmmmmmnnmnmnmnmmxmmnmmmmmnmnmnmnmxnmmnmmm",
"nnnnnnnnmnmmmnxmmmmmmmmmxxmxxmnnnmmnnnnmxmmnmmmmnmmnnmmnnmnmmnxm",
"mmmmmmmmmmmxmmmmmNgmmmmmmmmmmmmmmnmmmmmmmnmmmmmNxmmmxmmmmnmnmmnn",
"gNNNmmNgxmmmmmmmgNmmmgmmNNNgmmNgmxmmmmmmmmNmgNNgmmmmmmmmnmmmmmnm",
"NNgggmmNmmmmxmvmmmmmmNNgggNNmmmmmmmmxmmmNggNgNNgmmmgmxmmmmmmnmmm",
"NgNNNNgNmnmmmmmmmmmmmmgNNNgNgNmmmmnxmmvmNNgNNNmmmmmmmmmmxmmmmnxm",
"mNgNNgmmmmmxvmmmmNgmmmNmNgNNgNmmmmmmvmmmgNNNNgmmmmmmmxmmmmmxmmmn",
"mNNgmgNmmmmNmmgNmmgNmmNgmgNNmmmNmmmNmmgNmmmgmmNggmmmmmxxxmmmmmmn",
"mgNNmmmmgmmgmmmmmmmmmmmmmmNgNgmggmmgmmmmNgmmmmmmNmgmmmmmmmmxmxnn",
"mmmmmmmmNmmmmmmmmmgmmmmmmmmmmmmmNNmmmmmmmmNNmmNNmmNNmmmmmmmmmmmm",
"mNNgmmmmmmmmmmmmmmNmmmmmmmmmmmmmmmmmmmmmmmmgmmgmmmmmmmmmmmmmmmmm"
};
