/* XPM */
static char *_7128_49197d73f1fce9622c94e5e8ece604f0aa43e3929fe3ff85af4bee9dd8f2b741[] = {
/* columns rows colors chars-per-pixel */
"64 64 223 2 ",
"   c #5B613F",
".  c #565948",
"X  c #595B53",
"o  c #5E6249",
"O  c #5F6355",
"+  c #65694A",
"@  c #6D7249",
"#  c #73794C",
"$  c #626554",
"%  c #6B6D5C",
"&  c #676A59",
"*  c #6E7355",
"=  c #6E715C",
"-  c #717555",
";  c #71745C",
":  c #767B5B",
">  c #797E5D",
",  c #747A54",
"<  c #5F6160",
"1  c #6B6D63",
"2  c #666765",
"3  c #6E7163",
"4  c #6B706C",
"5  c #727463",
"6  c #777B65",
"7  c #7A7D65",
"8  c #73756C",
"9  c #76796B",
"0  c #7A7D6C",
"q  c #747573",
"w  c #767971",
"e  c #7C7D75",
"r  c #7B7C7B",
"t  c #76767B",
"y  c #6F6F6F",
"u  c #7C8255",
"i  c #7C835D",
"p  c #7D8742",
"a  c #7D8263",
"s  c #7D816C",
"d  c #7E8173",
"f  c #7F837D",
"g  c #80855C",
"h  c #858C59",
"j  c #8F9856",
"k  c #9AA459",
"l  c #A5B25B",
"z  c #828665",
"x  c #81846C",
"c  c #878C68",
"v  c #8D936C",
"b  c #8E9561",
"n  c #939A67",
"m  c #828474",
"M  c #868973",
"N  c #8A8D75",
"B  c #83857B",
"V  c #86897B",
"C  c #8A8C7C",
"Z  c #8D9172",
"A  c #8E927B",
"S  c #95997C",
"D  c #999D7D",
"F  c #939877",
"G  c #9CA469",
"H  c #9CA278",
"J  c #ABB569",
"K  c #A4AC74",
"L  c #A4AA7D",
"P  c #A9AF7F",
"I  c #ABB27B",
"U  c #ACB374",
"Y  c #B3BA7A",
"T  c #A3AF67",
"R  c #BBC37C",
"E  c #7E7D82",
"W  c #848482",
"Q  c #878982",
"!  c #8B8C83",
"~  c #85848A",
"^  c #8C8C8A",
"/  c #87888A",
"(  c #908F8B",
")  c #8E9184",
"_  c #8F918B",
"`  c #929584",
"'  c #999C85",
"]  c #93948C",
"[  c #979A8B",
"{  c #9A9C8C",
"}  c #959883",
"|  c #8C8C92",
" . c #8B8B96",
".. c #908F94",
"X. c #8F9291",
"o. c #949593",
"O. c #979993",
"+. c #9B9C94",
"@. c #959599",
"#. c #9C9C9C",
"$. c #98979A",
"%. c #9EA18C",
"&. c #9DA283",
"*. c #9EA194",
"=. c #9EA09A",
"-. c #A1A48A",
";. c #A6AB8A",
":. c #A6AB88",
">. c #ADB388",
",. c #B4BA88",
"<. c #A2A495",
"1. c #A6A995",
"2. c #A9AC94",
"3. c #A3A49C",
"4. c #A6A99B",
"5. c #AAAC9D",
"6. c #ADB292",
"7. c #AEB29C",
"8. c #B2B59D",
"9. c #B6BA9C",
"0. c #B5BA96",
"q. c #9C9DA2",
"w. c #9B9AA7",
"e. c #A19FA2",
"r. c #A19FAD",
"t. c #9FA0A3",
"y. c #A4A4A3",
"u. c #A7A8A5",
"i. c #AAACA4",
"p. c #A4A4AA",
"a. c #A7A8AB",
"s. c #ACACAB",
"d. c #A8A7A8",
"f. c #B0AFAE",
"g. c #AEB1A3",
"h. c #AEB0AB",
"j. c #B1B3A4",
"k. c #BABCA5",
"l. c #B3B4AC",
"z. c #B6B9AB",
"x. c #BABCAC",
"c. c #B6B9A5",
"v. c #ADACB2",
"b. c #ABAAB8",
"n. c #B1AFB7",
"m. c #AFB1B1",
"M. c #AFB2BB",
"N. c #B4B4B3",
"B. c #B7B9B4",
"V. c #BABCB4",
"C. c #B4B4BB",
"Z. c #B6B9BB",
"A. c #BCBCBB",
"S. c #B8B6B7",
"D. c #C1BEBA",
"F. c #BBC387",
"G. c #BDC393",
"H. c #BEC2A5",
"J. c #BEC1AB",
"K. c #BEC1B4",
"L. c #BEC1BB",
"P. c #C4CA97",
"I. c #C6D087",
"U. c #C1C3AC",
"Y. c #C7CBAC",
"T. c #C5CBA7",
"R. c #C2C4B5",
"E. c #C5C9B5",
"W. c #C9CBB5",
"Q. c #C3C4BC",
"!. c #C6C9BC",
"~. c #CACCBC",
"^. c #CDD1BA",
"/. c #D2D5B9",
"(. c #D0D5AB",
"). c #B6B6C2",
"_. c #BDBCC3",
"`. c #BDBCCA",
"'. c #B7B6C6",
"]. c #BEBCD0",
"[. c #C0BFC5",
"{. c #C1BECB",
"}. c #C2BFD1",
"|. c #BFC0C3",
" X c #C4C4C4",
".X c #C7C9C3",
"XX c #CACBC4",
"oX c #C4C4CB",
"OX c #C8C7CD",
"+X c #C7C9CC",
"@X c #CBCBCC",
"#X c #C9C7C2",
"$X c #D1CECD",
"%X c #CED1C3",
"&X c #CFD0CB",
"*X c #D2D4C5",
"=X c #D2D3CC",
"-X c #D8DBCB",
";X c #C6C4D2",
":X c #C9C6D3",
">X c #CCCCD2",
",X c #CDCCDA",
"<X c #C7C7D8",
"1X c #D0CFD5",
"2X c #D1CEDB",
"3X c #CFD0D3",
"4X c #CED1D8",
"5X c #D3D3D3",
"6X c #DBDBD5",
"7X c #D4D3DA",
"8X c #D8D7DC",
"9X c #DBDADC",
"0X c #D7D8D6",
"qX c #DFE1DC",
"wX c #E2E1D6",
"eX c #D0CDE1",
"rX c #D5D3E3",
"tX c #D8D6E3",
"yX c #DBDAE2",
"uX c #DBD9EA",
"iX c #CECEE2",
"pX c #E1DFEB",
"aX c #E2E1E6",
/* pixels */
"5X Xp.#.[ V d [ L.@X@X0XA.) |.XXXXL.*X3.p.C.oX6X/.>.2.*XE.@X|.|.iX_.C Z v , = ` 2.-.0 z.=X4X4X>X4Xp.;X,X4X7XA.8 *.=X&X|.`.4X4X,X",
"5X5X=XW d =.*.V 3.|.+X&X5Xu.O.h.L.L.K.g._.@X>X6XE.6.6.k.~.6X].|.Q.XX-.a - x j.Q.-X*X` ! +X0X+X9XL.s.o.oX>X8XL.] f !.|.3X<XrX4XoX",
"3XoXy.w L.6X%X*.f i..X8X7X4Xd u.p.y.i.V.5X>X X=X=X0.>.,.E.=X+XXXz.6.D # 2.$X6X1X6X=XB.3 N.5X>X@Xj.% $ Q.B.L.*Xl.=.3.|.@X,X7X,X|.",
"| r r w l.+X0XQ.d d s.0X+XqX=.XXA.q.y.S.0X XN.#XW.9.H n H.K.z.[ m , g @ 3.8X#XaX8X1X@X! 9 L.L.+.0 6 $ 5 V 9X&X+XB./ +X X|.>X4XZ.",
"..Z.L.Q O..X0X%X[.q o.D.5XQ.#X5X8XoX`.v.-XD.V.XXT.>.>.L 8.7.6.* 7 } 5.<.m !.=XyXyX:X2Xd.% } +.V 5.5.8 ! V.@X+XOX7X| #.+X&X+X@X..",
"4X|.+XL.O.K.0X%X5XD.r ^ V XX6X9X1X1X1Xe.=X!.g.1.:.Z D.^.E.U.T.z 8.%X=X@X{ %.=XoXOX_.n.w ` x.*X~.D.Q.i.^ A.yX4X,X;Xb.q.m.O.O.N.m.",
"7X@XqX+X=.K.|.3XyX7X( C [ x.5X9X>X Xl.Q i.3.4.2.U.x.oX[.>XXXW.S *X5X5X5XV.0 <.Q.3.) 5 $ i.$X[.1X:XOX#XN.+.8X:X<X,X<Xa.q B .X@X@X",
":X4X+X&Xh.=.0X3XOX$X^ e C g.@X1X$X( 1 d  X#Xx.` g. XOX;X@X<.L g D.0XqX@XR.i.; ; $ 6 m $ +. X$X:X8XoX@Xg.1  X_.;X|.|.m.< _ +X+X3X",
"5X>XD.O.( N.S.[.f.$.( i.#Xs.D.l.w V 0 R.=X1X.XQ ] +.] j.N >.K n v *X6XXX*XR.c a %.%XXX3 B #X}.rX7XB.*.3 . a L.0X4X3X=.Q q |.|.;X",
"A.O.9 ]  XyXs.3.[ (  XXX8Xe.+.4.( u.D.%X5XyX[._.$.] ! { 9.T.P.K F c.-X-X<.s : -.%X@X5X#.8 l.{.2XC.! d &.&.o f =.=.t.h.+XX.y.|.7X",
"e ) S.OX2X9X5Xs.{ Q. X8X8XS.8 <.4.XX5XyX7X2XeXeX0XO.#.OX@XOX$X*Xx M ~.1.3 $ 4.*X=X@X2X_.e D.D.) q h.!.XX*X` o [ !..X%X XL./ ).|.",
"A E.XX7X2X9X=Xz.{ =X XaX:X$X( i.O.Q.8X2X[.:XeXrX XO.A. X:X:X1XD.x.s 9 5 g.e o.oX=XOX@X_.W ) ; { |.|.L.&X%X=.O ) L.0X3X|.:Xt.X.t ",
"S E.5X3X$X5X#X+.Q f.6X{.yX$X3.D.3.i.[.5X:X|._.+XN.*.+.&X'.eX}.1Xj.& O.>X@XC.#.A.A.5XQ.m e { + { oX,X>X@X9X=.. t |.@X|.|.3X+X^ 4 ",
"N %.*X&XD.3.+.#.e.( D.D.D.D.D.$X@X^ i.V.a.s.u.h.&XV.) l.$X7X$Xf.A i.>X5X,XaXo.^ W 9 m } #X~.} % L.,X@X5XL.f X q |.+X<X4X@XL.[ j.",
"m 0 ' 1.) d.OX:XD.#.B { l.$X{.tX9XE.9.0.C *.5XZ.L.=X*.7.W.6.Z N .X5X+X@X+X+XK.3 6 2.XXXX X X~.o 5 XXh.O.d ] i.w l.3X).rX+XZ.) W.",
"*X4.m A l.D.5X1Xe.( { ) l.#.e.1X5X-XU.6.;.9.-X=X7X5XE.;.0.z z ' @X;X4X@X=X.X~.&.: k.wXOX1X5X=X8 o s ] B.XXL..X_ 9 L.|.|.t.< & 2.",
"#X=Xd +.V.3.#.^ / d.s.D.S.$.=.0X,X.Xi.8.L n (.^.6X6XP.,.:.W.^.V Z.yX XOX%XW.S > - x *X5X0X-X|.=   A  X'.>X5X0XN.& &.2.1 ~ v.N.V ",
"5X=X3.B [ *.+.=.@X[.OXyX$XD.h.Q.oXq.$.i./.P Y /.-XD.P I Y.!.aX$.y.=X@XQ.! m s ' : 5 x.=X&Xt.4 1 + , >X'.,XoX>XXXx + $ {  XZ.@XB.",
"@XoXV.e d A { 3.1X:XtX,X>X#X*.l.B.=.l.Z.5X^.Y R Y K >.9.*XD.2X[.C k.%.) ] Z.|.|.Q.m [ h.W ~ q.K.-.: s. X#XL.j.V & x ! o.S.oX$X1X",
">XOXXX! +.D.{ ( n.1X:X{. XOXQ._ *.@XXXXX:X*XY J k Y T.W.XX$X:XD.v z x <.@X,X|.,X5Xl.4 Q a.3X|.0X(.: m ~.! 0 $ A x.=X@X>Xd.@X[..X",
"oXv.#.s.!.%XD.W ( D.1XOX[.f.N.XX$X3.D.$X~.(.G k k ,.k.R.Q.B./.:.h # ' XX4XrX].iXrXOXQ l.%X*X|.4Xc.;.i > B u.% Q.~.@X>XoXo.( N.#.",
"q.#.q.A.$X$X=Xf.^ e.[.A.e.f.0X8XXXy.+.R.D.>.P P./.;.' j.~.c.0.c c v A  X<XuX<X<X:X`.=.l.L.|.|.|.i.7 u ;.K.A.3.i.$X5X_...4 9 3.l.",
"t.0X Xd.$X5X8X$X( ..N.d.D.7X1XpX9XA.] -.n ,.W.wX0Xx.S H K K F A 7.-Xz. X4X4X,X<X|.L.g.*.L.4XiX|.! 5 - H.XX_.!.8 ^ E t . 1 1.=XOX",
"7X7X[...[.5X@XD.( ( e.$.[.tX1XOX1X{.8.M 6.D.@X1XoXl.M n h n 9.V.7X8X.Xi.&X<X|.+XN._ s d |.@.w.).5XV.= k.#X.XR.` & 2 X <.x.=X$XOX",
"tXyX4X#.+.N.N.3.#.>XOX| r.5X$X{.OXS.f.y.&X5X8X_.^ 3.l.Q.>.z ~.1X:XrX5Xi.5.K.Q.=.w 9 ! V f t.|.4X2XoXg.C %XQ.5.m Z.f.% Q.~.=XoX:X",
";X+X7X.X3._ i.@X,X|.oXr.@.p.S.#XOXf.( O.N.@XB.3.C g.>X&X^.A ] .X<XpX4XE.S M s = 3 i..X|.X.L.|.+X:X#XXXm *.m *.x.@X X! 5.Q.5X>X,X",
"&X5X@X=XS.3.=X5X>XoXaX_.E e.e.#XV.Q V C ' s 5.} F 2.>XZ.Z.) x c.tX_.@XR.1.u a a K. X@X[.m.m.&X4X@X@X5.+ 5 z.V.oX'.:Xs.y.@X:X@XS.",
"*X.X!.L.a.y.A.yXoX@XOX X~ q.p.A.+.C M ; s U.~.j.N { oX}.oX#.; S Q.@X#X*X6.a = s S.@XoXoXN.*.|.*XXX) . % A ^.[.{.2X2X:X| r._.o.5 ",
"2.' ` $.e.#.p.7X5Xh.Z.i.$.X.p.oX1Xm m [ D.@X&X.X` ! ;XiX;X_.S 7 /.XXR.M *.z.5.g.i.S.D.@X@X( 8.-.% X } 5.0 R.OX2XrXrXtXn.e 1 1 ` ",
"S A 0 3.D.n.v.d.p.Z.L.>X@Xo.v.:X5XXX{ *.$XXX8X5Xi.e v.;X_.=X;.# 8.3 s i.0X@X@X9XS.i.@X#XQ.*.% * ; c.XX@X! ) OX7X<X[.oX3.B l.B. X",
"-.x 4.%X$X@Xd.n.@X7XoX0X8Xy.O..XaX1Xi.} -.8.5X5XoX3.` 9.J.2.u # a s  X@X`.,X4X+X=X( D.!.^.-.+ S *X X[. Xu.W 2X#XV.x.<.) m +.=XD.",
"k.x g.-XXX5Xf.v.oX;X_.>X8Xs.s.l.6X%XD.:.-.;.=XoX+X.Xa + : , c :.: %.@XoX,X;X;X+X5Xf.A -.6 - @ 9.XX>X[.:X[.O.h.%XT.S m 5.u.q _.0X",
"W.*.( $X8X$XS.[.{.{.D.[.1XS.l.{ P.P.K L &.V h.4X>X XB.5 0 5.XXE.A &  X_.oX>X,X5X1X%XA , x a u g ~.{.1X}.7XD.x a v ' l.:X,Xb.q.@X",
"=XD.Q D.$X@XS.n.$XS.$XwXD.*X2.H I ,.Y ,.E.^ t.>X>XOX*Xm x.D.$XD.4.0 ! =X#X X7X9X#X{ c 7.D.j.@   D.D.8XaX1X] + D Y.~..X X2X>Xu.V.",
"}.$XC S S A +.D.[.D.D.D.T.G K ,.,.0.T.Q._.`.@.L.A.g.i i D.D.D.{.t m 0 E.Q.V.K.4.5 { R.Q.*XD.- . $.D.$Xd.9 5 ' D.R.Q.@XA.s.4.7 x ",
"1Xe.s z g D.XX#X[.$X{ D U G I ,.F ' c. XOXoXq.=.=.J.6.# N %.y q O.A.6.A R.j.V O = z.A.A.D.W.D.$ ! D.! % e d <.z.Q.c.] C V ; % H.",
"3.m x N V !.$X{.$X$XD n F 0.D.D.!.B { XXE..X_.q.,X Xc.a @ @ y D._.Q.E.+ A 6 ) i.A M n.>XQ.#XXXd - ; e N.[.XXA ' a a *.S.Q.3.B XX",
"7 5 } z.+.D.7X[.#X/.,.b 0.j.D.D.1Xe.0 C %.k.h.).oX;X Xx # # g.{.N.N.!.= ) g.&X&XE.0 f.[.Q.XX$XV.+ : C oX2X7X%.% N ;.*XXX@XA.E V.",
"M 5.S.0X[.S.E.W./.G.K # c 5.[.C.oX X! % u i x..XoXOX>Xl.# # Z D.s.y.+.*.A.&X5X9X#X] x D.Q.@Xl.` Z 2.~.@X1X1Xl.1 x.R.6X0X1X_.^ 3.",
"x.0X1X7XS.+.g.D.L h b u a } #XD.A.[.h.8.K G R.Q. X X.X~.g @ ; D.e.W ] 0X_.;X:X+XA.B.N -.i.C % 5.D.^.$X X:X9XS.1 5.%X=X@XXXS.( w ",
"8X1XyX2X[.=.S L b I F :.6.z 1.{ O.Z. X*XF.K /.~.#XD.v g h @ + e e.v.e V._.<XOXoXZ.K.%.a s ! s V.#X,XOX@X>X>XA.y.e E.5.2.[ d W +.",
"tXyX2X_.n.D.&.S n D D./.W.M 7 { $XoX X~.F.T >.Y.T.F g g : c $ { >X1XO.] #X_.>XOX|.i.C M *.XXy._ OX>X:X X1X@X@XQ.V 0 * 6 A V.0X@X",
"oX7X$X[.;XoX*.{ z.D.0X6X#XD.8 s.;X[.A.W.I.l j Y Y j 6.l.[.[.x j.D.7XS.( x.x.1X7XZ.d [ .XL.XXXXt.O.OX,X,X[.@XXXU.Z : : + ` =X5X@X",
"N.7X7X[.[.f.O.( OX[.yX8X:X:Xy.] 5XoX!.Y.J k T Y l U /.[.{.OXD.N {.{.$X<.D %.A.C.N.d *.XX|.@X+X5XB A.5X@Xv.#Xj.; ' T.H.0 e @X@X@X",
"N. X:Xq.h.Q. Xq.@.C.8X2X5X[.$Xs T.T.0.,.F.>.H.9.k F.%X[._.1XXX0 D.1X#X-.F ; w @.N.Z.f L.&X3X3X|.+.e R.~.*.m m <.~.5X5XN.r S.wX=X",
"@Xo.p._.XX#X@XoX/ d.7X{.1X@Xx.6 a g j G G.Q.5XD.Y ,.D.N.oXoX=X3.y.D.1.S x } N.{.8X|.=.%.L.3X4X3XB.s 0 x 0 j.XXZ.1X>X[.7Xp.x.XXXX",
"l.u.v.@X1X[.A.Q.l.B oX#XoXf.+.W 5 c j U D.[.{.#XP.U 0.x.oX{.1Xl.^ <.; - m D.[.`.+X|.K.C g.L.0X&Xh.e { i.V =XQ.oX_.7X[.>X X.X X5X",
"O..XO._.uX7XXXXXx.) +.N.+.q.f.@XD.D.U Y D.D.[.D.P.Y b U.1X_.d.s.] [ z * 4.1X:X2X4X|.&Xz.s =.K.M.y.S.$XXXe A.OX_.:X2X@X5X.XB.h.&X",
":X|.m.M.+X4XXXx.{ ` 6 8 +..X:X;X{.#XT.K 9.*X-XE.P.J p b <.=.h.V.5X=X*.a %.|.|.).'.[.D.j.<.l.w._.@X+X<X+XV.f qX+X@X@XQ.c.S 0 7 ` ",
"8X+X>Xt.5XN.] ! { d N d *.D.oX;XoX#XY.:.,.T.W.U.P.R n # 7 ] n.1X3X.Xg.f 4 w u.@X Xy.! V.XXN.[.oX|.<X<X+X%X! 4.XXB.X.9 $ % + ; 8.",
"7X7X+Xt.] ^ N.XXOXi.] O.! V.+X@XN.u.+.Z >.L 0.6.D ` j.A.4.f.M.].4X+X+X|.Q & d C 0 ) A.@X8Xo.s. X|.|.tX|..X& B f f +.XXR.( % ` -X",
"4X|.=.] ^ XX@X@X5X@XO.] 3.i.Q.#.^ 3.i.U.G.G g H 5.A.{.;XoX{.b.<X4X4XyX:Xh.f A 6 V #X$X[.1Xy.B Q.|.+X:Xs.1 Q g.#. X5XXXL.!.V 8 D.",
"5.d t.|.t.a.8X#X XD.r D. XN.Q B y.oX0X XD.:.# F [.{.{.:X{.$X;Xp.<X:X|.w. .L.i.5.m K.+X>X:XB.` %.4X|.` d .X+Xp.t iX,X8X@X@XD.m { ",
"5 =.3XyX'./ @XB.z.#.f.#XoX+Xi.W #.7X_._.D.~.Z 7 {.:X{.:X$X{.@Xp.v.b.@.r.;X|..XL.) X.@X@XD.l.W.5.t.a.V %X3X3Xp.2 ,X,X@X|.D.$X4.[ ",
") L.|.|.<Xa.y.B.{ 0 V.[.{.oX@Xv.$.>X{.[.@X[.3.0 W D.XX!.XXl.D.u.Z.|. .).;X4X3X Xs.Q K.i.Q V V 5.O.] V.#X@XaX5Xe V Q.,X`.C. XV.7 ",
"_ L.XX|.:X|.e O.] e ^ [.A._. X@Xq.s.[.C.{.$XA.D.f.#XD.5.i.#.XXN.oXM.t M.oX<X|.+Xp.w 5.) [ 4.#.y.O.O.i.L.+X5X0X5.a 7.;X'.'.#XE.6 ",
" .Z.V.L.Q.j.B y.D.N.( ~ D.[.n.n.X.y.Z..Xv.s.S.B.e.p.y.g.h.h.t.'.:XZ.E t.|.@X+X>Xu.d C %.K.A.).M.f.e +.Q. X0XXX7.6 s |.].|..X8.a ",
"w./ S.R.' V N._.2X1Xv.^ f.D.r.v.a.#.] =._ ~ ] u.n.|.N.N.+X3XM.).'.;Xw.E Z.+X'.t.3.*.m R.!..X;X{.C.+.C ~.A.OX3.<.N . a.Z.#.f s * ",
";X/ ! ) m +.>X;X}.rXS.@.N.f.d.D.|.C.^ h.Z.n.^ $.}.;X|.>XoX4X`.t.|.|.|.y =.s.K.m.B.N.o.3.@X+X_._.A.N.m 1.! Q B.XX|.y < f s 3 s A ",
"Z.m.w 1 B @X|.+X8X).~ ..f.C.[.[.4X@Xa.v.@XN.o.#.b._.N.oX<X,X'.p.|.+X_.2 f / O.+X XA. Xp.q.5X XC.$.o.V 6 ) l.-XXX7Xy.1 s [ J.~.!.",
"=.d f M.X.M.+X+Xt./ a.'.v._.OX>XoX,XoX@.>XOX[.#.] c.A.OX<X|.'.a.a.M. .~  .@.w.t..XoX@X@X#.A.e./ @.).$.e m R.-XV.u.Q ] L.+X&X3X&X",
"4 | |.|.t.4 m.h.X.y.@XtX[.{.oXA.oX<X;Xw.d.@X#X) x <.N.M.|.M.w./ =.@.E '.|.|.|./  X0X$XA.s.+.e.C.1X1X:X#.$ x x ' V.=.B A.|.yXrX|.",
"w.|.|.M.K.4 9 d g.XX+X<X`.`.oX;X:X).p.p.$.D.4.N 7 M s.@. ./ i.l.L.|.~ ).iX].|. .u.=X!.h.f.[.{._.OXoX1X[.5 . ) B.oX+X| p.'.|.|.rX",
"'.iX4X|.K.w o %.K.Z.|.<X`.`.M.C.t.b.;X_.l.<.N - > d p.r.).v.K.|.|.|.w.r.<X|.|.#.1 j.A m i.n.{.[.[.OX;XD.V = ] B.oX;X).@.<X|.<X|."
};
