/* XPM */
static char *_5947_b9d082108a161cd8d200e273d156244bbd4fd34cd22afbfd99c6c76dbf6bd8b3[] = {
/* columns rows colors chars-per-pixel */
"64 64 68 1 ",
"  c black",
". c #28221F",
"X c #493526",
"o c #4F3827",
"O c #5D3724",
"+ c #5C3B2A",
"@ c #5C3A2B",
"# c #7D322C",
"$ c #5E432B",
"% c #62462E",
"& c #64472C",
"* c #66492F",
"= c #6A4A2C",
"- c #6A4B2D",
"; c #6D4B2E",
": c #6C4C2E",
"> c #7C4B22",
", c #7D4428",
"< c #764730",
"1 c #704F30",
"2 c #6A5537",
"3 c #715031",
"4 c #765333",
"5 c #7A6048",
"6 c #B30B30",
"7 c #C40A33",
"8 c #82451C",
"9 c #985C28",
"0 c #9E5F29",
"q c #9D632D",
"w c #976736",
"e c #A6642B",
"r c #AB672C",
"t c #B36C2E",
"y c #B56D2E",
"u c #A66D35",
"i c #B37133",
"p c #B37234",
"a c #B27A3D",
"s c #BF7A38",
"d c #BB7C3B",
"f c #8B6F43",
"g c #967847",
"h c #8B735D",
"j c #AF7A42",
"k c #A16D66",
"l c #C15168",
"z c #A6854E",
"x c #A8814E",
"c c #A8854D",
"v c #AC894F",
"b c #B88142",
"n c #90867D",
"m c #B89B62",
"M c #D7AA5E",
"N c #DF927D",
"B c #E5A66F",
"V c #B9AEA2",
"C c #DCDDD8",
"Z c #DDDED9",
"A c #DEDFDA",
"S c #E1E2DF",
"D c #E2E2E0",
"F c #E3E3E1",
"G c #E6E6E6",
"H c #EAE8EA",
"J c white",
"K c None",
/* pixels */
"KKKKKKKKKKKKKKKKKKKKKKKKKKKKKKKKKKKKKKKKKKKKKKKKKKKKKKKKKKKKKKKK",
"KKKKKKKKKKKKKKKKKKKKKKKKKKKKKKKKKKKKKKKKKKKKKKKKKKKKKKKKKKKKKKKK",
"KKKKKKKKKKKKKKKKKKKKKKKKKKKKKKKKKKKKKKKKKKKKKKKKKKKKKKKKKKKKKKKK",
"KKKKKKKKKKKKKKKKKKKKKKKKKKKKKKKKKKKKKKKKKKKKKKKKKKKKKKKKKKKKKKKK",
"KKKKKKKKKKKKKKKKKKKKKKKKKKKKKKKKKKKKKKKKKKKKKKKKKKKKKKKKKKKKKKKK",
"KKKKKKKKKKKKKKKKKKKKKKKKKKKKKKKKKKKKKKKKKKKKKKKKKKKKKKKKKKKKKKKK",
"KKKKKKKKKKKKKKKKKKKKKKKKKKKKKKKKKKKKKKKKKKKKKKKKKKKKKKKKKKKKKKKK",
"KKKKKKKKKKKKKKKKKKKKKKKKKKAAAAAAKKKKKKKKKKKKKKKKKKKKKKKKKKAAAAAA",
"KKKKKKKKKKKKKKKKKKKKKKKKKKAAAAAAKKKKKKKKKKKKKKKKKKKKKKKKKKAAAAAA",
"KKKKKKKKKKKKKKKKKKKKKKKKKKAAAAAAKKKKKKKKKKKKKKKKKKKKKKKKKKAAAAAA",
"KKKKKKKKKKKKKKKKKKKKKKKKAAAJJJJJAAAAAKKKKKKAAAAAAAAAAAAAAAJJJFJJ",
"KKKKKKKKKKKKKKKKKKKKKKKKAAJJJJJJJJJJZAJKKKACCCJAAJJJZJJJJJJJJJJJ",
"KKKKKKKKKKKKKKKKKKKKKKKKAAJJJJJJJJJJZAJKKKACCCJAAJJJZJJJJJJJJJJJ",
"KKKKKKKKKKKKKKKKKKKKKKKKAAJJJJJJJJJJZAJKKKACCCJAAJJJZJJJJJJJJJJJ",
"KKKKKKKKKKKKKKKKKKKKKKKKKKAJJJJJJJJJAAAAAAJCCCJJJJJJAJJJGGJJJJAA",
"KKKKKKKKKKKKKKKKKKKKKKKKKKJJJJJJJJJJAAJJJJJCCCJJJJJJAJJJJJJGGJAA",
"KKKKKKKKKKKKKKKKKKKKKKKKKKJJJJJJJJJJAAJJJJJCCCJJJJJJAJJJJJJGGJAA",
"KKKKKKKKKKKKKKKKKKKKKKKKKKJJJJJJJJJJAAJJJJJCCCJJJJJJAJJJJJJGGJAA",
"KKKKKKKKKKKKKKKKKKKKKKKKKKAJJJJJJJJJJAJJJJJCCCJJJJJJAJJHJJJGGJAA",
"KKKKKKKKKKKKKKKKKKKKKKKKKKAJJJJJJJJJJAJJJJJCCCJJJJJJAJJHJJJGGJAA",
"KKKKKKKKKKKKKKKKKKKKKKKKKKAJJJJJJJJJJAJJJJJCCCJJJJJJAJJHJJJGGJAA",
"KKKKKKKKKKKKKKKKKKKKKKKKKKAAJJJJJJJJJAJJJJJCCCJJJJJJAJJJJJJGGJAA",
"KKKKKKKKKKKKKKKKKKKKKKKKKKKKAJJJJJJJJDJJJJJCCCGJJJJSSJJJJJGGGJAA",
"KKKKKKKKKKKKKKKKKKKKKKKKKKKKAJJJJJJJJDJJJJJCCCGJJJJSSJJJJJGGGJAA",
"KKKKKKKKKKKKKKKKKKKKKKKKKKKKAJJJJJJJJDJJJJJCCCGJJJJSSJJJJJGGGJAA",
"KKKKKKKKKKKKKKKKKKKKKKKKKKKBAAAAJJJJJAJJJJJCCCGJJJJCJJJJJJGGGJAA",
"KKKKK KOKKKKKKKKKKKKKKKKKKKBAAAAJJJJJAJJJJJCCCGJJJJCJJJJJJGGGJAA",
"KKKKK KOKKKKKKKKKKKKKKKKKKN76JJJAJJGJAJJJJJCCCJJJJJJJJJJJJGGGJAA",
"KKKKK KOKKKKKKKKKKKKKKKKKKN76JJJAJJGJAJJJJJCCCJJJJJJJJJJJJGGGJAA",
"KKKKK  OKKKKKKKKKKKKKKKKKKz 6lllAJJGJAJJJJJCCCJJJJJCJJJJJJGJJJKK",
"KKKKOOOO KKKKKKKKKKKKKKKKKz 6lllAJJGJAJJJJJCCCJJJJJCJJJJJJGJJJKK",
"KKKKOOOO KKKKKKKKKKKKKKKKKz 6lllAJJGJAJJJJJCCCJJJJJCJJJJJJGJJJKK",
"KOOO< OO  KKKKKKKKKKKKKKKKK #kkkAJJGJAJJJGJCCCJJJJJCJJJGJJGJJJAA",
"OOOOO@OO  KKKKKKKKKKKKKKKKK X555VAAJJAJJJJJCCCJJJJJCJJJJGGGJJAKK",
"OOOOOOOO  KKKKKKKKKKKKKKKKK X555VAAJJAJJJJJCCCJJJJJCJJJJGGGJJAKK",
"OOOOOOOO  KKKKKKKKKKKKKKKKK X555VAAJJAJJJJJCCCJJJJJCJJJJGGGJJAKK",
"KKKKKOOOn  KKKKKKKKKKKKKKKK  ,,,hAAAAAAAAAAAAAJJJJJJJAAAAAAAAAKK",
"KKKKKOOOn  KKKKKKKKKKKKKKKK  ,,,hAAAAAAAAAAAAAJJJJJJJAAAAAAAAAKK",
"KKKKKOOOO  KKKKKKKKKKKKKKKKo ,,,,333% 3331,   AAAAAAA,,,,,,  KKK",
"KKKKKOOOO...KKKKKKKKKKKKKb8o ,,,,333% 3331,   AAAAAAA,,,,,,  KKK",
"KKKKKOOOO...KKKKKKKKKKKKKb8;    ,,,,% 3,,,3   ,,,,, %,,,,, KKKKK",
"KKKKKOOOO++OOOOOjauuuuuuubK;    ,,,,% 3,,,3   ,,,,, %,,,,, KKKKK",
"KKKKKOOOOOOOOOOOO   wKKKKKK;    ,,,,% 3,,,3   ,,,,, %,,,,, KKKKK",
"KKKKKOOOOOOOOOOOO   wKKKKKKK    =,,,$ 4,,::   &&&:: *,,,-- KKKKK",
"KKKKKOOOOOOOOOOOO   gKKKKKKKK                              KKKKK",
"KKKKK<OOOOOOOOOOOK   vK   KKK                              KKKKK",
"KKKKKKOOOOOOOOOOOKK .     KKK                              KKKKK",
"KKKKKKOOOOOOOOOOOKK .     KKKKKKKrrtpKKKKKKKKKKKKKKKssssKKKKKKKK",
"KKKKKKKOOOOOOOOOOKK    22KKKKKKKKrrtpKKKKKKKKKKKKKKKssssKKKKKKKK",
"KKKKKKKOOKKKKKKOOKKK  fKKKKKKKKK0>>OxsKKKKKKKKKKKKKsxxxx0KKKKKKK",
"KKKKKKKOOKKKKKKOOKKK  fKKKKKKKKK0>>OxsKKKKKKKKKKKKKs>>>x0KKKKKKK",
"KKKKKKKOOKKKKKKOOKKKKKKKKKKKKKKKyxxmxsKKKKKKKKKKKKKs>xmxsKKKKKKK",
"KKKKKKKOOKKKKKKOOKKKKKKKKKKKKKKKyxxmxsKKKKKKKKKKKKKs>xmxsKKKKKKK",
"KKKKKKKOOKKKKKKOOOKKKKKKKKKKKKKKexxxxsKKKKKKKKKKKKKOxxxxsKKKKKKK",
"KKKKKKKOOKKKKKKKOOKKKKKKKKKKKKKKexxxxsKKKKKKKKKKKKKOxxxxsKKKKKKK",
"KKKKKKKOOKKKKKKKOOKKKKKKKKKKKKKKexxxxsKKKKKKKKKKKKKOxxxxsKKKKKKK",
"KKKKKKKOOKKKKKKKOOKKKKKKKKKKKKKK099Oq0KKKKKKKKKKKKKOqqOqsKKKKKKK",
"KKKKKKKOOKKKKKKKOOKKKKKKKKKKKKKK099Oq0KKKKKKKKKKKKKOqqOqsKKKKKKK",
"KKKKKKK  KKKKKKK  KKKKKKKKKKKKKKKiiidKKKKKKKKKKKKKKKOsssKKKKKKKK",
"KKKKKKK  KKKKKKK  KKKKKKKKKKKKKKKiiidKKKKKKKKKKKKKKKOsssKKKKKKKK",
"KKKKKccccccccccccccMKKKcccccccccccccccccccccccccccccccccccccccKK",
"KKKKKKKKccccccccccKKKKKcccccccccccccccccccccccccccccccccccccccKK",
"KKKKKKKKKKKKKKKKKKKKKKKKKKcccccccccccccccccccccccccccccccccccKKK",
"KKKKKKKKKKKKKKKKKKKKKKKKKKKKKKKKKKKKKKKKKKKKKKKKKKKKKKKKKKKKKKKK"
};
