/* XPM */
static char *_158_9122d2c86f0e058b3bef147b6cf2d183a6f4cd74e911860f01911f8dfb32da48[] = {
/* columns rows colors chars-per-pixel */
"64 64 68 1 ",
"  c black",
". c #28221F",
"X c #493526",
"o c #4F3827",
"O c #5D3724",
"+ c #5C3B2A",
"@ c #5C3A2B",
"# c #7D322C",
"$ c #5E432B",
"% c #62462E",
"& c #64472C",
"* c #66492F",
"= c #6A4A2C",
"- c #6A4B2D",
"; c #6D4B2E",
": c #6C4C2E",
"> c #7C4B22",
", c #7D4428",
"< c #764730",
"1 c #704F30",
"2 c #6A5537",
"3 c #715031",
"4 c #765333",
"5 c #7A6048",
"6 c #B30B30",
"7 c #C40A33",
"8 c #82451C",
"9 c #985C28",
"0 c #9E5F29",
"q c #9D632D",
"w c #976736",
"e c #A6642B",
"r c #AB672C",
"t c #B36C2E",
"y c #B56D2E",
"u c #A66D35",
"i c #B37133",
"p c #B37234",
"a c #B27A3D",
"s c #BF7A38",
"d c #BB7C3B",
"f c #8B6F43",
"g c #967847",
"h c #8B735D",
"j c #AF7A42",
"k c #A16D66",
"l c #C15168",
"z c #A6854E",
"x c #A8814E",
"c c #A8854D",
"v c #AC894F",
"b c #B88142",
"n c #90867D",
"m c #B89B62",
"M c #D7AA5E",
"N c #DF927D",
"B c #E5A66F",
"V c #B9AEA2",
"C c #DCDDD8",
"Z c #DDDED9",
"A c #DEDFDA",
"S c #E1E2DF",
"D c #E2E2E0",
"F c #E3E3E1",
"G c #E6E6E6",
"H c #EAE8EA",
"J c white",
"K c None",
/* pixels */
"KKKKKKKKKKKKKKKKKKKKKKKKKKKKKKKKKKKKKKKKKKKKKKKKKKKKKKKKKKKKKKKK",
"KKKKKKKKKKKKKKKKKKKKKKKKKKKKKKKKKKKKKKKKKKKKKKKKKKKKKKKKKKKKKKKK",
"KKKKKKKKKKKKKKKKKKKKKKKKKKKKKKKKKKKKKKKKKKKKKKKKKKKKKKKKKKKKKKKK",
"KKKKKKKKKKKKKKKKKKKKKKKKKKKKKKKKKKKKKKKKKKKKKKKKKKKKKKKKKKKKKKKK",
"KKKKKKKKKKKKKKKKKKKKKKKKKKKKKKKKKKKKKKKKKKKKKKKKKKKKKKKKKKKKKKKK",
"KKKKKKKKKKKKKKKKKKKKKKKKKKKKKKKKKKKKKKKKKKKKKKKKKKKKKKKKKKKKKKKK",
"KKKKKKKKKKKKKKKKKKKKKKKKKKKKKKKKKKKKKKKKKKKKKKKKKKKKKKKKKKKKKKKK",
"AAAAAAKKKKKKKKKKKKKKKKKKKKKKKKKKAAAAAAKKKKKKKKKKKKKKKKKKKKKKKKKK",
"AAAAAAKKKKKKKKKKKKKKKKKKKKKKKKKKAAAAAAKKKKKKKKKKKKKKKKKKKKKKKKKK",
"AAAAAAKKKKKKKKKKKKKKKKKKKKKKKKKKAAAAAAKKKKKKKKKKKKKKKKKKKKKKKKKK",
"JJFJJJAAAAAAAAAAAAAAAKKKKKKAAAAAJJJJJAAAKKKKKKKKKKKKKKKKKKKKKKKK",
"JJJJJJJJJJJZJJJAAJCCCAKKKJAZJJJJJJJJJJAAKKKKKKKKKKKKKKKKKKKKKKKK",
"JJJJJJJJJJJZJJJAAJCCCAKKKJAZJJJJJJJJJJAAKKKKKKKKKKKKKKKKKKKKKKKK",
"JJJJJJJJJJJZJJJAAJCCCAKKKJAZJJJJJJJJJJAAKKKKKKKKKKKKKKKKKKKKKKKK",
"AAJJJJGGJJJAJJJJJJCCCJAAAAAAJJJJJJJJJAKKKKKKKKKKKKKKKKKKKKKKKKKK",
"AAJGGJJJJJJAJJJJJJCCCJJJJJAAJJJJJJJJJJKKKKKKKKKKKKKKKKKKKKKKKKKK",
"AAJGGJJJJJJAJJJJJJCCCJJJJJAAJJJJJJJJJJKKKKKKKKKKKKKKKKKKKKKKKKKK",
"AAJGGJJJJJJAJJJJJJCCCJJJJJAAJJJJJJJJJJKKKKKKKKKKKKKKKKKKKKKKKKKK",
"AAJGGJJJHJJAJJJJJJCCCJJJJJAJJJJJJJJJJAKKKKKKKKKKKKKKKKKKKKKKKKKK",
"AAJGGJJJHJJAJJJJJJCCCJJJJJAJJJJJJJJJJAKKKKKKKKKKKKKKKKKKKKKKKKKK",
"AAJGGJJJHJJAJJJJJJCCCJJJJJAJJJJJJJJJJAKKKKKKKKKKKKKKKKKKKKKKKKKK",
"AAJGGJJJJJJAJJJJJJCCCJJJJJAJJJJJJJJJAAKKKKKKKKKKKKKKKKKKKKKKKKKK",
"AAJGGGJJJJJSSJJJJGCCCJJJJJDJJJJJJJJAKKKKKKKKKKKKKKKKKKKKKKKKKKKK",
"AAJGGGJJJJJSSJJJJGCCCJJJJJDJJJJJJJJAKKKKKKKKKKKKKKKKKKKKKKKKKKKK",
"AAJGGGJJJJJSSJJJJGCCCJJJJJDJJJJJJJJAKKKKKKKKKKKKKKKKKKKKKKKKKKKK",
"AAJGGGJJJJJJCJJJJGCCCJJJJJAJJJJJAAAABKKKKKKKKKKKKKKKKKKKKKKKKKKK",
"AAJGGGJJJJJJCJJJJGCCCJJJJJAJJJJJAAAABKKKKKKKKKKKKKKKKKKKOK KKKKK",
"AAJGGGJJJJJJJJJJJJCCCJJJJJAJGJJAJJJ67NKKKKKKKKKKKKKKKKKKOK KKKKK",
"AAJGGGJJJJJJJJJJJJCCCJJJJJAJGJJAJJJ67NKKKKKKKKKKKKKKKKKKOK KKKKK",
"KKJJJGJJJJJJCJJJJJCCCJJJJJAJGJJAlll6 zKKKKKKKKKKKKKKKKKKO  KKKKK",
"KKJJJGJJJJJJCJJJJJCCCJJJJJAJGJJAlll6 zKKKKKKKKKKKKKKKKK OOOOKKKK",
"KKJJJGJJJJJJCJJJJJCCCJJJJJAJGJJAlll6 zKKKKKKKKKKKKKKKKK OOOOKKKK",
"AAJJJGJJGJJJCJJJJJCCCJGJJJAJGJJAkkk# KKKKKKKKKKKKKKKKK  OO <OOOK",
"KKAJJGGGJJJJCJJJJJCCCJJJJJAJJAAV555X KKKKKKKKKKKKKKKKK  OO@OOOOO",
"KKAJJGGGJJJJCJJJJJCCCJJJJJAJJAAV555X KKKKKKKKKKKKKKKKK  OOOOOOOO",
"KKAJJGGGJJJJCJJJJJCCCJJJJJAJJAAV555X KKKKKKKKKKKKKKKKK  OOOOOOOO",
"KKAAAAAAAAAJJJJJJJAAAAAAAAAAAAAh,,,  KKKKKKKKKKKKKKKK  nOOOKKKKK",
"KKAAAAAAAAAJJJJJJJAAAAAAAAAAAAAh,,,  KKKKKKKKKKKKKKKK  nOOOKKKKK",
"KKK  ,,,,,,AAAAAAA   ,1333 %333,,,, oKKKKKKKKKKKKKKKK  OOOOKKKKK",
"KKK  ,,,,,,AAAAAAA   ,1333 %333,,,, o8bKKKKKKKKKKKKK...OOOOKKKKK",
"KKKKK ,,,,,% ,,,,,   3,,,3 %,,,,    ;8bKKKKKKKKKKKKK...OOOOKKKKK",
"KKKKK ,,,,,% ,,,,,   3,,,3 %,,,,    ;KbuuuuuuuajOOOOO++OOOOKKKKK",
"KKKKK ,,,,,% ,,,,,   3,,,3 %,,,,    ;KKKKKKw   OOOOOOOOOOOOKKKKK",
"KKKKK --,,,* ::&&&   ::,,4 $,,,=    KKKKKKKw   OOOOOOOOOOOOKKKKK",
"KKKKK                              KKKKKKKKg   OOOOOOOOOOOOKKKKK",
"KKKKK                              KKK   Kv   KOOOOOOOOOOO<KKKKK",
"KKKKK                              KKK     . KKOOOOOOOOOOOKKKKKK",
"KKKKKKKKssssKKKKKKKKKKKKKKKptrrKKKKKKK     . KKOOOOOOOOOOOKKKKKK",
"KKKKKKKKssssKKKKKKKKKKKKKKKptrrKKKKKKKK22    KKOOOOOOOOOOKKKKKKK",
"KKKKKKK0xxxxsKKKKKKKKKKKKKsxO>>0KKKKKKKKKf  KKKOOKKKKKKOOKKKKKKK",
"KKKKKKK0x>>>sKKKKKKKKKKKKKsxO>>0KKKKKKKKKf  KKKOOKKKKKKOOKKKKKKK",
"KKKKKKKsxmx>sKKKKKKKKKKKKKsxmxxyKKKKKKKKKKKKKKKOOKKKKKKOOKKKKKKK",
"KKKKKKKsxmx>sKKKKKKKKKKKKKsxmxxyKKKKKKKKKKKKKKKOOKKKKKKOOKKKKKKK",
"KKKKKKKsxxxxOKKKKKKKKKKKKKsxxxxeKKKKKKKKKKKKKKOOOKKKKKKOOKKKKKKK",
"KKKKKKKsxxxxOKKKKKKKKKKKKKsxxxxeKKKKKKKKKKKKKKOOKKKKKKKOOKKKKKKK",
"KKKKKKKsxxxxOKKKKKKKKKKKKKsxxxxeKKKKKKKKKKKKKKOOKKKKKKKOOKKKKKKK",
"KKKKKKKsqOqqOKKKKKKKKKKKKK0qO990KKKKKKKKKKKKKKOOKKKKKKKOOKKKKKKK",
"KKKKKKKsqOqqOKKKKKKKKKKKKK0qO990KKKKKKKKKKKKKKOOKKKKKKKOOKKKKKKK",
"KKKKKKKKsssOKKKKKKKKKKKKKKKdiiiKKKKKKKKKKKKKKK  KKKKKKK  KKKKKKK",
"KKKKKKKKsssOKKKKKKKKKKKKKKKdiiiKKKKKKKKKKKKKKK  KKKKKKK  KKKKKKK",
"KKcccccccccccccccccccccccccccccccccccccccKKKMccccccccccccccKKKKK",
"KKcccccccccccccccccccccccccccccccccccccccKKKKKccccccccccKKKKKKKK",
"KKKcccccccccccccccccccccccccccccccccccKKKKKKKKKKKKKKKKKKKKKKKKKK",
"KKKKKKKKKKKKKKKKKKKKKKKKKKKKKKKKKKKKKKKKKKKKKKKKKKKKKKKKKKKKKKKK"
};
