/* XPM */
static char *_8030_ed977b1389308208a355ce5e683953e99a5df0ad305ff2d3a93a359789a002b3[] = {
/* columns rows colors chars-per-pixel */
"64 64 71 1 ",
"  c black",
". c #28221F",
"X c #493526",
"o c #4F3827",
"O c #5D3724",
"+ c #5C3B2A",
"@ c #5C3A2B",
"# c #7D322C",
"$ c #5E432B",
"% c #62462E",
"& c #64472C",
"* c #66492F",
"= c #6A4A2C",
"- c #6A4B2D",
"; c #6D4B2E",
": c #6C4C2E",
"> c #7C4B22",
", c #7D4428",
"< c #764730",
"1 c #704F30",
"2 c #6A5537",
"3 c #715031",
"4 c #765333",
"5 c #7A6048",
"6 c #B30B30",
"7 c #C40A33",
"8 c #82451C",
"9 c #985C28",
"0 c #9E5F29",
"q c #9D632D",
"w c #976736",
"e c #A6642B",
"r c #AB672C",
"t c #B36C2E",
"y c #B56D2E",
"u c #A66D35",
"i c #B37133",
"p c #B37234",
"a c #B27A3D",
"s c #BF7A38",
"d c #BB7C3B",
"f c #8B6F43",
"g c #967847",
"h c #8B735D",
"j c #AF7A42",
"k c #A47549",
"l c #A16D66",
"z c #C15168",
"x c #A6854E",
"c c #A8814E",
"v c #A8854D",
"b c #AC894F",
"n c #B88142",
"m c #B48E51",
"M c #90867D",
"N c #B89B62",
"B c #CA944E",
"V c #D7AA5E",
"C c #DF927D",
"Z c #E5A66F",
"A c #B9AEA2",
"S c #DCDDD8",
"D c #DDDED9",
"F c #DEDFDA",
"G c #E1E2DF",
"H c #E2E2E0",
"J c #E3E3E1",
"K c #E6E6E6",
"L c #EAE8EA",
"P c white",
"I c None",
/* pixels */
"IIIIIIIIIIIIIIIIIIIIIIIIIIIIIIIIIIIIIIIIIIIIIIIIIIIIIIIIIIIIIIII",
"IIIIIIIIIIIIIIIIIIIIIIIIIIIIIIIIIIIIIIIIIIIIIIIIIIIIIIIIIIIIIIII",
"IIIIIIIIIIIIIIIIIIIIIIIIIIIIIIIIIIIIIIIIIIIIIIIIIIIIIIIIIIIIIIII",
"IIIIIIIIIIIIIIIIIIIIIIIIIIIIIIIIIIIIIIIIIIIIIIIIIIIIIIIIIIIIIIII",
"IIIIIIIIIIIIIIIIIIIIIIIIIIIIIIIIIIIIIIIIIIIIIIIIIIIIIIIIIIIIIIII",
"IIIIIIIIIIIIIIIIIIIIIIIIIIIIIIIIIIIIIIIIIIIIIIIIIIIIIIIIIIIIIIII",
"IIIIIIIIIIIIIIIIIIIIIIIIIIIIIIIIIIIIIIIIIIIIIIIIIIIIIIIIIIIIIIII",
"IIIIIIIIIIIIIIIIIIIIIIIIIIIIIIIIIIIIIIIIIIIIIIIIIIIIIIIIIIIIIIII",
"IIIIIIIIIIIIIIIIIIIIIIIIIIIIIIIIIIIIIIIIIIIIIIIIIIIIIIIIIIIIIIII",
"IIIIIIIIIIIIIIIIIIIIIIIIIIIIIIIIIIIIIIIIIIIIIIIIIIIIIIIIIIIIIIII",
"IIIIIIIIIIIIIIIIIIIIIIIIIIIIIIIIIIIIIIIIIIIIIIIIIIIIIIIIIIIIIIII",
"IIIIIIIIIIIIIIIIIIIIIIIIIIIIIIIIIFFFFFIIIIIIIIIIIIIIIIIIIIIFFFFF",
"IIIIIIIIIIIIIIIIIIIIIIIIIIIIIIIIIFFFFFIIIIIIIIIIIIIIIIIIIIIFFFFF",
"IIIII IOIIIIIIIIIIIIIIIIIIIIIIIIFFPPPPFFFFIIIIIFFFFFFFFFFFFPPPJP",
"IIIII IOIIIIIIIIIIIIIIIIIIIIIIIIFFPPPPFFFFIIIIIFFFFFFFFFFFFPPPJP",
"IIIII IOIIIIIIIIIIIIIIIIIIIIIIIIFPPPPPPPPDFPIIFSSPFPPPPDPPPPPPPP",
"IIIII IOIIIIIIIIIIIIIIIIIIIIIIIIFPPPPPPPPDFPIIFSSPFPPPPDPPPPPPPP",
"IIIII  OIIIIIIIIIIIIIIIIIIIIIIIIIFPPPPPPPFFFFFPSSPPPPPPFPPKPPPPF",
"IIIIOOOO  IIIIIIIIIIIIIIIIIIIIIIIPPPPPPPPFFPPPPSSPPPPPPFPPPPPKPF",
"IIIIOOOO  IIIIIIIIIIIIIIIIIIIIIIIPPPPPPPPFFPPPPSSPPPPPPFPPPPPKPF",
"IIIIOOOO  IIIIIIIIIIIIIIIIIIIIIIIPPPPPPPPFFPPPPSSPPPPPPFPPPPPKPF",
"IOOO< OO   IIIIIIIIIIIIIIIIIIIIIIFPPPPPPPPFPPPPSSPPPPPPFPLPPPKPF",
"IOOO< OO   IIIIIIIIIIIIIIIIIIIIIIFPPPPPPPPFPPPPSSPPPPPPFPLPPPKPF",
"OOOOO@OO   IIIIIIIIIIIIIIIIIIIIIIFFPPPPPPPFPPPPSSPPPPPPFPPPPPKPF",
"OOOOO@OO   IIIIIIIIIIIIIIIIIIIIIIFFPPPPPPPFPPPPSSPPPPPPFPPPPPKPF",
"OOOOOOOO   IIIIIIIIIIIIIIIIIIIIIIIIFPPPPPPHPPPPSSKPPPGGGPPPKKKPF",
"OOOOOOOO   IIIIIIIIIIIIIIIIIIIIIIIIFPPPPPPHPPPPSSKPPPGGGPPPKKKPF",
"IIIIIOOOMM  IIIIIIIIIIIIIIIIIIIIIIZFFFPPPPFPPPPSSKPPPSSPPPPKKKPF",
"IIIIIOOOMM  IIIIIIIIIIIIIIIIIIIIIIZFFFPPPPFPPPPSSKPPPSSPPPPKKKPF",
"IIIIIOOOMM  IIIIIIIIIIIIIIIIIIIIIIZFFFPPPPFPPPPSSKPPPSSPPPPKKKPF",
"IIIIIOOOOO  IIIIIIIIIIIIIIIIIInnkC76PPFPKPFPPPPSSPPPPPPPPPPKKKPF",
"IIIIIOOOOO...IIIIIIIIIIIIIIn88nnIx 6zzFPKPFPPPPSSPPPPSSPPPPKKPPI",
"IIIIIOOOOO...IIIIIIIIIIIIIIn88nnIx 6zzFPKPFPPPPSSPPPPSSPPPPKKPPI",
"IIIIIOOOOO++OOOOOOjauuuuuuunBIIIII #llFPKPFPPKPSSPPPPSSPPKPKKPPF",
"IIIIIOOOOO++OOOOOOjauuuuuuunBIIIII #llFPKPFPPKPSSPPPPSSPPKPKKPPF",
"IIIIIOOOOOOOOOOOOOO   wIIIIIIIIIII X55AFPPFPPPPSSPPPPSSPPPKKKPFI",
"IIIIIOOOOOOOOOOOOOO   wIIIIIIIIIII X55AFPPFPPPPSSPPPPSSPPPKKKPFI",
"IIIIIOOOOOOOOOOOOOO   gIIIIIIIIIII  ,,hFFFFFFFFFFPPPPPPPFFFFFFFI",
"IIIIIOOOOOOOOOOOOOO   gIIIIIIIIIII  ,,hFFFFFFFFFFPPPPPPPFFFFFFFI",
"IIIIIOOOOOOOOOOOOOO   gIIIIIIIIIII  ,,hFFFFFFFFFFPPPPPPPFFFFFFFI",
"IIIII<OOOOOOOOOOOOOI   bI   IIIIIIo ,,,33% 331,  FFFFFFF,,,,, II",
"IIIIIIOOOOOOOOOOOOOII .     IIIIII;   ,,,% 3,,3  ,,3,  %,,,  III",
"IIIIIIOOOOOOOOOOOOOII .     IIIIII;   ,,,% 3,,3  ,,3,  %,,,  III",
"IIIIIIIOOOOOOOOOOOOII    22IIIIIIII   =,,$ 4,::  &&,:  *,,-  III",
"IIIIIIIOOOOOOOOOOOOII    22IIIIIIII   =,,$ 4,::  &&,:  *,,-  III",
"IIIIIIIOOOIIIIIIIOOIII  fIIIIIIIIIII                         III",
"IIIIIIIOOOIIIIIIIOOIII  fIIIIIIIIIII                         III",
"IIIIIIIOOOIIIIIIIOOIIIIIIIIIIIIIIIIIIIIrtpIIIIIIIIIIIIIsssIIIIII",
"IIIIIIIOOOIIIIIIIOOIIIIIIIIIIIIIIIIIIIIrtpIIIIIIIIIIIIIsssIIIIII",
"IIIIIIIOOOIIIIIIIOOIIIIIIIIIIIIIIIIIIIIrtpIIIIIIIIIIIIIsssIIIIII",
"IIIIIIIOOOIIIIIIIOOOIIIIIIIIIIIIIIIIII0>OcsIIIIIIIIIIssccc0IIIII",
"IIIIIIIOOOIIIIIIIIOOIIIIIIIIIIIIIIIIIIycNcsIIIIIIIIIIsscNcsIIIII",
"IIIIIIIOOOIIIIIIIIOOIIIIIIIIIIIIIIIIIIycNcsIIIIIIIIIIsscNcsIIIII",
"IIIIIIIOOOIIIIIIIIOOIIIIIIIIIIIIIIIIIIecccsIIIIIIIIIIOOcccsIIIII",
"IIIIIIIOOOIIIIIIIIOOIIIIIIIIIIIIIIIIIIecccsIIIIIIIIIIOOcccsIIIII",
"IIIIIIIOOOIIIIIIIIOOIIIIIIIIIIIIIIIIIIecccsIIIIIIIIIIOOcccsIIIII",
"IIIIIIIOOOIIIIIIIIOOIIIIIIIIIIIIIIIIII09Oq0IIIIIIIIIIOOqqqsIIIII",
"IIIIIII   IIIIIIII  IIIIIIIIIIIIIIIIIIIiidIIIIIIIIIIIIIOssIIIIII",
"IIIIIII   IIIIIIII  IIIIIIIIIIIIIIIIIIIiidIIIIIIIIIIIIIOssIIIIII",
"IIIIIII   IIIIIIII  IIIIIIIIIIIIIIIIIIIiidIIIIIIIIIIIIIOssIIIIII",
"vmIIIvvvvvvvvvvvvvvvvVIIIIIIIIvvvvvvvvvvvvvvvvvvvvvvvvvvvvvvvvvI",
"vIIIIIIIvvvvvvvvvvvvIIIIIIIIIIIIIvvvvvvvvvvvvvvvvvvvvvvvvvvvvvII",
"IIIIIIIIIIIIIIIIIIIIIIIIIIIIIIIIIIIIIIIIIIIIIIIIIIIIIIIIIIIIIIII",
"IIIIIIIIIIIIIIIIIIIIIIIIIIIIIIIIIIIIIIIIIIIIIIIIIIIIIIIIIIIIIIII"
};
