/* XPM */
static char *_6137_6f3683e09edd3b98e4f51f6518bf1e4b8dcfe1857f1cdefce911e15e0774bfce[] = {
/* columns rows colors chars-per-pixel */
"64 64 71 1 ",
"  c black",
". c #28221F",
"X c #493526",
"o c #4F3827",
"O c #5D3724",
"+ c #5C3B2A",
"@ c #5C3A2B",
"# c #7D322C",
"$ c #5E432B",
"% c #62462E",
"& c #64472C",
"* c #66492F",
"= c #6A4A2C",
"- c #6A4B2D",
"; c #6D4B2E",
": c #6C4C2E",
"> c #7C4B22",
", c #7D4428",
"< c #764730",
"1 c #704F30",
"2 c #6A5537",
"3 c #715031",
"4 c #765333",
"5 c #7A6048",
"6 c #B30B30",
"7 c #C40A33",
"8 c #82451C",
"9 c #985C28",
"0 c #9E5F29",
"q c #9D632D",
"w c #976736",
"e c #A6642B",
"r c #AB672C",
"t c #B36C2E",
"y c #B56D2E",
"u c #A66D35",
"i c #B37133",
"p c #B37234",
"a c #B27A3D",
"s c #BF7A38",
"d c #BB7C3B",
"f c #8B6F43",
"g c #967847",
"h c #8B735D",
"j c #AF7A42",
"k c #A47549",
"l c #A16D66",
"z c #C15168",
"x c #A6854E",
"c c #A8814E",
"v c #A8854D",
"b c #AC894F",
"n c #B88142",
"m c #B48E51",
"M c #90867D",
"N c #B89B62",
"B c #CA944E",
"V c #D7AA5E",
"C c #DF927D",
"Z c #E5A66F",
"A c #B9AEA2",
"S c #DCDDD8",
"D c #DDDED9",
"F c #DEDFDA",
"G c #E1E2DF",
"H c #E2E2E0",
"J c #E3E3E1",
"K c #E6E6E6",
"L c #EAE8EA",
"P c white",
"I c None",
/* pixels */
"IIIIIIIIIIIIIIIIIIIIIIIIIIIIIIIIIIIIIIIIIIIIIIIIIIIIIIIIIIIIIIII",
"IIIIIIIIIIIIIIIIIIIIIIIIIIIIIIIIIIIIIIIIIIIIIIIIIIIIIIIIIIIIIIII",
"IIIIIIIIIIIIIIIIIIIIIIIIIIIIIIIIIIIIIIIIIIIIIIIIIIIIIIIIIIIIIIII",
"IIIIIIIIIIIIIIIIIIIIIIIIIIIIIIIIIIIIIIIIIIIIIIIIIIIIIIIIIIIIIIII",
"IIIIIIIIIIIIIIIIIIIIIIIIIIIIIIIIIIIIIIIIIIIIIIIIIIIIIIIIIIIIIIII",
"IIIIIIIIIIIIIIIIIIIIIIIIIIIIIIIIIIIIIIIIIIIIIIIIIIIIIIIIIIIIIIII",
"IIIIIIIIIIIIIIIIIIIIIIIIIIIIIIIIIIIIIIIIIIIIIIIIIIIIIIIIIIIIIIII",
"IIIIIIIIIIIIIIIIIIIIIIIIIIIIIIIIIIIIIIIIIIIIIIIIIIIIIIIIIIIIIIII",
"IIIIIIIIIIIIIIIIIIIIIIIIIIIIIIIIIIIIIIIIIIIIIIIIIIIIIIIIIIIIIIII",
"IIIIIIIIIIIIIIIIIIIIIIIIIIIIIIIIIIIIIIIIIIIIIIIIIIIIIIIIIIIIIIII",
"IIIIIIIIIIIIIIIIIIIIIIIIIIIIIIIIIIIIIIIIIIIIIIIIIIIIIIIIIIIIIIII",
"IIIIIIIIIIIIIIIIIIIIIIIIIIIIIIIIIIIIIIIIIIIIIIIIIIIIIIIIIIIIIIII",
"IIIIIIIIIIIIIIIIIIIIIIIIIIIIIIIIIIIIIIIIIIIIIIIIIIIIIIIIIIIIIIII",
"IIIIIIIIIIIIIIIIIIIIIIIIIIIIIIIIIIIIIIIIIIIIIIIIIIIIIIIIIIIIIIII",
"IIIIIIIIIIIIIIIIIIIIIIIIIIIIIIIIIIIIIIIIIIIIIIIIIIIIIIIIIIIIIIII",
"IIIIIIIIIIIIIIIIIIIIIIIIIIIIIIIIIIIIIIIIIIIIIIIIIIIIIIIIIIIIIIII",
"IIIIIIIIIIIIIIIIIIIIIIIIIIIIIIIIIIIIIIIIIIIIIIIIIIIIIIIIIIIIIIII",
"IIIIIIIIIIIIIIIIIIIIIIIIIIIIIIIIIIIIIIIIIIIIIIIIIIIIIIIIIIIIIIII",
"IIIIIIIIIIIIIIIIIIIIIIIIIIIIIIIIIIIIIIIIIIIIIIIIIIIIIIIIIIIIIIII",
"IIIIIIIIIIIIIIIIIIIIIIIIIIIIIIIIIIIIIIIIIIIIIIIIIIIIIIIIIIIIIIII",
"IIIIIIIIIIIIIIIIIIIIIIIIIIIIIIIIIIIIIIIIIIIIIIIIIIIIIIIIIIIIIIII",
"FFFFFFIIIIIIIIIIIIIIIIIIIIFFFFFIIIIIIIIIIIIIIIIIIIIIIIIIIIIIIIII",
"FFFFFFIIIIIIIIIIIIIIIIIIIIFFFFFIIIIIIIIIIIIIIIIIIIIIIIIIIIIIIIII",
"FPJPPPFFFFFFFFFFFIIIIIFFFFPPPPFFIIIIIIIIIIIIIIIIIIIIIIOI IIIIIII",
"FPPPPPPPPDPPPFPSSFIIPFDPPPPPPPPFIIIIIIIIIIIIIIIIIIIIIIOI IIIIIII",
"FPPPPPPPPDPPPFPSSFIIPFDPPPPPPPPFIIIIIIIIIIIIIIIIIIIIIIOI IIIIIII",
"FFPPPPKPPFPPPPPSSPFFFFFPPPPPPPFIIIIIIIIIIIIIIIIIIIIIIIO  IIIIIII",
"IFPKPPPPPFPPPPPSSPPPPFFPPPPPPPPIIIIIIIIIIIIIIIIIIIIII OOOOIIIIII",
"IFPKPPPPPFPPPPPSSPPPPFFPPPPPPPPIIIIIIIIIIIIIIIIIIIIII OOOOIIIIII",
"IFPKPPPLPFPPPPPSSPPPPFPPPPPPPPFIIIIIIIIIIIIIIIIIIIII  OO <OOOIII",
"IFPKPPPLPFPPPPPSSPPPPFPPPPPPPPFIIIIIIIIIIIIIIIIIIIII  OO <OOOIII",
"IFPKPPPPPFPPPPPSSPPPPFPPPPPPPFFIIIIIIIIIIIIIIIIIIIII  OO@OOOOOII",
"IFPKKKPPPGGPPPKSSPPPPHPPPPPPFIIIIIIIIIIIIIIIIIIIIIII  OOOOOOOOII",
"IFPKKKPPPGGPPPKSSPPPPHPPPPPPFIIIIIIIIIIIIIIIIIIIIIII  OOOOOOOOII",
"IFPKKKPPPPSPPPKSSPPPPFPPPPFFFZIIIIIIIIIIIIIIIIIIIII  MOOOIIIIIII",
"IFPKKKPPPPSPPPKSSPPPPFPPPPFFFZIIIIIIIIIIIIIIIIIIIII  MOOOIIIIIII",
"IFPKKKPPPPPPPPPSSPPPPFPKPFPP67CknIIIIIIIIIIIIIIIIII  OOOOIIIIIII",
"IIPPKKPPPPSPPPPSSPPPPFPKPFzz6 xIn88nIIIIIIIIIIIIII...OOOOIIIIIII",
"IIPPKKPPPPSPPPPSSPPPPFPKPFzz6 xIn88nIIIIIIIIIIIIII...OOOOIIIIIII",
"IFPPKKPKPPSPPPPSSPKPPFPKPFll# IIIIBnuuuuuuuajOOOOOO++OOOOIIIIIII",
"IIFPKKKPPPSPPPPSSPPPPFPPFA55X IIIIIIIIIIw   OOOOOOOOOOOOOIIIIIII",
"IIFPKKKPPPSPPPPSSPPPPFPPFA55X IIIIIIIIIIw   OOOOOOOOOOOOOIIIIIII",
"IIFFFFFFFPPPPPPFFFFFFFFFFh,,  IIIIIIIIIIg   OOOOOOOOOOOOOIIIIIII",
"IIFFFFFFFPPPPPPFFFFFFFFFFh,,  IIIIIIIIIIg   OOOOOOOOOOOOOIIIIIII",
"III ,,,,,FFFFFF  ,133 %33,,, oIIIII   Ib   IOOOOOOOOOOOO<IIIIIII",
"IIII  ,,,% ,3,,  3,,3 %,,,   ;IIIII     . IIOOOOOOOOOOOOIIIIIIII",
"IIII  ,,,% ,3,,  3,,3 %,,,   ;IIIII     . IIOOOOOOOOOOOOIIIIIIII",
"IIII  -,,* :,&&  ::,4 $,,=   IIIIIII22    IIOOOOOOOOOOOIIIIIIIII",
"IIII                        IIIIIIIIIIf  IIIOOIIIIIIIOOIIIIIIIII",
"IIII                        IIIIIIIIIIf  IIIOOIIIIIIIOOIIIIIIIII",
"IIIIIIIsssIIIIIIIIIIIIptrIIIIIIIIIIIIIIIIIIIOOIIIIIIIOOIIIIIIIII",
"IIIIIIIsssIIIIIIIIIIIIptrIIIIIIIIIIIIIIIIIIIOOIIIIIIIOOIIIIIIIII",
"IIIIII0cccsIIIIIIIIIIscO>0IIIIIIIIIIIIIIIIIOOOIIIIIIIOOIIIIIIIII",
"IIIIIIscNcsIIIIIIIIIIscNcyIIIIIIIIIIIIIIIIIOOIIIIIIIIOOIIIIIIIII",
"IIIIIIscNcsIIIIIIIIIIscNcyIIIIIIIIIIIIIIIIIOOIIIIIIIIOOIIIIIIIII",
"IIIIIIscccOIIIIIIIIIIsccceIIIIIIIIIIIIIIIIIOOIIIIIIIIOOIIIIIIIII",
"IIIIIIscccOIIIIIIIIIIsccceIIIIIIIIIIIIIIIIIOOIIIIIIIIOOIIIIIIIII",
"IIIIIIsqqqOIIIIIIIIII0qO90IIIIIIIIIIIIIIIIIOOIIIIIIIIOOIIIIIIIII",
"IIIIIIIssOIIIIIIIIIIIIdiiIIIIIIIIIIIIIIIIII  IIIIIIII  IIIIIIIII",
"IIIIIIIssOIIIIIIIIIIIIdiiIIIIIIIIIIIIIIIIII  IIIIIIII  IIIIIIIII",
"IIvvvvvvvvvvvvvvvvvvvvvvvvvvvvvvvIIIIIIIIVvvvvvvvvvvvvvvvIIImvvv",
"IIIvvvvvvvvvvvvvvvvvvvvvvvvvvvvIIIIIIIIIIIIvvvvvvvvvvvIIIIIIIvII",
"IIIIIIIIIIIIIIIIIIIIIIIIIIIIIIIIIIIIIIIIIIIIIIIIIIIIIIIIIIIIIIII",
"IIIIIIIIIIIIIIIIIIIIIIIIIIIIIIIIIIIIIIIIIIIIIIIIIIIIIIIIIIIIIIII"
};
