/* XPM */
static char *_24_0d23eca89328f134ab70b916ede46ad813c124d6a5ced6249bb41bd82f30cf7c[] = {
/* columns rows colors chars-per-pixel */
"64 64 251 2 ",
"   c #2D231E",
".  c #0C1E37",
"X  c #181A35",
"o  c #351C2F",
"O  c #0D213B",
"+  c #132138",
"@  c #2D292F",
"#  c #7F1819",
"$  c #56192F",
"%  c #7B0E29",
"&  c #69162A",
"*  c #7C1927",
"=  c #7B152B",
"-  c #6B1935",
";  c #771733",
":  c #4D2D33",
">  c #6C2532",
",  c #5B432D",
"<  c #5C4838",
"1  c #634E3B",
"2  c #65513E",
"3  c #6A523D",
"4  c #765A3F",
"5  c #361F42",
"6  c #142C4B",
"7  c #17314B",
"8  c #31334D",
"9  c #611E40",
"0  c #4D3346",
"q  c #433554",
"w  c #703545",
"e  c #1D465B",
"r  c #32576C",
"t  c #444752",
"y  c #695443",
"u  c #735D48",
"i  c #6F604F",
"p  c #77604A",
"a  c #7D644D",
"s  c #7B6855",
"d  c #4A4964",
"f  c #706975",
"g  c #8A181D",
"h  c #971A1D",
"j  c #AD1B0B",
"k  c #9C2519",
"l  c #A72619",
"z  c #B82D1E",
"x  c #890E2A",
"c  c #891727",
"v  c #84142D",
"b  c #831C2C",
"n  c #961828",
"m  c #871933",
"M  c #961A32",
"N  c #A60C24",
"B  c #A91D2A",
"V  c #B8192A",
"C  c #A61F35",
"Z  c #B31534",
"A  c #87272C",
"S  c #97242A",
"D  c #9B2635",
"F  c #933537",
"G  c #A72426",
"H  c #AB252C",
"J  c #AE2A2C",
"K  c #B62A29",
"L  c #BB2B2C",
"P  c #B2362C",
"I  c #A62633",
"U  c #B82A34",
"Y  c #A73C33",
"T  c #CB2B1C",
"R  c #D02B1E",
"E  c #D8381B",
"W  c #E43C1D",
"Q  c #F0371D",
"!  c #C51D26",
"~  c #D41B27",
"^  c #D82627",
"/  c #CA3925",
"(  c #D63824",
")  c #CA3230",
"_  c #D53A37",
"`  c #E42429",
"'  c #E73826",
"]  c #F53C23",
"[  c #FA3B26",
"{  c #FD3D2A",
"}  c #E73932",
"|  c #F23832",
" . c #DC4C1A",
".. c #E6471B",
"X. c #F14A1B",
"o. c #E9591C",
"O. c #FD581D",
"+. c #EA651B",
"@. c #F5651A",
"#. c #F67A1B",
"$. c #DB4428",
"%. c #DA4838",
"&. c #CD5031",
"*. c #E44422",
"=. c #E64A28",
"-. c #F54726",
";. c #FC442B",
":. c #FD4D2E",
">. c #EA5226",
",. c #F95827",
"<. c #E74835",
"1. c #F94836",
"2. c #FC4D34",
"3. c #ED5C36",
"4. c #FC5538",
"5. c #D16831",
"6. c #EB6929",
"7. c #FA6927",
"8. c #EB752B",
"9. c #FD7325",
"0. c #F77D27",
"q. c #FD7B24",
"w. c #FE722B",
"e. c #E96E36",
"r. c #FC6335",
"t. c #FC643A",
"y. c #F86A39",
"u. c #FC7433",
"i. c #FF723A",
"p. c #FD7A38",
"a. c #CE3B49",
"s. c #B7524D",
"d. c #846A51",
"f. c #826B55",
"g. c #846E59",
"h. c #8D7256",
"j. c #8A745A",
"k. c #8B755D",
"l. c #867767",
"z. c #947C64",
"x. c #B46F61",
"c. c #DC4745",
"v. c #D25645",
"b. c #E95647",
"n. c #FD5B43",
"m. c #F95A4A",
"M. c #CF6D54",
"N. c #FC6345",
"B. c #EF704F",
"V. c #F77645",
"C. c #FF6960",
"Z. c #FC851D",
"A. c #FF9E1D",
"S. c #FBA81D",
"D. c #FC8326",
"F. c #FC8727",
"G. c #FD8D2B",
"H. c #F59127",
"J. c #FC9225",
"K. c #FB9A25",
"L. c #FC952A",
"P. c #FD9C2C",
"I. c #FC8935",
"U. c #ED9B3E",
"Y. c #FE9C32",
"T. c #FD9638",
"R. c #FAA526",
"E. c #FEA22C",
"W. c #FDA533",
"Q. c #FBAB36",
"!. c #FAAF34",
"~. c #FBCF3D",
"^. c #9A8469",
"/. c #988C75",
"(. c #A48A6B",
"). c #A38D75",
"_. c #A9957A",
"`. c #B69B7B",
"'. c #B5A17D",
"]. c #D38A4C",
"[. c #F18C55",
"{. c #F8A747",
"}. c #F0AD4C",
"|. c #F9BB45",
" X c #CB8A70",
".X c #EF9271",
"XX c #F7B375",
"oX c #FEC64A",
"OX c #FDD34B",
"+X c #FCD857",
"@X c #FEC763",
"#X c #FCD374",
"$X c #6B7085",
"%X c #AD9982",
"&X c #B49D83",
"*X c #B89E80",
"=X c #BBA489",
"-X c #B5AB8F",
";X c #BBB1A5",
":X c #DF9787",
">X c #F39F85",
",X c #C3A888",
"<X c #C4AB8B",
"1X c #CEB08F",
"2X c #C4AD93",
"3X c #CDAF90",
"4X c #CCB394",
"5X c #CBB69A",
"6X c #CCB59A",
"7X c #D2B799",
"8X c #D4BB9C",
"9X c #D9BE9E",
"0X c #FCB787",
"qX c #F5AC92",
"wX c #CDBBA4",
"eX c #D4BDA2",
"rX c #D9BFA1",
"tX c #F4BAAC",
"yX c #CAC19F",
"uX c #D9C09F",
"iX c #FECA85",
"pX c #FCC997",
"aX c #FDD497",
"sX c #D6C1A4",
"dX c #DBC4A4",
"fX c #DBC6AA",
"gX c #DCC7A8",
"hX c #DEC9AC",
"jX c #DECCB1",
"kX c #E2C8A7",
"lX c #E2C9A9",
"zX c #E3CCAC",
"xX c #FCC7A8",
"cX c #E8D0AF",
"vX c #FBD4AA",
"bX c #FCDBAD",
"nX c #E3CEB2",
"mX c #E7CDB2",
"MX c #E6D1B3",
"NX c #E9D3B4",
"BX c #E5D4BA",
"VX c #EAD6BA",
"CX c #EDD8B8",
"ZX c #ECD9BC",
"AX c #FAD9B3",
"SX c #F1DCBD",
"DX c #F4CCC9",
"FX c #EDDDC2",
"GX c #F1DEC3",
"HX c #F4E3C8",
"JX c #FAECD0",
/* pixels */
"4X7X9XcXhXgXCXCXFXBXCXNXVXZXNXdX^.s `.%X^.<XCXZXCXcXcXzXhXMXdX9XdXdX5X8XuXfXnXjXNXhXVXMXeX5X6X7XsXu z.dXhXBXfXsXeX&XwXlXlXfX2X6X",
"dX9X4XkX8XuXMXVXVXVXVXZXZXSXSX4Xp 5XCXCXsX^._.4XCXCXNXzXnXzXkX9X8X7XfXcXhXuXjXBXVXgXjXzX6XsXrX6X7Xu ^.dXhXMXMXsXnXwXwXBXBXFX6X2X",
"uXdXhXzXcXcXcXVXMXzXNXCXCXcXCX7Xp dXMXMXnXVXsX)._.^.5XCXzXNXpXkX8X8XgXzXfXfXjXfXhX7XMXzXsXhXhX5XdXj.j.9XjXBXMXMXeX6XwXmXnXBXrXwX",
"zXkXkXdXdXdXNXNXVXNXcXCXCXNXkX`.y MXCXCXCXnXVXNXgX8Xk._.<XvX7..X.XbXdX4XBXBXFXBXMXkXuXdXzXuXuX5XzXz.3 zXnXNXVXhXdX2X-XeXwXjXfXeX",
"zXkXkXdXdXdXcXNXNXcXcXCXNXNXcX`.y BXCXVXVXcXCXNXgX8Xk.0XpXe.,.,.4.XX0X5XBXBXBXBXBXhXuXgXzXrX8X6XzXz.3 zXzXNXCXzXfX2X-X8XeXjXfXrX",
"MXzX7XhXzXzXSXCXkX'.uXCXCXNXbXh.s CXZXVXZXMXhXhXzXkXdX0X0X6.,.7.,.XX0XjXFXBXBXFXZXjXhXnXzXlXkX8XmX&X1 uXCXVXCXcXVXeX7XsXeX6X6XdX",
"kXsXuX8X<X<X<X)._.wX^.(.,X7X=Xi 5XNXVXVXNXnXmXMXbXAXAX3.4.,.,.,.,.,.O.pXhXBXBXyXnXFXZXZXNX8X9XsXuX<X, =XdX,X'.`.'.8X1XdXdX1XsXfX",
"^.j.s ^.&X%X=X-XZXZXcXuX_.h.p yXcXBXMXNXcXcXcXBXbXaXaX[.,.7.7.,.7.,.,.aXBXjX5XwXMXNXhXNXMX8X7X=Xu g.g.a s ^.k.f.1 a d.h.z.d.(.z.",
"BXsXsXNXcXNXCXCXnXcXcXdXcXh.).cXMXMXMXMXCXjX}.#XU.J.H.o.q.X.I...Q p.o.G.Q.W.iX#X[.gXjXjXVXdXgXk.-XsXfXfXjXhXMXuX4X2X%X2X2X%Xi u ",
"8X<XjXnXzXzXcXNXZXNXnXkXcXp k.CXcXNXMXNXMXMXK.K.K.K.K.J.Z...J.J.K.K.J.J.R.E.R.G.Q.jXBXhXsXs f.).VX5XfXMXdXdXcXMXcXzXeXeXeXrX%X1 ",
"9X,XsXnXcXnXNXMXZXFXCXNXCX_.k.kXcXcXNXcXCXjXR.R.P.J.K.L.Z...K.J.H.J.F.J.R.P.R.F.}.HXCXdXs /.).hXnX6XyXmXhXjXgXjXmXmXhXhXlXCX).: ",
"VX9X3XdXMXNXVXZXVXZXCXNXCX(.=XkXkXcXbXaXS.R.R.K.T.J.J.J.H.L.K.Z.Z.Z.Z.D.Z.Z.q.#.#.iXpXs %XBXMXhXNXeX-XNXnXNXBXsXfXlXfX6X6XsX_.3 ",
"kXkX7XsXMXcXMXZXNXCXNXNXdXi uXbXbXAXaXXXF.F.P.P.L.L.P.L.J.J.J.#.Z.0.7.9.9.9.7.6.,.v.v.v.cXNXMXmXNXMX-XCXVXZXZXBXnXzX8X2X2X2Xd.2 ",
"lXgX7XsXcXcXMXZXCXCXNXNXdXi sX!.|.@XH.q.Z.q.q.9.O.O.,.u.F.J.G.G.H.+.>.>.>. .>.$.=.' ' %.cXmXMXmXmXjX=XZXVXZXZXBXnXhX8X2X2X<Xd.y ",
"7XrX9XdXjXzXcXCXNXNXCXNX-X, fX|.|.@XH.q.q.q.q.7.O.O.O.w.J.F.J.G.F.+.X.$.>.>.>.%.=.' ` b.sXVXVXFXZXZX=XBXVXFXBXZXjXnXnXhXzX5Xy (.",
"6XfXzXdXMXMXNXBXCXNXuXkXyX: sX!.R.D.q.Z.q.p.q.w.O.-.-...F.F.D.D.Z.6. . .k l * s.;.-.-.<.&.vXjXsXNXVX=XgXBXZXmXgXeXhXNXzXzXmX%Xa ",
"7XfXBXzXBXVXGXFXHXFXfXwX5X< }.!.!.D.q.q.p.q.q.w.,.X.>.p.I.F.G.G.G.L.l g g g h } ;.;.;.{ ;.XX@X@XhXSX2X2XfXsXfXsXsXsXhXMXnXjXfX=X",
"=X7XkXNXZXVXGXdXeX5XwXMXFX}.E.W.W.D.q.q.q.q.q.7.,.-.-.>./ e.e.8.8.>.G j V.V.F.>.V.2.4.4.2.' W W 1.HX2XsXHXZXFXBXgXfXfXsXsXjXeXfX",
"7X&X2XhX6XwX=XfXMXVXHXZXFX}.W.W.W.D.q.q.q.q.q.7.,.-.>.$./ 5.e.8.e.o.G k B.e.I.o.N.4.4.:.2.' *.*.1.HX=XsXZXFXZXFXnXhXfXCXZXgX^.5X",
"zXrX5X-X6X6XBXBXSXZXGXZX$.Y.L.Y.P.q.q.q.9.9.9.r.>.*...$.S A & B n D h D.D.F.q.D.u.4.4.4.4.' E ( ;.<.vXfXFXVXcXFXNXhXnXkXhXa s &X",
"MXfXjXhXjXjXVXmXSXv.b.| { { D.P.Y.q.q.q.9.9.9.7.o.*.$.S M ].$ !.W.B p.D.D.D.q.p.u.4.4.4.:.( R R ( ` _ SXHXhXBXZXMXMXcXa a s jXhX",
"BXFXnXeXFXFXZXFXNXbXbX-.{ { T.K.P.D.@.q.9.9.9.7.>.....k +XOX!.R.W.W.=.r.y.y.y.i.r.:.:.:.;.R ( R ( ^ ^ pXNXhXBXZXNXZX`.g.f.lXMXmX",
"ZXFXjXwXGXFXZXZXbXqXqX@Xy.W.X.o.,.@.,.9.9.9.@.7.>...o.S OXOX!.S.S.E.r.m.N.N.N.N.4.;.;.{ [ ( ( E R T ~ qXBXfXCXZXBXCX`.s s hXcXMX",
"VXBXfX8XmXmXfXFXAXqXqX@Xe.Y.X.7.6.O.7.w.9.9.7.7.o... .l +XOX!.S.S.E.r.m.N.N.n.n.4.;.;.[ [ ( / R E T ~ qXFXBXFXFXFXsXy eX8XNXVXhX",
"NXVXjXdXnXnXBXVXaXM.M.+X@XJ.X.X.X.;.-.;.2.2.4.1.P +X+XOX+X~.S.S.S.R.S.R.z L :.:.1.} } ' ) C I I H V ! >XBXZXHXJX2Xi =XjXjXBXMXVX",
"CXMXzXBXhXhXNXFX#X+X+X+XOXP.K.K.J.E ;.;.2.4.:.| ) Q.W.W.R.R.#.+.+.@.+.o.I C R 2.;.' } } ! I M B n C x kXZXHXHX=Xs 2XeXBXmXFXFXVX",
"GXZXNXhXfXfXMXVXaX+X+X+XOXL.P.G.L.Q Q E ! ! m.a.`  .5.L.T.H.+.o.+.>.o.j h h Z 1.' } ' ` ) S x g v ; = tXFXfXg.).jXjXZXFXFXZXBXMX",
"nXmXkXdXnXhXNXMX#X+X+X+XOXL.L.L.G.Q Q ^ ! ~ | a.` 5.6.L.T.R.+.o.o.o. .j h h Z ;.( } } R ) D c x v v ; tXbXl.wXHXFXZXZXBXBXBXfXMX",
"MXgX4XgXzXnXzXlX+XOX|.|.!.I.p.$.$.' ' ! V V M w V ! ! V.Y.G.+.>.>.o.P b $ $ V g v l Y P e.3.g g m m C S x. XJXFXFXVXFXFXFXfXjXBX",
"cXkX8X1XcXzXfXMXQ.Q.Q.W.W.p.y.( ( ( j V m.m.a.s.b.;.| %.* # # b * # # $ A k % c M Y.W.R.W.7.O.@.x H z K Y Y HXFXZXZXFXZXZXMXVXjX",
"SXNXkX7XlXgXhXfXV.W.R.T.V.r.u.i.u.*.' c.<.b.m.C.C.;.;.-.P * m g g OX|.5.W.Y.S g [.P.Y.E.L.@.<.=.M B I L M.x.fXFXFXFXFXVXZXrXdXzX",
"CXcXdX6XzXhXgXfX[.W.!.T.i.t.u.i.i...$.c.b.1.m.C.C.;.;.1.P * = c b oX|.5.Y.Y.S g [.Y.Y.E.K.O.<.<.c M U P M.M.fXFXFXFXZXZXVXrXgXzX",
"CXNXdX7XkXkXzX[.,.,.@.p.y.i.u.i.i. .*.=.n.1.C.C.C.;.1.-.T S [.+.+.oXoXK.T.T.q.h v &.&.Z.G.3.l l % M K H D D a.GXFXFXFXVXZXrXfXzX",
"NXcXrX9X9X9X.X{ ] *.' ;.:.i.p.y.i...*.$.) _ %.m.m.' | ] )  .e.F.Z.~.oXL.J.J.w.e.G # # * n n v v - x H n m m Z :XGXZXZXmXmX8XsXzX",
"7X1X7X9XlXlX.X{ ] ] [ ] :.r.u.V.N...( G I I U m.n.} } ` G e.7.9.6.!.!.0.9.0.>.o.l ; ; m m x ; ; ; m b M C M Z tXAXNXNXmXnXhXkXmX",
"1X1X<X4XnXmX[ ;.{ { { ] [ ] >.p.u.$.$.n m m m c.4.G l n % &.3.@.O.E.Y.@.+.+.*.&.* & & = v = & $ & b m D C C Z ! xX*XzXcXMXNXfXnX",
"kX9X1XrXdXvX{ { ;.{ { ;.{ ] >.u.i.E $.n m m m b.4.G G G x &.3.O.O.E.E.+.+.+.$.&.g & & = x ; & & & v M D M I Z ! xX3 (.fXhXlXzXzX",
"lXkXlXcXzXxX{ { [ ] ] [ { ^ ;.( ( G B M c M J m.n./ / g * c S L ) K.T. .$. .J c & x x h c.D D D v M H C B C V V vX`.u <X<XzXsXMX",
"a *X3XrXmXzXlXB.-.r.4.r.X.;.W E E ..*.B b.c.n.m.4.*.W z c n n m b s.b n D D = M n h n i.N.I H H n B *.%.B B s.(.AXkXg.u u dX9X`.",
"&X*X_.(.(.(.y [.r.r.r.r.3.( m.y.r.>.*.( m.N.m.n.n.W ..( / J c._ ) c n & * = D U n N.t.4.y.I J J P / ..*.=.' v.NXzXmXeX1 1 h.a z.",
"mXlXdX6X<X<Xz.[.t.t.t.r.2.( N.r.y.>.*._ N.m.m.4.n.' *. .T H c.) ) M n & % = I U N N.N.t.y.H J H J / =.*.=.<.&.cXmXGXSX).).^.eXZX",
"nXmXzXkXNXcXAXB...y.r.r./ J N.7.t.>.E $.g x b.n.4.*.*.E ( m J U U I D ; ; ; D a.N.i.y.y.N.J K P K L ( *./ )  XMXVXGXVXg.h.&XHXVX",
"jXmXmXdXNXNXAX.X-.[ -.O./ S l 4.4.2.E I n x A m.n.E E / g m D I D D w $ v % x M I ) ) ,.2.J l K K  ...S m A :XMXVXFXCXg.g.`.HXVX",
"lXmXnXnXcXNXAX3.] Q ' Q $.G z >.>.>.l Y % % x % 4.T T w & : 8 > > - $ x x n x M ; n c c k b v v c c M b A c A dXmXCXHX).).z.GXZX",
"NXzXzXcXMXmXjX%.] Q ] Q $.l K *.=.>.U D % % m % 4.T T 1 & 0 0 w - - o M n c M x m n n g N * c v c c b b A c A CXMXZXFXwXsXp zXSX",
"MXkXzXMXmXmXnXvX| [ [ Q E T ( } ' R > M & $ v - n = = q $ d 6 $ 9 9 w n x n m $ v & - % m & ; > A b A b b = AXVXVXGXZXwXwXu zXSX",
"uXkXMXlXhXhXhXB.' ] ] Q ' ' ` ^ ` ^ U 9 q 8 $ ; @ NXVXw 5 d 7 f f 5 ,XN n n @ x.- $ : 5 - ; ; ; * = v = A b F mXZXcXFXs s k.ZXNX",
"rX9XMXVXNXNXjX5XNXhXnXhX9X) ^ ` ` ^ ^ ~ Z C 0 8 $XVXnXVXd r 7 f f + MXCX@ @ o o $ - - - ; ; & - > zXkX8X5XgXzXrXmXVXnXy y ,XSXGX",
"8XnXmXmXzXzXkXeXzXrXfX7XrX) ^ ^ ` ~ ^ ~ I B 0 8 $X^.f NXr r 8 f f + MXMX@ @ o o : 9 - ; & * & , > zXzXMXVXNXNXlXZXGX&X2 2 MXNXMX",
"kXcXzXlXcXcXlX2X4XnXlX8XrXzXnXv.c.^ ~ U g.rXMX;X7 7 e '.i r 6 . + VXFX  X .   DXfXx.x.- & & uXgXzXuXhXCXNXzXVXNXZXZX`.d.d.NXNXlX",
"zXMXdXzXdXrXeXjXeXfXsXdXfXhXnXdX4XeXcXNX*Xk.jXZXVXeXwXe e r 6 O 6 CXX , jXZXjXhXfXlXBX8XkXkXkXgXZXnXZXZXzXNXHXGXcXcX,X1 3 uXzXcX",
"zXMXdXzXsXrXwXzXeXfXdXdXdXjXnXgX7X8XNXcX`.k.fXZXVXlXCXh.e r 6 . O O ZXjXMXZXMXhXgXhXNX8XkXkXkXyXZXnXZXZXzXNXHXGXNXzX,X1 1 sXzXmX",
"zXfXfXlXsXdXzXNXmXdXfXfXMXNXCXjXkX9XkXkXkX<X^.fXzXVX9X2 l.r 6 6 O t dXkXnXBXFXhX8XdXzX4XFXBXMXgXVXMXBXfX5X).^.g.f.g.^., , ,XNXVX",
"9XrXmXmXjXjXNXNXnXzXlXnXfXhXMXBXNXuX9X9XnXGX2X^.dXNX,Xu /.r 6 O O gXNXcXnXBXnXfXsXzXVX8XgXBXMXMXVXMXs y g.^._.=X<X2XrXa a 2XdX=X",
"3XkXnXzXhXdXlXzXMXzXzXNXfXnXgXNXNXdXfXfXfXFXxXI :Xs u y jXr 6 O O gXMXNXMXsXNXgXlXdXrXs y /._._.7X^.^.4XdXVXCXVXlXVXZX< < z.4X2X",
"_.mXVXkXlXhXzXdXhXzXmXnXzXnXBX0XtXM.HXGXZXnXs.U M xXpXAXwXr 6 6 O ).SXx.NXlXcXhX4X=Xg.s _.-X-X_.^.(.dX8XMXNXSXCXMXVXmXd.s &XSXZX",
"p MXmXnXBXNXzXnXzXhXCXcXuX<X`.qX>X@XU.pX/.2 P U D XXXXQ.5.r 6 X X 1 ).bXB.].y.,.a u s 7XkXzXzXmXuX8XzXdXzXhXMXZXSXCXdXa a ^.VXNX",
"< mXMXhXmXmXMXzXMXMXuX_.4 3 2 qXqXXXI.pX).%XY U M XXXX{.5.r 6 O X k.z.g.].e.y.,.XXAX*X).zXzXmX].XXNXMXMXzXcXVXMXZXNXNX`.*X1 8XSX",
"y &XnXNXZXVXMXmXNXY Y s.v.eXdX!.Q.E.D.q.iXiX X.X{.W.W.Z.#.4 7 6 6 X iXXX6.6.O.:.e..X.X.XM.c 7XdXjXBXxX%.MXvXVXcXzXzXVXkXkX(.d.6X",
"k.s zXmXFXZXMXNXY S G I Y BX}.Q.Q.A.q.u.b.e.x.XXP.G.J.Q.!.U.t + 7 . 4 G.@.@.,.,.,.,.,.>.%.n F A AXnX[.-.$.%.zXCXMXcXNXzXmXzX2X2 ",
"k.s zXmXZXFX.XMX.XJ G K 4.4.I.Z.Z.q.>.2.1.1.K K =.0.p.8.D.H.8 q q F } =.2.>._ R L H J L I S n n xXqX6. .*.E aXZXMXmXcXzXL L -Xy ",
"U y w.L L zX:X)..XG G K 1.4.I.Z.Z.0.>.2.1.1.J K <.u.8.0.8.D.t 0 q F } <.:.:.( ( L J J L I n n n xXqX6.*.$.' iXAXCXmXw.L w.:.NXy ",
"2.w.w.w.:.L 2.U C ! K 1.:.:.-.-.-.' <.2.2.2.K K H ) L G M A : c.a.} _ L 1.2.:.-.T U U L U I A M b xXI.H.Y.Y.W.L L :.L w.w.:.:.L ",
"w.w.w.w.:.:.:.l &.y.r.,.,.,.6.7.7.r.w.7.7.u.@.,.,.o.>.o.,.8.V.u.u.w.7.u.7.7.>.w.y./ $.<.>.,.=.>.=.$. .6.+.6.F.:.:.U.U.L w.L :.L "
};
