/* XPM */
static char *_8848_0cc9292ee868db221c4baeed06cd675f6951a922e705b603d9ab19eddf92f3b5[] = {
/* columns rows colors chars-per-pixel */
"64 64 181 2 ",
"   c #2A0604",
".  c #3B0C09",
"X  c #390A07",
"o  c #3B1F0D",
"O  c #3D200F",
"+  c #3E2110",
"@  c #480605",
"#  c #4D0D0A",
"$  c #560C0B",
"%  c #5B0D0C",
"&  c #53120E",
"*  c #4E1714",
"=  c #581913",
"-  c #551612",
";  c #650A0A",
":  c #6C0B0B",
">  c #740D0B",
",  c #64100D",
"<  c #79120E",
"1  c #6E1D1A",
"2  c #7D1310",
"3  c #771813",
"4  c #412514",
"5  c #462C1B",
"6  c #45281C",
"7  c #5A2F17",
"8  c #55211D",
"9  c #5C321A",
"0  c #4D3423",
"q  c #523A2A",
"w  c #583825",
"e  c #532A27",
"r  c #6E2621",
"t  c #623E29",
"y  c #613C26",
"u  c #613734",
"i  c #594232",
"p  c #5E4738",
"a  c #64412B",
"s  c #694936",
"d  c #624C3D",
"f  c #6A4F47",
"g  c #6C5242",
"h  c #6E544C",
"j  c #6E5A4C",
"k  c #735C4D",
"l  c #705545",
"z  c #735E51",
"x  c #795651",
"c  c #754E4B",
"v  c #79665A",
"b  c #7B695D",
"n  c #7F6D61",
"m  c #800D0A",
"M  c #89120E",
"N  c #99120F",
"B  c #950F10",
"V  c #861313",
"C  c #8B1212",
"Z  c #8B1E19",
"A  c #881C17",
"S  c #941413",
"D  c #9C1614",
"F  c #9A1A15",
"G  c #941B16",
"H  c #A21612",
"J  c #A91613",
"K  c #A61A15",
"L  c #AA1914",
"P  c #A71C1B",
"I  c #B31915",
"U  c #B91914",
"Y  c #B11E1B",
"T  c #B51713",
"R  c #88231C",
"E  c #93241E",
"W  c #98251F",
"Q  c #A2261E",
"!  c #AC251D",
"~  c #B9231B",
"^  c #B91D21",
"/  c #9D2620",
"(  c #A52720",
")  c #AF2321",
"_  c #AE2820",
"`  c #BB2226",
"'  c #B42821",
"]  c #BB2922",
"[  c #B02421",
"{  c #AE3735",
"}  c #BC3230",
"|  c #C42525",
" . c #CB2525",
".. c #C52A22",
"X. c #CB2B24",
"o. c #D22624",
"O. c #D32A23",
"+. c #DC2B24",
"@. c #E02C23",
"#. c #E92E25",
"$. c #816E6E",
"%. c #906E6B",
"&. c #84766D",
"*. c #857469",
"=. c #947C6E",
"-. c #8B7872",
";. c #B57573",
":. c #93857B",
">. c #767E8E",
",. c #7A8485",
"<. c #7D828E",
"1. c #7B8889",
"2. c #768385",
"3. c #84838E",
"4. c #8A858E",
"5. c #868B8A",
"6. c #948886",
"7. c #9C8F85",
"8. c #9D868F",
"9. c #918B88",
"0. c #9E9087",
"q. c #939493",
"w. c #9E9693",
"e. c #939999",
"r. c #9A9B9C",
"t. c #A2898E",
"y. c #AA898F",
"u. c #B48A8E",
"i. c #A0938B",
"p. c #A69B92",
"a. c #A89C9B",
"s. c #ADA29C",
"d. c #9D9FA1",
"f. c #9CA1A2",
"g. c #A4ABAC",
"h. c #AAADAD",
"j. c #A0A5A6",
"k. c #B9B0AB",
"l. c #ADAEB0",
"z. c #BDB6B3",
"x. c #B2BDBF",
"c. c #BBBBBA",
"v. c #B1AAA9",
"b. c #C38888",
"n. c #CC8F90",
"m. c #CD9494",
"M. c #CE9C9C",
"N. c #D09494",
"B. c #DBAEAE",
"V. c #C5BAB6",
"C. c #ECB3B3",
"Z. c #E5B2B3",
"A. c #E1A7A9",
"S. c #BEBFC0",
"D. c #B6C1C3",
"F. c #BFCACD",
"G. c #BDC3C5",
"H. c #9FD2E3",
"J. c #A6E6FF",
"K. c #C4C4C4",
"L. c #C2CACD",
"P. c #CACCCC",
"I. c #D5D0CC",
"U. c #CCD4D6",
"Y. c #D4DCDE",
"T. c #DBDCDC",
"R. c #E2DDDB",
"E. c #D8DEE0",
"W. c #CEE5ED",
"Q. c #DEE4E4",
"!. c #CCEFFF",
"~. c #D8F3FF",
"^. c #E3E5E5",
"/. c #E5EAEA",
"(. c #E8E7E7",
"). c #F5E8E9",
"_. c #F1F0EF",
"`. c #ECF4F8",
"'. c #F4F5F5",
"]. c #FEFFFF",
"[. c None",
/* pixels */
"[.[.[.[.[.[.[.[.[.[.[.[.[.[.[.[.[.[.[.[.[.[.[.[.[.[.[.[.[.[.[.[.[.[.[.[.[.[.[.[.[.[.[.[.[.[.[.[.[.[.[.[.[.[.[.[.[.[.[.[.[.[.[.[.",
"[.[.[.[.[.[.[.[.[.[.[.[.[.[.[.[.[.[.[.[.[.[.[.[.[.[.[.[.[.[.[.[.[.[.[.[.[.[.[.[.[.[.[.[.[.[.[.[.[.[.[.[.[.[.[.[.[.[.[.[.[.[.[.[.",
"[.[.[.[.[.[.[.[.[.[.[.[.[.[.[.[.[.[.[.[.[.[.[.[.[.[.[.[.[.[.[.[.[.[.[.[.[.[.[.[.[.[.[.[.[.[.[.[.[.[.[.[.[.[.[.[.[.[.[.[.[.[.[.[.",
"[.[.[.[.[.[.[.[.[.[.[.[.[.[.[.[.[.[.[.[.[.[.[.[.[.[.[.[.[.[.[.[.[.[.[.[.[.[.[.[.[.[.[.[.[.[.[.[.[.[.[.[.[.[.[.[.[.[.[.[.[.[.[.[.",
"[.[.[.[.[.[.[.[.[.[.[.[.[.[.[.[.[.[.[.[.[.[.[.[.[.[.[.[.[.[.[.[.[.[.[.[.[.[.[.[.[.[.[.[.[.[.[.[.[.[.[.[.[.[.[.[.[.[.[.[.[.[.[.[.",
"[.[.[.[.[.[.[.[.[.[.[.[.[.[.[.[.[.[.[.[.[.[.[.[.[.[.[.[.[.[.[.[.[.[.[.[.[.[.[.[.[.[.[.[.[.[.[.[.[.[.[.[.[.[.[.[.[.[.[.[.[.[.[.[.",
"[.[.[.[.[.[.[.[.[.[.[.[.[.[.[.[.[.[.[.[.[.[.[.[.[.[.[.[.[.[.[.[.[.[.[.[.[.[.[.[.[.[.[.[.[.[.[.[.[.[.[.[.[.[.[.[.[.[.[.[.[.[.[.[.",
"[.[.[.[.[.[.[.[.[.[.[.[.[.[.[.[.[.[.[.[.[.[.[.[.[.[.[.[.[.[.[.[.[.[.[.[.[.[.[.[.[.[.[.[.[.[.[.[.[.[.[.[.[.[.[.[.[.[.[.[.[.[.[.[.",
"[.[.[.[.[.[.[.[.[.[.[.[.[.[.[.[.[.[.[.[.[.[.[.[.[.[.[.[.[.[.[.[.[.[.[.[.[.[.[.[.[.[.[.[.[.[.[.[.[.[.[.[.[.[.[.[.[.[.[.[.[.[.[.[.",
"[.[.[.[.[.[.[.[.[.[.[.[.[.[.[.[.[.[.[.[.[.[.[.[.[.[.[.[.[.[.[.].].[.[.[.[.[.[.[.[.[.[.[.[.[.[.[.[.[.[.[.[.[.[.[.[.[.[.[.[.[.[.[.",
"[.[.[.[.[.[.[.[.[.[.[.[.[.[.[.[.[.[.[.[.[.[.[.[.[.[.[.[.[.].].].F.^.].].[.[.[.[.[.[.[.[.[.[.[.[.[.[.[.[.[.[.[.[.[.[.[.[.[.[.[.[.",
"[.[.[.[.[.[.[.[.[.[.[.[.[.[.[.[.[.[.[.[.[.[.[.[.[.[.].].].P.F.U.].^.L.j.].].[.[.[.[.[.[.[.[.[.[.[.[.[.[.[.[.[.[.[.[.[.[.[.[.[.[.",
"[.[.[.[.[.[.[.[.[.[.[.[.[.[.[.[.[.[.[.[.[.[.[.[.].].].f.F.'.].k.9 g ].].F.x.].].[.[.[.[.[.[.[.[.[.[.[.[.[.[.[.[.[.[.[.[.[.[.[.[.",
"[.[.[.[.[.[.[.[.[.[.[.[.[.[.[.[.[.[.[.[.[.[.].].].F.F.].].y 9 h.]._.9 9 /.].L.L.G.].[.[.[.[.[.[.[.[.[.[.[.[.[.[.[.[.[.[.[.[.[.[.",
"[.[.[.[.[.[.[.[.[.[.[.[.[.[.[.[.[.[.[.[.[.].g.F.Y.].'.7 7 ].].h : @ ].].l 9 K.].'.F.g.].].[.[.[.[.[.[.[.[.[.[.[.[.[.[.[.[.[.[.[.",
"[.[.[.[.[.[.[.[.[.[.[.[.[.[.[.[.[.[.].].g.L./.].^.7 7 ].].1 H H H H H X ].].v 9 c.].].F.g.].].[.[.[.[.[.[.[.[.[.[.[.[.[.[.[.[.[.",
"[.[.[.[.[.[.[.[.[.[.[.[.[.[.].].F.F.].].w.7 z.].^.N N N S n.u.t.m.y.8.b.m.N N G ;.]./.9 *.].].L.L.T.].[.[.[.[.[.[.[.[.[.[.[.[.[.",
"[.[.[.[.[.[.[.[.[.[.[.[.[.g.L.U.].].a 7 ].].6 D H H H H H n.4.t.m.3.8.>.m.H H H H H D ].].$.y ].].^.F.f.[.[.[.[.[.[.[.[.[.[.[.[.",
"[.[.[.[.[.[.[.[.[.[.[.[.[.E.].T.9 =.].c > > > > > > > > > n.5.5.n.<.2.3.m.> > > > > > > > & ].L.7 ^.].].[.[.[.[.[.[.[.[.[.[.[.[.",
"[.[.[.[.[.[.[.[.[.[.[.[.[.].9 ].].r D D H D D D H D D D N n.n.n.n.n.n.n.m.D H D D H H D D D F V ].].a ].[.[.[.[.[.[.[.[.[.[.[.[.",
"[.[.[.[.[.[.[.[.[.[.[.[.].].q.  > > > > > > > > > > > > > n.>.<.m.4.y.8.m.> > > > > > > > > > > > @ ].].'.[.[.[.[.[.[.[.[.[.[.[.",
"[.[.[.[.[.[.[.[.[.[.[.[.K.y ].S S D G G D D D S D F N F D n.H.J.].!.W.u.m.D D S F D D S D S S D D S ].&.x.[.[.[.[.[.[.[.[.[.[.[.",
"[.[.[.[.[.[.[.[.[.[.[.[.[.y ].% % % % % % % % % % % % % < ].J.J.].!.~.`.].% % % % % % % % % % - % %   f.Y.[.[.[.[.[.[.[.[.[.[.[.",
"[.[.[.[.[.[.[.[.[.[.[.[.[.].S S S S S S S S C S C B  . .| ].].].].].].].]...X.F S C S S S S S S S S C ].].h.[.[.[.[.[.[.[.[.[.[.",
"[.[.[.[.[.[.[.[.[.[.[.[.].].S S S S C S S S C C | | | | | |  .|  .| |  .| | | | | P C S S C S S C S S '.].L.[.[.[.[.[.[.[.[.[.[.",
"[.[.[.[.[.[.[.[.[.[.[.[.].@ : : : : : : : S F P D P P D D P P S K D D K F K F P D P F D : : : : : : : ; ].].].[.[.[.[.[.[.[.[.[.",
"[.[.[.[.[.[.[.[.[.[.[.].9.C C C C C M | | ` ` ` ` | ^ | ` | ` ` ` ` | ` ` | ` | | ` ` ` | | S C C C V C s ].,.[.[.[.[.[.[.[.[.[.",
"[.[.[.[.[.[.[.[.[.[.[.].9 ; ; ; V S S S S D G S S S S S S S S S S D S S S S S S S S D G S S S S C ; ; ; f.].].[.[.[.[.[.[.[.[.[.",
"[.[.[.[.[.[.[.[.[.[.].f.T.V V ^ ` ` ` ` ` ` ` ` ` ` ` ` ` ` ` ` ` ` ` ` ` ` ` ` ` ` ` ` ` ` ` ` ` ` V V ].f.].e.[.[.[.[.[.[.[.[.",
"[.[.[.[.[.[.].[.[.[.].9 ].% % V V V V V V V V 2 V V V V V 2 V V V V V V V V V V V V V V V V V V V V $ $ %.s ].].].[.[.[.[.[.[.[.",
"[.[.[.[.[.[.[.[.[.].k ].M m ^ ^ ` ` ` ` ` ` ` ` ` ` ` ` ` ` ` ` ` ` ^ ` ` ` ` ` ^ ` ^ ^ ` ` ` ` ` ^ ^ C V ].g ].q.].[.[.[.[.[.[.",
"[.[.[.[.[.[.[.[.'.].9 V.V b.).).).).).).).).` ^ ^ ` ` ` ^ _.).).)._.).)._.` ^ ` ` ` ` B.).).).).).).).M.V   r.].].].[.[.[.[.[.[.",
"[.[.[.[.[.[.[.[.].P.T.V m ].*.4 7.].b q R.].^ ^ ` ` ` ` ^ ].4 d ].j n :.].` ` ` ^ ` ` Z.* + g Q.g O n w.V C ].r.]._.[.[.[.[.[.[.",
"[.[.[.].[.[.[.[.].7 ].: : ].q :.o ].j v O ].D S D B D N B ].i *.].j 5 o ].S S D S D D B.+ p f z.q k.O :.; ; ].s ].'.].[.[.[.[.[.",
"[.[.[.].[.[.[.].].6.. C C ].0 q O ].4 o O ].| | ` | ` ` | ].6 q ].O u o ].` | | | ^ ` C.0 + i s.p.O v s.C C # ].K.].].].[.[.[.[.",
"[.[.[.].[.[.[.].9.].; : : ].].].].].].].].].S D D D D D N ].].].].].].].].S D D D D F B.].].].].].].].].: ; ; ].9 ].S.].[.[.[.[.",
"[.[.[.[.[.[.[.].7 ].S B S ].4 6 + ].i j O ]. . . . . . . .].O 4 ].p h O ].|  . . . . .C.4 o 4 s.0 :.z :.L S B X f.].].].[.[.[.[.",
"[.[.[.[.[.[.].'.h.& V < ! ].o 4 + ].q O v ].) ) ^ ) ) ) Y ].O O ].q + + ].^ ) ) ) ) ) Z.4 4 o s.b 5 O &.! < V m ].r.].T.[.[.[.[.",
"[.[.[.[.[.[.].9 ].N S D  .].0.0.7.].7.7.w.].o.o.o.o. . .o.].7.0.].7.0.0.].o.o.o.o.o.o.C.7.7.7.I.s.0.0.V.o.D D N R.9 ].].].[.[.[.",
"[.[.[.[.[.].].y x H D o.O.{ { { { { { { { { +.o.o.o.+.o.o.{ { { { { { { { O.O.o.o.+.o.} { { { { { { { { O.+.D D H ].d.].].].[.[.",
"[.[.[.[.[.].k c.m M D O.o.o.o.o.o.o.o.o.o.o.o.o.O.o.o.o.o.o.o.o.o.o.o.o.O.o.o.o.o.o.o.o.O.O.o.o.o.o.o.O.o.o.D D H ].9 ].r.].[.[.",
"[.[.[.[.[.].9 (.M L J +.+.+.+.+.+.+.+.+.+.+.@.+.+.+.+.+.+.+.+.+.+.+.+.+.+.+.+.+.@.+.+.+.+.+.+.+.+.+.+.+.+.@.J J J ].9 '.].].[.[.",
"[.[.[.].].P.9 T.N m I I T I I I I I I I I I I I I I I I I I I I I I I I I I I I I I I I I I T T T I I I T T I m m ].9 l ].K.[.[.",
"[.[.[.[.[.[.[.P.. , 2 2 2 2 2 5.L.L.F.L.F.F.L.L.F.L.F.F.L.L.L.F.F.L.L.L.F.F.F.F.F.L.L.L.F.F.F.L.L.D.2 2 2 2 2 3 % [.[.[.[.[.[.[.",
"[.[.[.[.[.[.[.P.T #.#.#.#.#.#.1.].].].].].].].].].].].].].].].].E.].].].].].].].].].].].].].].].].D.#.#.#.#.#.#.T [.[.[.[.[.[.[.",
"[.[.[.[.[.[.[.K.N #.#.#.#.#.#.1.].].].].].].].].].].].].].].].].Q.].].].].].].].].].].].].].].].].D.#.#.#.#.#.#.U [.[.[.[.[.[.[.",
"[.[.[.[.[.[.[.P.#.@.@.@.@.@.@.1.].].w.+.+.+.+.+.@.+.@.+.+.+.].]./.].].+.+.+.@.+.+.+.+.+.+.@.! ].].D.@.@.@.@.@.+.+.[.[.[.[.[.[.[.",
"[.[.[.[.[.[.[.K...+.+.+.O.+.+.1.].].].h +.+.+.+.+.O.+.+.+.].].].'.].].].+.+.+.+.+.+.+.+.+.O.].].].D.+.+.+.+.+.+.+.[.[.[.[.[.[.[.",
"[.[.[.[.[.[.[.K.+.K J L L L L 1.].].].].a.O.O.O.O.O.O.+.].].a.].].].].].].+.O.O.O.O.O.O.! ].].].].D.K L L L L L I [.[.[.[.[.[.[.",
"[.[.[.[.[.[.[.P.O.O.O.X.O.X.O.2.].].~ ].].3 O.X.O.O.X.].].a.6.].].].].8 ].].O.O.O.O.O.O.].].S ].].G.O.X.X.O.O.X.O.[.[.[.[.[.[.[.",
"[.[.[.[.[.[.[.P.F F D F F F F ,.].].X.Y ].].Q ..X.X.'.].z.X.6.].].].].X.> ].].X.X.X.X.].].M X.].].U.D D F D F D Q [.[.[.[.[.[.[.",
"[.[.[.[.[.[.[.K.X.....X.X.....5.].].......].].3 ..].].R.....6.].].].]....., ].]...X.].].N ....].]./.X...X...X.....[.[.[.[.[.[.[.",
"[.[.[.[.[.[.[.P.Q X...X...X...e.].].] ....F ].].k.].].....~ 6.].].].].....] $.].].].]., ] ....].].'...............[.[.[.[.[.[.[.",
"[.[.[.[.[.[.[.P...] ~ ] ~ ] ~ f.].].] ] ] ~ S ].].].] ] ] ] 6.].].].].] ] ] ] * ].].= ~ ] ] ~ ].].'.] ] ] ] ] ] ] [.[.[.[.[.[.[.",
"[.[.[.[.[.[.[.K.( ] ~ ] ] ] ] f.].].] ] ] ] K.].].].] ] ] ] 9.].].].].] ] ] ~ ].].].].] ] ] ] ].].'.] ] ] ] ] ] ] [.[.[.[.[.[.[.",
"[.[.[.[.[.[.[.P.~ A G G W G E f.].].' ~ ! v.].].& ].].] ] ' 6.].].].].' ' ' ].].].].].].' ' ] ].].'.G F F F E F Q [.[.[.[.[.[.[.",
"[.[.[.[.[.[.[.P._ _ _ _ _ _ _ f.].]._ _ -.].].G _ e ].].' _ 6.].].].]._ _ ].].]._ _ ].].]._ ! ].].'._ _ _ _ _ _ ! [.[.[.[.[.[.[.",
"[.[.[.[.[.[.[.K.( ( ( ( ( ( Q f.].].u ].].V ( ( ( ( ( v.].].6.].].].].].].].( ( ( ( ( ( ].].].].].'.( ( ( ( ( ( ( [.[.[.[.[.[.[.",
"[.[.[.[.[.[.[.P.* = = = = = = f.].].].].< W Q ( Q ( Q ( ^.].].].].].].].].( Q Q Q Q ( Q W ].].].].'.= = = = = = 1 [.[.[.[.[.[.[.",
"[.[.[.[.[.[.[.P.( / / / / / W f.].].].; / / / / / / / / / ].].].].].].].A / / / / / / / W Z ].].].'./ / / / / / W [.[.[.[.[.[.[.",
"[.[.[.[.[.[.[.K.R E W W W W W f.].].# E W W W W E W W W W W ].].].].].E E W W W E / W W / E 2 ].].'.W W W W W W W [.[.[.[.[.[.[.",
"[.[.[.[.[.[.[.P./ Z E E E E E f.].].].].].].].].].].].].].].].].].].].].].].].].].].].].].].].].].'.E E E E E E E [.[.[.[.[.[.[.",
"[.[.[.[.[.[.[.K.R E E E E E E f.].].].].].].].].].].].].].].].].].].].].].].].].].].].].].].].].].].E E E E E E E [.[.[.[.[.[.[.",
"[.[.[.[.[.[.[.Y.].].].].].].].].].].].].].].].].].].].].].].].].].].].].].].].].].].].].].].].].].].].].].].].].].[.[.[.[.[.[.[."
};
