/* XPM */
static char *_7209_b622d087af64e50933ab904422849632c8f1efc024e031efd8ad890063932002[] = {
/* columns rows colors chars-per-pixel */
"64 64 126 2 ",
"   c #051605",
".  c #091706",
"X  c #061A06",
"o  c #0C1906",
"O  c #0D1D08",
"+  c #111C07",
"@  c #111F09",
"#  c #191F09",
"$  c #072108",
"%  c #0E240A",
"&  c #12250A",
"*  c #1B220A",
"=  c #152A0D",
"-  c #1A2C0D",
";  c #19300F",
":  c #1A2E10",
">  c #1C3311",
",  c #1F3914",
"<  c #23240B",
"1  c #2B260C",
"2  c #232C0D",
"3  c #2B2E0E",
"4  c #372D0E",
"5  c #3C2E0E",
"6  c #23310F",
"7  c #2C310F",
"8  c #34310F",
"9  c #243511",
"0  c #2C3511",
"q  c #233B15",
"w  c #2B3D15",
"e  c #343511",
"r  c #3C3510",
"t  c #363913",
"y  c #393C14",
"u  c #42300F",
"i  c #433711",
"p  c #4D3511",
"a  c #423A13",
"s  c #4B3A12",
"d  c #503711",
"f  c #533D14",
"g  c #5B3C13",
"h  c #264017",
"j  c #2A4117",
"k  c #264118",
"l  c #2A451A",
"z  c #2D481B",
"x  c #324117",
"c  c #3B4217",
"v  c #334519",
"b  c #30491C",
"n  c #3A4A1B",
"m  c #434015",
"M  c #4C4115",
"N  c #484518",
"B  c #454E1C",
"V  c #4B4C1C",
"C  c #554316",
"Z  c #5C4316",
"A  c #554B1A",
"S  c #5F4B19",
"D  c #5E511D",
"F  c #654516",
"G  c #6C4316",
"H  c #6D4817",
"J  c #6E4718",
"K  c #634C1B",
"L  c #724517",
"P  c #724C19",
"I  c #7D4F1B",
"U  c #64551F",
"Y  c #6B551E",
"T  c #72541F",
"R  c #7C511C",
"E  c #7D591F",
"W  c #864E1A",
"Q  c #894F1B",
"!  c #914615",
"~  c #974917",
"^  c #9A4B17",
"/  c #9E4E18",
"(  c #8B531B",
")  c #91561C",
"_  c #9B571D",
"`  c #965C1F",
"'  c #A04F18",
"]  c #A3511A",
"[  c #AB561B",
"{  c #A45C1E",
"}  c #AD591E",
"|  c #B35B1D",
" . c #B95E1F",
".. c #BB601F",
"X. c #825820",
"o. c #8C5A21",
"O. c #935B22",
"+. c #995C22",
"@. c #A15F23",
"#. c #AE5F21",
"$. c #B45D20",
"%. c #B85F21",
"&. c #9F6323",
"*. c #AC6424",
"=. c #BC6221",
"-. c #B66926",
";. c #BD6925",
":. c #B66B29",
">. c #BA6D29",
",. c #C36623",
"<. c #C56924",
"1. c #CC6B24",
"2. c #C16D29",
"3. c #CD6E28",
"4. c #D26F25",
"5. c #D06F28",
"6. c #CC722B",
"7. c #D37026",
"8. c #D97126",
"9. c #D4742B",
"0. c #D9762C",
"q. c #D5792F",
"w. c #DA782F",
"e. c #D57930",
"r. c #DA7A30",
"t. c #E07C31",
/* pixels */
"e.e.e.e.e.e.e.e.e.e.e.e.e.e.e.e.e.e.e.e.e.e.e.e.e.e.e.e.e.e.e.e.e.e.e.e.e.e.e.e.e.e.e.e.e.e.e.e.e.e.e.e.e.e.e.e.e.e.e.e.e.e.e.e.",
"q.q.q.q.9.q.e.e.q.e.q.q.q.q.q.q.q.q.q.q.q.q.q.q.q.q.q.q.q.q.q.q.q.q.q.q.q.q.q.q.e.e.e.e.e.e.q.q.q.q.q.q.q.q.9.e.e.e.q.q.q.q.q.q.",
"e.e.e.e.e.e.e.e.e.e.e.e.e.e.e.e.e.e.e.e.e.e.e.e.e.e.e.e.e.e.e.e.e.e.e.e.e.e.e.e.r.:.>.r.e.0.e.e.e.e.e.e.e.e.e.e.e.e.e.e.e.e.e.e.",
"q.q.q.q.q.e.e.e.q.q.q.q.q.q.q.q.q.e.e.e.q.q.q.q.q.q.q.q.q.e.e.e.q.q.q.q.q.q.q.q.r.o.3 - Y t.r.e.q.q.q.q.e.e.e.e.e.q.q.q.q.q.q.q.",
"q.q.e.9.e.9.9.e.e.9.9.q.q.q.9.e.e.9.e.9.9.q.q.e.q.9.9.e.9.e.9.e.9.e.e.9.r.0.q.q.r.O.- = 2 +.+.0.q.q.9.9.e.e.e.9.e.9.e.9.q.q.q.9.",
"q.q.e.e.e.e.e.e.e.e.e.e.9.e.9.e.9.e.e.e.e.e.9.9.q.e.e.e.e.e.e.e.e.e.e.0.o.K 9.6.:.N q q q 0 : r.q.q.e.e.9.e.9.e.e.e.e.e.9.e.e.e.",
"9.e.9.9.9.e.9.9.9.e.6.e.9.e.e.9.9.e.6.e.e.9.9.q.9.9.e.e.9.9.e.9.9.9.e.o.% % o.I q q k k q l t 0.9.9.e.e.e.e.9.e.6.e.9.e.e.e.9.e.",
"9.9.9.e.9.e.9.e.9.9.q.9.e.9.e.9.q.9.e.9.e.9.q.9.9.e.9.9.9.q.6.e.9.e.e.+.% & O.r q ; ; = : : 6 w.q.9.9.9.9.9.e.9.9.9.q.9.9.9.9.9.",
"9.q.9.9.9.q.9.9.9.9.q.9.9.q.9.9.q.9.9.9.9.9.9.q.q.9.9.9.q.9.e.6.3.>.2.& ; ; % 2 = = n v k q = f 9.9.9.9.9.9.9.9.9.9.9.9.9.q.9.9.",
"9.9.9.9.9.9.9.9.q.9.9.9.9.9.9.9.9.9.9.q.9.9.9.9.9.9.9.9.9.9.0.f f R :.% l w > : & & X.K h : = +.6.9.q.9.9.q.9.9.q.9.q.9.9.9.9.9.",
"9.9.9.9.9.9.9.9.9.9.6.9.6.9.9.9.9.9.9.9.7.9.9.9.9.9.9.9.9.9.0.$ $ % % &.z z j = j z z T 2.I @.9.9.9.9.9.9.9.9.9.9.9.9.9.9.9.9.9.",
"6.9.9.9.7.9.9.9.9.9.9.9.9.9.9.9.9.9.9.9.9.9.9.9.9.6.9.9.7.9.0.3 3 t > V l z w 6 z z z v I 6.9.9.9.9.9.9.9.7.9.9.9.9.9.6.9.9.9.9.",
"9.7.9.9.9.5.9.9.9.9.9.7.9.9.9.7.9.8.9.9.9.9.7.9.9.9.9.9.9.9.9.8.9.a g >.:.*.O.F = = > q % ;.9.9.9.9.9.9.9.9.9.9.9.9.7.9.6.9.9.7.",
"9.9.9.7.9.9.8.9.7.9.7.q.9.9.7.9.9.5.9.5.9.5.9.9.9.7.7.7.5.9.5.9.9.*.2.5.9.9.e.#.- % $ O g 2.3.1.3.3.3.3.6.7.5.9.9.9.9.9.9.9.7.9.",
"9.9.7.9.9.5.9.5.9.9.7.7.9.7.9.7.5.9.5.9.4.9.9.5.9.9.9.q.5.9.5.5.9.5.9.5.5.5.3.,.J * g u #.$.$.$.$.$.|  .$.%.=.=.,.,.3.5.9.7.9.7.",
"5.7.q.7.8.9.5.9.9.5.9.9.7.9.7.9.9.9.8.9.8.5.9.9.5.1.=.=.$.$.$.$.} } $.[ $.] #.] [ #.$.#.#.$.$.$.=.;.,.<.1.3.3.5.4.9.7.9.9.9.7.9.",
"9.5.5.8.5.8.5.9.8.5.9.5.9.5.8.9.5.9.9.5.5.8.9.5.5.9.5.5.1.,.,.,.,.=.%.%.%.%.=.=.;.,.,.,.<.1.3.1.3.9.7.9.5.8.9.8.9.5.9.5.8.5.9.8.",
"9.5.9.5.9.5.9.5.5.9.5.8.9.8.5.8.8.5.8.5.9.5.9.5.9.5.8.5.9.5.5.8.5.5.9.8.9.5.9.8.5.7.9.7.9.7.9.7.7.7.7.5.9.5.5.5.9.5.5.8.5.9.5.5.",
"4.5.5.8.4.5.5.5.5.5.5.4.5.8.5.5.5.8.5.5.4.5.5.8.5.4.4.4.5.5.8.5.5.5.4.5.5.8.4.5.5.5.7.7.7.7.7.7.4.9.5.7.5.8.5.5.5.5.8.5.5.5.5.8.",
"5.8.4.5.5.8.5.8.4.8.5.4.5.5.4.5.5.5.5.8.5.8.5.5.4.4.4.4.5.5.5.4.5.8.5.8.5.5.5.4.5.5.5.4.4.7.7.7.4.5.5.5.5.4.8.4.8.5.5.4.8.8.5.5.",
"4.4.4.4.4.4.4.4.4.4.4.4.4.4.4.4.4.4.4.4.4.4.4.4.4.4.4.4.4.4.4.4.4.4.4.4.4.4.4.4.8.4.4.4.4.4.4.4.4.4.4.4.4.4.4.4.4.4.4.4.4.4.4.4.",
"4.4.4.4.4.4.4.4.4.4.4.4.4.4.4.4.4.4.4.4.4.4.4.4.4.4.4.4.4.4.4.4.4.4.4.4.4.4.4.4.4.4.4.4.4.4.4.4.4.4.4.4.4.4.4.4.4.4.4.4.4.4.4.4.",
"4.4.4.4.4.4.4.4.4.4.4.4.4.4.4.4.4.4.4.4.4.4.4.4.4.4.4.4.4.4.4.4.4.4.4.4.4.4.4.4.4.4.4.4.4.4.4.4.4.4.4.4.4.4.4.4.4.4.4.4.4.4.4.4.",
"4.4.4.4.4.4.4.4.4.4.4.4.4.4.4.4.4.4.4.4.4.4.4.4.4.4.4.4.4.4.4.4.4.4.4.4.4.4.4.4.4.4.4.4.4.4.4.4.4.4.4.4.4.4.4.4.4.4.4.4.4.4.4.4.",
"4.4.4.4.4.4.4.4.4.4.4.4.4.4.4.4.4.4.4.4.4.4.4.4.4.4.4.4.4.4.4.4.4.4.4.4.4.4.4.4.4.4.4.4.4.4.4.4.4.4.4.4.4.4.4.4.4.4.4.4.4.4.4.4.",
"4.4.4.4.4.4.4.4.4.4.4.4.4.4.4.4.4.4.4.4.4.4.4.4.4.4.4.4.4.4.4.4.4.4.4.4.4.4.4.4.4.4.4.4.4.4.4.4.4.4.4.4.4.4.4.4.4.4.4.4.4.4.4.4.",
"4.4.4.4.4.4.4.4.4.4.4.4.4.4.4.4.4.4.4.4.4.4.4.4.4.4.4.4.4.4.4.4.4.4.4.4.4.4.4.4.4.4.7.7.4.4.4.4.4.4.4.4.4.4.4.4.4.4.4.4.4.4.4.4.",
"4.4.4.4.4.4.4.4.4.4.4.4.8.4.4.4.8.4.4.4.4.4.4.4.4.4.4.4.4.4.4.4.4.4.4.4.4.4.4.4.4.4.4.7.4.4.4.4.4.4.4.4.4.4.4.4.4.4.4.4.4.4.4.4.",
"4.4.4.4.4.4.4.4.4.4.<. .' ' ! ' ' 4.4.4.4.4.4.4.4.4.4.4.4.4.4.4.4.4.4.4.4.4.4.8.7...H m <.-.{ m ` 1.7.7.4.4.4.4.4.4.4.4.4.4.4.4.",
"4.4.4.4.4.4.4.4.4.4.! ^ ! ! ! ! ! / 1.4.4.4.4.4.4.4.4.4.4.4.4.4.4.4.4.4.4.8.i ( M b z l H c l q = ..8.4.4.4.4.4.4.4.4.4.4.4.4.4.",
"4.4.4.4.4.4.4.4.4.4.^ ! ! ! ~ ! ' ^ <.4.4.4.4.4.4.4.4.4.4.4.4.4.4.4.4.4.8.*.q s ; h l l w z l h ; r ( 1.4.4.4.4.4.4.4.4.4.4.4.4.",
"4.4.8.4.4.4.4.4.<.'  .~ ' ~ ~ ! / ! ' 4.4.4.4.4.4.4.4.4.4.4.4.4.4.4.7.7.3.K l j 0 e ; , 6 q h ; ; 3 i 1.4.4.4.4.4.4.4.4.4.4.4.4.",
",.,.1.1.4.4.4.4.1.^ ,.,.4.,.....,...| 4.4.4.4.4.4.4.4.4.4.4.4.4.4.4.7...E 6 7 , 7 { P e j 8 8 , % = s ) <.7.7.7.4.4.4.4.4.4.4.4.",
"4.4.4.4.4.4.4.4.4.4.4.4.4.4.4.4.4.4.4.4.4.4.4.4.4.4.4.4.4.4.4.4.4.7.1.; ; 6 C F ( C - 6 l D P = ; l z l 9 6 ( 9.4.4.4.4.4.4.4.4.",
"4.4.4.4.4.4.4.4.4.4.4.4.4.4.4.4.4.4.4.4.4.4.4.4.4.4.4.4.4.4.4.4.4.8...h j q - 2 8 ( S q z v E ; q z z l l k V <.4.4.4.4.4.4.4.4.",
"4.4.4.4.4.4.4.4.4.4.4.4.4.4.4.4.4.4.4.4.4.4.4.4.4.4.4.4.4.4.8.1.1.I c z l q l l j A x k ; - h j z ; & = l , l w ) 7.4.4.4.4.4.4.",
"4.4.4.4.4.4.4.4.4.4.4.4.4.4.4.4.4.4.4.4.4.4.4.4.4.4.4.4.4.8.<.- - q q - & = j 9 q q k l l l z z z q & & 2 i y A { 4.4.4.4.4.4.4.",
"4.4.4.4.4.4.4.4.4.4.4.4.4.4.4.4.4.4.4.4.4.4.4.4.4.4.4.4.4.4.1.q h l l x 7 q z h , > > - l q z l l h 2 - 7 c v n ..4.4.4.4.4.4.4.",
"4.4.4.4.4.4.4.4.4.4.4.4.4.4.4.4.4.4.4.4.4.4.4.4.4.4.4.4.4.C 6 ; - > ; , & * ; h l l k > = z z l l & ; > = q l h n &.4.4.4.4.4.4.",
"4.4.4.4.4.4.4.4.4.4.4.4.4.4.4.4.4.4.4.4.4.4.4.4.4.4.4.4.8.8 % , , ; & - & % = h l l z k > z l l l ; ; l h , z k b B 7.4.4.4.4.4.",
"4.4.4.4.4.4.4.4.4.4.4.4.4.4.4.4.4.4.4.4.4.4.4.4.4.4.4.4.4...H ; ; h q h q q 9 q z q k z l z l l l & = q z q > q k z 8.1.4.4.4.4.",
"4.4.4.4.4.4.4.4.4.4.4.4.4.4.4.4.4.4.4.4.4.4.4.4.4.4.4.4.7.<.s = = , h z l l z , j l k z q l z q ; % % = > q & = ; - 8.4.4.4.4.4.",
"4.4.4.4.4.4.4.4.4.4.4.4.4.4.4.4.4.4.4.4.4.4.4.4.4.4.4.4.4.4.<.i i ; h z q q z z z q = = O = & : ; l k = % = = % = & E 8.4.4.4.4.",
"4.4.4.4.4.4.4.4.4.4.4.4.4.4.4.4.4.4.4.4.4.4.4.4.4.4.4.4.4.1.{ g Z % ; = = > l q l h > q e O : , q z l = O % & X - 2 F 8.4.4.4.4.",
"4.4.4.4.4.4.4.4.4.4.4.4.4.4.4.4.4.4.4.4.4.4.4.4.4.4.4.4.7.1.f l l l l 0 8 O 2 * < & s P 1 9 > z l j l j u 1 t A l B 2.7.4.4.4.4.",
" .| | [ | | | | | |  . .....,.1.1.1.4.4.4.4.4.4.4.4.4.7.( - j ; ; ; > h < Q a 9 j l j q o = l z l q O o g * - l l l B ..4.4.4.4.",
"[ [ [ [ [ [ [ [ [ [ [ [ [ [ [ [ [ [ |  .....<.1.4.4.4.7.4 + ; = - o O + d 5 < q l z z q o = q z z l q O Y q 9 q l , v U 8.4.4.4.",
"[ [ [ [ [ ' [ [ [ [ |  .......,.1.4.4.4.4.4.4.4.4.4.4.4.4.G . 9 q l l j F v v > l l > l w o 9 > q q @ o - l l ; & ; ; = 4.4.4.4.",
"[ [ [ | |  .....1.1.1.4.4.4.4.4.4.4.4.4.4.4.4.4.4.4.4.4.8.* O O . q j & 3 k z 9 ; q j j 9 . & j q o o o & - & & o o & # 8.4.4.4.",
"..1.1.1.1.4.4.4.4.4.4.4.4.4.4.4.4.4.4.4.4.4.4.4.4.4.4.4.4._ L   X O = o o ; > q o O & ; O o . & @ o o o o o + # . .   5 4.4.4.4.",
"4.4.4.4.4.4.4.4.4.4.4.4.4.4.4.4.4.4.4.4.4.4.4.4.4.4.4.4.4.4...1 1 5   . o @ . * . . o o . d # 1 .     o 1 * . G + o u Q 4.4.4.4.",
"4.4.4.4.4.4.4.4.4.4.4.4.4.4.4.4.4.4.4.4.4.4.4.4.4.4.4.4.4.4.4.4.4.#.=.5 . < g 5 L { 4 p _ 7.1.4.1.1.1.W 8.1.1.1.1.4.3.4.4.4.4.4.",
"4.4.4.4.4.4.4.4.4.4.4.4.4.4.4.4.4.4.4.4.4.4.4.4.4.4.4.4.4.4.4.4.4.4.4.4.,.1.4.4.4.4.4.4.4.4.4.4.4.4.4.4.4.4.4.4.4.4.4.4.4.4.4.4.",
"4.4.4.4.4.4.4.4.4.4.4.4.4.4.4.4.4.4.4.4.4.4.4.4.4.4.4.4.4.4.4.4.4.4.4.4.4.4.4.4.4.4.4.4.4.4.4.4.4.4.4.4.4.4.4.4.4.4.4.4.4.1.1.,.",
"4.4.4.4.4.4.4.4.4.4.4.4.4.4.4.4.4.4.4.4.4.4.4.4.4.4.4.4.4.4.4.4.4.4.4.4.4.4.4.4.4.4.4.4.4.4.4.4.4.4.4.4.4.4.4.4.,...| | [ [ [ ] ",
"4.4.4.4.4.4.4.4.4.4.4.4.4.4.4.4.4.4.4.4.4.1.4.4.4.4.4.4.4.4.4.4.4.4.4.4.4.4.4.4.4.4.4.4.4.4.4.4.4.4.4.3.4.4.4.4.4.4.1.1.,.,... .",
"4.4.4.4.4.4.4.4.4.4.4.4.4.4.4.4.4.4.4.4.4.4.4.4.4.4.4.4.4.4.4.4.4.4.4.4.4.4.4.4.4.4.4.4.4.4.4.4.4.4.1.4.4.4.4.4.4.4.4.4.4.4.4.4.",
"4.4.4.4.4.4.4.4.4.4.4.4.4.4.4.4.4.4.4.4.4.4.4.4.4.4.4.4.4.4.4.4.4.4.4.4.4.4.4.4.4.4.4.4.4.4.4.4.4.4.4.4.4.4.4.4.4.4.4.4.4.4.4.4.",
"4.4.4.4.4.4.4.4.4.4.4.4.4.4.4.1.4.4.4.4.7.4.4.4.4.4.4.4.4.4.4.4.4.4.4.4.4.4.4.4.4.4.4.4.4.4.4.4.4.4.4.4.4.4.4.4.4.4.4.4.4.4.4.4.",
"4.4.4.4.4.4.4.4.4.4.4.4.4.4.4.4.4.4.4.4.4.4.4.4.4.4.4.4.4.4.4.4.4.4.4.4.4.4.4.4.4.4.4.4.4.4.4.4.4.4.4.4.4.4.4.4.4.4.4.4.4.4.4.4.",
"4.4.4.4.4.4.4.4.4.4.4.4.4.4.4.4.4.4.4.4.4.4.4.4.4.4.4.4.4.4.4.4.4.4.4.4.4.4.4.4.4.4.4.4.4.4.4.4.4.4.4.4.4.4.4.4.4.4.4.4.4.4.4.4.",
"4.4.4.4.4.4.4.4.4.4.4.4.4.4.4.4.4.4.4.4.4.4.4.4.4.4.4.4.4.4.4.4.4.4.4.4.4.4.4.4.4.4.4.4.4.4.4.4.4.4.4.4.4.4.4.4.4.4.4.4.4.4.4.4.",
"4.4.4.4.4.4.4.4.4.4.4.4.4.4.4.4.4.4.4.4.4.4.4.4.4.4.4.4.4.4.4.4.4.4.4.4.4.4.4.4.4.4.4.4.4.4.4.4.4.4.4.4.4.4.4.4.4.4.4.4.4.4.4.4.",
"4.4.4.4.4.4.4.4.4.4.4.4.4.4.4.4.4.4.4.4.4.4.4.4.4.4.4.4.4.4.4.4.4.4.4.4.4.4.4.4.4.4.4.4.4.4.4.4.4.4.4.4.4.4.4.4.4.4.4.4.4.4.4.4."
};
