/* XPM */
static char *_7012_2ef5e2c8f109b0a44eb1e2e1bdc15ff90f7e665d3c8a8f8d482963ed9a254a5b[] = {
/* columns rows colors chars-per-pixel */
"64 64 256 2 ",
"   c #080503",
".  c #0C1E02",
"X  c #081D07",
"o  c #131D03",
"O  c #1C1C04",
"+  c #151A0B",
"@  c #291B0D",
"#  c #391C0A",
"$  c #052202",
"%  c #0B2104",
"&  c #082A08",
"*  c #16230A",
"=  c #13240D",
"-  c #083708",
";  c #063C0A",
":  c #122E11",
">  c #083511",
",  c #133814",
"<  c #322812",
"1  c #0E1E35",
"2  c #181930",
"3  c #1A1A39",
"4  c #351C2F",
"5  c #0F2536",
"6  c #282A2D",
"7  c #471E09",
"8  c #551D0D",
"9  c #7B1B1E",
"0  c #46230D",
"q  c #56270C",
"w  c #55280C",
"e  c #482614",
"r  c #552713",
"t  c #58311E",
"y  c #6E2F0B",
"u  c #732D0E",
"i  c #56182F",
"p  c #691629",
"a  c #7C1629",
"s  c #711531",
"d  c #761734",
"f  c #4B3233",
"g  c #054409",
"h  c #06440B",
"j  c #0A430D",
"k  c #0B4A0B",
"l  c #12480B",
"z  c #0C540D",
"x  c #115D0F",
"c  c #074514",
"v  c #0A4311",
"b  c #134416",
"n  c #0D5716",
"m  c #185A15",
"M  c #25491E",
"N  c #136D0D",
"B  c #196616",
"V  c #1A7417",
"C  c #216F1D",
"Z  c #26781C",
"A  c #254D26",
"S  c #2D5831",
"D  c #2D6F2A",
"F  c #347429",
"G  c #5B432D",
"H  c #5B4738",
"J  c #644E3B",
"K  c #69523D",
"L  c #765A3F",
"P  c #417E3B",
"I  c #361F42",
"U  c #14314D",
"Y  c #143551",
"T  c #34374B",
"R  c #55304F",
"E  c #2E5A5F",
"W  c #6A5543",
"Q  c #735C47",
"!  c #76514E",
"~  c #78614A",
"^  c #7D644D",
"/  c #7C6855",
"(  c #8B171D",
")  c #941A1C",
"_  c #A81C04",
"`  c #9D241C",
"'  c #A7291B",
"]  c #870F2A",
"[  c #881929",
"{  c #951729",
"}  c #861732",
"|  c #961B32",
" . c #AC1A2E",
".. c #91272D",
"X. c #9C2635",
"o. c #A9262C",
"O. c #B32E2B",
"+. c #CC291B",
"@. c #D8371D",
"#. c #E43C1E",
"$. c #C91D25",
"%. c #CC322C",
"&. c #D43424",
"*. c #EA2B2B",
"=. c #E83726",
"-. c #FA3C26",
";. c #E93931",
":. c #A74D1F",
">. c #DA4D19",
",. c #E54B1C",
"<. c #F34A1C",
"1. c #E7591B",
"2. c #FD581E",
"3. c #C8621E",
"4. c #EB661B",
"5. c #F4651A",
"6. c #F5781A",
"7. c #DA482B",
"8. c #CB522E",
"9. c #E64726",
"0. c #F84827",
"q. c #FC442B",
"w. c #E75125",
"e. c #F95A26",
"r. c #E94C35",
"t. c #F94934",
"y. c #FB5439",
"u. c #C9682A",
"i. c #FB6926",
"p. c #FD7325",
"a. c #FD7B24",
"s. c #FC7729",
"d. c #EA6F36",
"f. c #FA6839",
"g. c #FE7537",
"h. c #D03B48",
"j. c #826C57",
"k. c #8D7357",
"l. c #8A735C",
"z. c #887563",
"x. c #947D65",
"c. c #B76060",
"v. c #D35C49",
"b. c #E25442",
"n. c #FC5B46",
"m. c #CB6857",
"M. c #FC6444",
"N. c #FA7251",
"B. c #2D8A1C",
"V. c #2A8725",
"C. c #378D2D",
"Z. c #389924",
"A. c #3EA326",
"S. c #3CA031",
"D. c #4B8D3A",
"F. c #489839",
"G. c #49B32F",
"H. c #45A334",
"J. c #58C73A",
"K. c #64CD3D",
"L. c #518E47",
"P. c #67B056",
"I. c #5CC647",
"U. c #64CB46",
"Y. c #68D647",
"T. c #6CDB51",
"R. c #76D95A",
"E. c #7CF14E",
"W. c #75E553",
"Q. c #7CEE54",
"!. c #7EEF5A",
"~. c #76F051",
"^. c #7DF154",
"/. c #7EF159",
"(. c #7ACE64",
"). c #7DE764",
"_. c #FB851E",
"`. c #FBA81D",
"'. c #FD8828",
"]. c #FB9525",
"[. c #FD952A",
"{. c #FD9C2B",
"}. c #FE8734",
"|. c #FE9935",
" X c #FCA429",
".X c #FCA834",
"XX c #FBB034",
"oX c #FEC53D",
"OX c #9A8369",
"+X c #9E8F74",
"@X c #A48A6C",
"#X c #A38C74",
"$X c #AB9479",
"%X c #B49A7C",
"&X c #B5A17D",
"*X c #ED8B57",
"=X c #F8BA44",
"-X c #F4AE51",
";X c #C88A70",
":X c #E99D6A",
">X c #FEB075",
",X c #82EE56",
"<X c #82EC5C",
"1X c #81F153",
"2X c #82F25B",
"3X c #84CB67",
"4X c #84EA64",
"5X c #87F363",
"6X c #8EF074",
"7X c #FDCA4B",
"8X c #FDD656",
"9X c #FDD06D",
"0X c #7ABE91",
"qX c #AD9A83",
"wX c #B49D84",
"eX c #BCA58A",
"rX c #BBA892",
"tX c #C3AA8A",
"yX c #CEB08F",
"uX c #C5AD93",
"iX c #CCB294",
"pX c #CBB59A",
"aX c #CBB69B",
"sX c #D5BA9B",
"dX c #D4BB9D",
"fX c #FDB68B",
"gX c #CDBAA3",
"hX c #D4BEA2",
"jX c #D9BFA1",
"kX c #92E58A",
"lX c #D9C09F",
"zX c #FFD18A",
"xX c #FFC796",
"cX c #D6C0A4",
"vX c #DCC4A4",
"bX c #D7C5AC",
"nX c #DBC6AA",
"mX c #DEC9AB",
"MX c #DECCB2",
"NX c #E2C9A8",
"BX c #E3CCAC",
"VX c #F5CBA9",
"CX c #FCD8AC",
"ZX c #E4CEB2",
"AX c #E8CFB1",
"SX c #E6D1B3",
"DX c #EAD3B4",
"FX c #EED8B7",
"GX c #E5D5BA",
"HX c #EAD6BA",
"JX c #ECD9BC",
"KX c #F5DAB8",
"LX c #F4CCC9",
"PX c #EDDCC1",
"IX c #F1DDC2",
"UX c #F3E1C7",
/* pixels */
"iXsXdXAXmXmXFXHXJXGXFXSXFXJXFXvXOXj.qXwXOXtXHXJXHXDXAXBXmXSXlXlXlXvXiXdXcXbXMXMXDXmXGXSXhXiXpXaXcXQ x.nXmXSXbXcXhXwXgXNXmXZXuXuX",
"vXsXiXNXlXlXSXFXJXHXGXJXJXJXPXiX~ pXFXFXcXOX$XpXFXHXDXBXSXBXmXlXsXsXmXZXmXlXMXGXHXvXmXSXaXcXhXpXsXL OXvXmXGXSXbXSXpXgXGXGXGXpXuX",
"lXvXNXBXBXBXDXGXSXAXDXFXFXAXFXiXQ vXAXAXW.R.R.F.H.OXaXFXBXDXBXvXlXcXnXBXmXbXMXbXmXsXSXNXvXmXmXpXvXj.k.sXSXGXSXBXhXpXgXSXSXGXMXpX",
"BXNXNXvXvXvXDXDXHXSXDXFXFXFXNX%XW SXHXHXW.(.R.H.F.cXl.$XuXlXBXdXBXSXvXiXGXGXPXGXGXNXlXnXBXjXlXpXMXx.L BXBXDXHXBXvXuXrXgXgXMXnXhX",
"BXNXNXlXvXvXDXSXSXDXDXFXFXDXNX%XW Z <X<X^.1X1X^.2X3XS $XtXvXBXdXSXDXvXaXGXGXGXGXDXmXcXnXBXsXhXpXmXx.K BXBXDXFXBXvXuXeXdXaXMXbXdX",
"SXBXaXmXAXBXJXFXNX%XlXKXFXDXCXk.j.KXQ.Q.1XE.E.E././.H.pXz./ $XbXGXDXBXMXPXGXGXPXGXZXBXBXAXNXNXhXSXwXJ lXFXGXJXAXHXcXaXlXhXhXsXnX",
"NXlXlXcXtXtXtX#X+XgXOX@XtX> Y.I.T.1X1XE.K.H.A.A.G.Y.~.,XL.n > +XFXDXJXmXmXGXGXcXZXPXGXPXDXsXsXjXlXyXG eXvXeX&X&XeXsXyXvXlXyXcXvX",
"OXl./ OX&XqXeXeXJXKXSXdX$X, U.U.W.1X^.E.K.A.A.A.G.Y.~.,XD.B > z.%X&XFXMXGXMXaXaXSXHXBXSXAXsXsXwXQ j.j.^ / OXl.j.J ~ j.k.x.j.OXOX",
"GXjXcXGXDXDXHXDXSXSXBXvXAX, U.U.Y.1X1XE.K.A.H.A.G.T.^.^.L.n > MX/ / $XPXSXMXeXuXmXmXSXMXxXNXNXz.rXcXbXbXMXBXSXdXuXtXqXuXuXqXQ W ",
"sXtXZXBXBXBXAXHXJXGXDXBXAXZ & - G.U.A.Z.B.B.V.Z z G.Y.U.k g 5 JXJXGX~ OXJXHXcXdXBXmXGXmXe.:XCX+XFXaXbXSXvXvXAXSXDXSXaXhXhXnX$XW ",
"dXtXjXAXAXAXAXAXJXPX, ).4X2XD.C.k g g g - N x x ; - - k k > mXPXaXpXwXz.x.AXPXSXGXUXfXxXe.e.>X>XBXaXcXSXmXmXmXBXAXAXmXmXmXJX#Xf ",
"HXdXyXvXSXSXHXPXFXkX2X2X2XQ.Q.,X5X; h c & j g h g - - % c m kXkX/.X GXGXOXj.lXGXGXHXfXxXe.e.fXfXSXcXrXSXBXGXGXbXnXmXmXpXpXhX%XK ",
"NXNXsXjXAXAXAXJXL./././.2XK.Q.^.^.V h c X k j % & % % & D Y././././.A S HXwX~ %XCXCXd.e.e.e.e.e.xXMXrXJXJXJXGXGXZXNXdXuXuXuXj.J ",
"NXNXaXjXAXZXSX0XL./././.2XJ.Q.Q.!.V h c % j j $ - o % - F Y././././.A S PXwX-X9X.X{.>.}.s.<.}.w.[..XzX9XGXJXJXGXZXmXhXuXuXtXj.J ",
"sXjXdXnXZXZXGXP /.~./.T.Z.A./.2X!.Z.C C % $ . . . % $ Z.W.Q.Q.^./.~.D S , ,  X{.[.{.]._.].].].'.]. X{.'.JXPXSXPXMXZXZXmXBXaXW @X",
"pXnXBXvXZXZXHXE 2X^.A.V.V V B.B.Y.z n n = - - > - v - Z.E.U.E.W.J.~.4X4XM < {.{.[.].].'.{.].].].]. X X'.GXJXSXvXhXmXSXBXBXAX$Xj.",
"aXvXSXmXHXSXIXPXc b B.V C ; j j j : % % 1X: , , !.C.C.H.I.g V V J.).)./.xX X X{.|.[.].].].]._._.'._.6.6.xXxXcXvXcXcXmXSXSXmXnXeX",
"tXpXNXGXPXJXIXnXhXgXV V c ; X X k b Y.T.1X~.W.W.Q.= $ z - - Z C V.B T.xX>X'.{.{.[.[.[.'.].6.6.p.i.p.i.2.v.v.PXSXmXmXvXbXcXMXcXvX",
"sXwXuXnXaXaXrXbXZXHXc h X , $ . $ F.T.T.,XI.J.G.^.m , <X- , $ % h =XXX]._._.a.p.2.e.s.'.'.'.4.,.w.w.w.7.*.=.PXJXBXMXvXJXJXvXOXaX",
"BXhXpXeXpXpXGXDXPXPX, b X . B B k E.1X1X5XH.H.Z.<X1X2X2Xg % % % X =X=X].a._.a.i.2.2.g.'.].'.4.9.w.w.r.7.=.=.SXUXGXNXBXmXmX^ / qX",
"AXbXmXMXMXMXPXAXIXS , , o X B B k E.1X^.5XH.H.V.).1X2X2Xg % % o X `.XX_.'.s.a.g.0.0.,.'.'._.s.>.>.` a h.,.0.8.VXSXSXAX^ ^ / MXmX",
"JXPXMXhXPXPX, m U.b & X X o S.S.A.4XT.R.Z.C V D B ).W.(.j , . . X XXXXa.a.a.a.p.2.w.g.'.'.[.}.' ) [ { &.q.q.q.>X9XJX%X/ j.BXAXSX",
"JXPXmXhX4X4X<X!.<X<XD.& $ . h h x C z z k z z c j z m b ; - X X -X.X.Xa.s.a.a.i.0.0.9.&.d.d.1.o.` N.'.1.y.y.y.=.#.q.%Xj./ BXSXBX",
"HXSXnX(.E.E.,XY.Y.^.~.P.F % j j h - v h h h h ; > ; - P L.& & 9.|.{.{.a.a.p.p.i.,.>.7...p { o.) _.'.'.a.y.y.y.=.@.q.r.CXhXSXHXBX",
"HXDXMX(.E.E.1XK.Y.^.~.P.D % j j c ; h h g j g g ; j - L.L.X . q.-.[.[.a.a.p.p.i.,.9.o.| i .X .g.'.'.s.'.n.y.t.&.+.&.*.;.mXHXSXDX",
"JXSX5X2XE.1X1XB x U.K.5XB.j % & & $ & & & $ & % % j F Q.<X(.;.-.-.{.{.p.p.p.i.i.w.,.) 8XXX.X.X9.f.f.f.f.0.0.q.&.&.&.+.$.SXJXPXJX",
"IXB ,XY.Y.Y.H., j V.m D g g , j l - - & % . . . % F ~.^.Q.!.9Xf.|.4.e.5.s.p.p.i.w.,.` 8XXX`. Xy.n.M.n.n.q.q.-.&.@.@.+.*.PXGXPXMX",
"BXc N V V B.$ X j g k % > , !.4X5Xk k k : . . . , /.1XJ.CXZ.8Xd..X2.w.i.s.i.i.i.1.,.' 8XXX`. Xi.n.M.M.M.q.q.-.&.&.+.+.$.JXGXbXSX",
"DXh g g g g ; % . $ F F F D./.^.<X6XF.C.b A M M D.Q./.G.Z.m.9X8X{.<.<.q.q.0.y.t.:.8X8X8X`.`. X X.XO.0.y.;.;.%.o.X. . .$.JXmXmXGX",
"DXh g g g g , % . $ F F F F./.2X<X6XC.F.j A M M P Q./.G.9X8X8X7X{.].[.q.q.y.y.;.$..X.X X6.4.5.4.w. .&.t.;.;.%.X.X.{  .] PXGXSXMX",
"JXDX, j h v . = V x 3X5X5X2X5X4XZ.Q.<X2Xj Z.Z.F.Z.V N Z 9X8X8X7X].[.W.R.F.$.r.h.*.1.}.|.4.4.1.1._ )  .q.7.;.%.| ] ] } } HXlXmXBX",
"JXAXvX& & & . G.W.U.& - V.V j l B N , c j Z.A.J./.h g h 7X7X7X=Xs.<XQ.,X<X3X| ! $.' N.[.1.1.,.O.[ p  .( O.' d.f.( } ] ` %X;XvXBX",
"KXDXNX6 = * Z W.^.!.B V.j h X X h h : & h h g j h h g & .X.X, U.W.Q.K.A.A.Y.^.L.> -.h.a a [ ( 9 p ..d ] |.-X[.i.5.[ O.O.O.O.bXZX",
"DXBXjX6 : : Z W.^.Q.B V.k c = = h h > & ; g ; h ; h h & N..X, U.W.1XK.A.A.Y.2XF.> q.t.O.} ( 7X=Xu..X{ [ |.|.].2.r.{ | o.m.m.lXMX",
"sXyXiXvXBX= Z W.^.^.fXfXh v . X j h & > c ; j j , h c & , ).5XC.l g - x B - l c N.-.r.O.a ( 7X=Xu.|...( [.|.[.2.9.{ | O.m.m.mXZX",
"yXyXtXpXAXAXc ; CXCXi.e.xXv % % . - . o ; j j . o % = *X5X/./.1X4Xc % j ; ; % v kX).X +.*X4.7X7X.X|.a.) 3.8.'.y.` ] | O.....h.SX",
"vXsXyXvXvXvXc {.{.{._.].]. X'.% @ % . o o o o @ o ; h L././.J.~.^.c . j $ % & F Q.!./.A d.'.XX7X[.].s.d.a 9 ] | } s }  ..... .ZX",
"BXNXBXVXMXMXAX X{.]._.].]. X'.* < % o o o o o o o . $ 4XZ.V.V B.Y.n = - > b A.~.~.J.Q.4X, s.XXXXa.s.2.1.s s ] ] d d } d | |  .CX",
"/ wXyXhX=X]._.a.2.2.'.4.w.7.7.*.* < o o o # # o O o % -.V V - . g Y.2X~.W.= k ; Z Z B T.F.2..X{.4.4.9.8.p p a a i s } | X. . .VX",
"%XwX%Xx.XX].a.a.2.2.'.4.w.w.w.=.DX@     o # # o o + CXq., , . B k 1X5XH.V.^.,Xg . % v % S 5. X|.4.1.9.8.p p a a p s d |  . . .VX",
"AXBXnXiXXXa.s.a.e.<.'.f.>.' h.9.8.<     + # # o O + xX-., , . B k 1X5XH.V.1X2X; o % h $ D %.].}.1.7.o.| ] [ b.X.| } | o.X.o. .VX",
"ZXDXAX7.{.p.a.p.9.,.`  .'.a.'.y.y.&.r.@ O @ @ o O 4X,XW.D.: % j x z z z j z j ; . , F./.W.^.!.{ p d X. .f.M.M.o.o.O.%.,.9.=.v.JX",
"NXSXCX-.{.p.p.p.w.,.8X.Xf.f.f.t.0.&.+.f O O O 0 <XE.<XY.~.P.% j j j g j h j L.L.= C.2X<XN E.Q.| p a X.O.M.M.M.o.o.O.%.9.;.9.8.PX",
"MXCXfXM.2.e.p.i.w.,.8XXXn.M.M.q.q.&.+.e # O O B Y.Y.H.j m D g l l - . . . F <X~.U.k k B k V T.m d d X.8.M.f.M.O.O.O.O.&.%.%.;XPX",
"JX9X8X8X].q.t.e.%.|..X4.1.o.t.;.$.X.| e q 7 # ; g g ; $ F F F./.,XF.j M A 1XG.Z.h v & , % g h c i a ] | %.8.r.o.'  .7.>.} a :XPX",
"GX9X8X7X[.#.$.r.*.1.}.w._ ) t.;.%.X.} < 0 # # c g g ; X F F F./.!.C.j A M 2XG.Z.g v = , % g c , { { ] { { { ` a { [ [ ....[ d PX",
"vX-X=XXX9.=. .X. .$.[.w.[ i ( ' M.d.} ;X;X# # @ : = X ~.& : V k B c v Z.J.c h > . > R.J.Z.: : 4 { ] { { { { ` a [ [ [ ........JX",
"lX*X.Xg.g.=.b.M.N.t.O.7Xu.{.[ |.[.5.{ m.m.# 7 # 6 * Z ^.B V.v X h & ; v j h & h h B.,XJ.c i i ! { { d i p p } p s [ a 9 a a CXPX",
"sXe.5.g.g.7.y.n.N.t.+.oX].|.[ 8.}.r...| o.7 0 # < SXc 5XZ.S.h % o . ; h o % . j % ; 2XZ > mXI mX .{ I c.i R s d d d [ [ a [ ..JX",
"NX-.-.q.g.@.X.O.n.;.o.XXa.6.1.p | ] d X.| y y # e JXc > $ . $ o @ o o o @ ; h - % c v ; = sX6 vXjX4 6 4 s d s d p s %Xj.^ FXGXBX",
"xX-.-.;.&. .{ o.n.%.a [.>.7.[ ] b.X.| o.o.y y # e ZXJXx.. * % * * * o # * % o % . o = gXY 1 3 cX< 2 6 LXc.#Xs p DXBX&XK K lXSXSX",
"ZXf.f.y.f.7.n.n.n.=.%.{ p a O.f.f.o.O.=.;.y w # t BXKXk.= * * GXJX  O # o + o % X = Y T U U 3 2 f ZXGXJXBXDXIXIXDXAXtXK K lXBXBX",
"NXf.f.t.f.>.n.n.y.9.+.| p a O.M.f.o.O.9.9.u u # t JXlXK aXNXlXmXHXe * O 0 @ GXmXcXnXBXiXY 1 1 bXPXGXZXjXgX#Xx.l./ j.OXG G tXDXFX",
"sX-.#.@.,.O.] ] y.+.p s { { ] { ` [ { ..{ w u # t AXeXQ SXnXlXmXBXNXw # 0 6 GXmXlXBXDXdXY 1 3 GXPXZXj.W l.x.$XeXtXiXcX~ ^ rXvXeX",
"yX-.=.7.9.O.] } n.+.p s [ ] | { ` a ( ..[ y w w r / ^ W x.Q f +XmXmX0 # w 6 SXmXNXnXlX/ U 5 1 &XaXOX@XiXvXJXHXDXmXFXFXH H OXiXrX",
"$X=.-.*.*. .T i 6 mXT I  .| c.i s s a [ [ u w w e $X%X%XuXiXOXe #X#Xe 7 # NXAXmXiXeXj./ Y 5 3 #XOX@XhXhXAXSXIXJXDXFXDX/ / &XKXPX",
"! AXZXZXHXSXAXBXBXgXT 3 f tX%XeXwX#XqXqX8 u w w q HXJXDXJXHXAX%XJ J r y # eXx.Q j.Q j.sXU 1 3 AXcXlXBXvXBXBXSXJXPXFXvX^ ^ OXFXFX",
"J ZXAXZXAXAXZXBXDXSXNX1 Q K W ~ z.#X#X#Xq r w :X7 JXHXHXHXBXNXcXl.l.8 q # OXx.$XiXsX%X$XU 3 3 nXsXSXBXSXmXSXDXSXJXGXSX&X%XJ sXKX",
"J rXBXAXPXHXDXAXDXDXk.3 OXjXvXSXAXAXDXDXq q q :X# HXNXAXFXdXBXAXOXOX7 u # AXAXNXDXBXhXj.U 3 3 vXSXHXSXAXDXbXSXAXBXBXFXNXmX@X^ aX",
"z./ ZXAXHXPXAXDXiXx.H 3 SXJXBXvXBXAXDXHXr q y :X@ *XBXZXNXBXFXlXj.l.q q w GXJXDXDXDXyX#XT U 3 NXBXBXBXvXmXmXBXFXDXBXDXBXBXSXrXW ",
"z.j.BXZXHXPXAXDXiXx.H 3 AXJXBXvXMXDXSXSXr u r 0 e e BXZXvXNXHXlXj.j.q q w FXJXSXHXAXiX#XY T 3 BXBXSXBXnXmXmXNXJXSXAXSXBXBXAXuXK ",
"wXW nXNXAXAXBX#X/ Q z.3 AXZXnXMXAXHXZXZX8 u r 7 0 e u.NXnXvXBXeXuXeXq q :XJXPXmXNXNXwX#XU R 3 sXdXNXsXsXlXmXHXJXHXSXSXSXAXBXSXW ",
"$XK uXsXwXwXx.x.jXNX#X3 NXvXpXAXHXHXBXZXO 3.3.# w 7 7 vXMXnXdXOXSXAXq q q e BXGXGXPXx.gXU 5 3 tXsXNXsXcXmXlXDXJXFXGXJXBXAXsXDXj.",
"j.x.j.j.l.l.eXNXNXNXE 3 j.sXAXNXGXJX# # + 3.3.:.0 q q q JXBXaX$XJXHXO 3.# # BXHXZXbX/ E U 5 3 nXSXcXvXNXNXcXBXSXBXSXJXDXDXNXBXj."
};
